<mxfile host="app.diagrams.net" modified="2022-04-22T23:42:02.883Z" agent="5.0 (Windows NT 10.0; Win64; x64) AppleWebKit/537.36 (KHTML, like Gecko) Chrome/100.0.4896.127 Safari/537.36" etag="KfWtYQs_X-lFwg4T9cxh" version="17.4.3" type="github">
  <diagram name="Page-1" id="7a6c530e-6e37-e111-ec74-82921da8cc10">
    <mxGraphModel dx="3987.5" dy="1354" grid="1" gridSize="10" guides="1" tooltips="1" connect="1" arrows="1" fold="1" page="1" pageScale="1.5" pageWidth="1169" pageHeight="826" background="#184380" math="0" shadow="0">
      <root>
        <mxCell id="0" style=";html=1;" />
        <mxCell id="1" style=";html=1;" parent="0" />
        <mxCell id="23046e2b9bb16c14-116" value="AWS" style="whiteSpace=wrap;html=1;rounded=1;shadow=0;strokeColor=none;strokeWidth=2;fillColor=#009BFF;fontSize=20;fontColor=#FFFFFF;align=center;arcSize=3;verticalAlign=top;spacingTop=4;" parent="1" vertex="1">
          <mxGeometry x="-640" y="173" width="1870" height="813" as="geometry" />
        </mxCell>
        <mxCell id="h7jb9lpsqs1myCnT-5GU-47" style="edgeStyle=orthogonalEdgeStyle;rounded=0;orthogonalLoop=1;jettySize=auto;html=1;entryX=0;entryY=0.5;entryDx=0;entryDy=0;entryPerimeter=0;fontSize=24;fontColor=#FFFFFF;strokeColor=#FFFFFF;strokeWidth=3;" edge="1" parent="1" source="h7jb9lpsqs1myCnT-5GU-18" target="h7jb9lpsqs1myCnT-5GU-41">
          <mxGeometry relative="1" as="geometry" />
        </mxCell>
        <mxCell id="h7jb9lpsqs1myCnT-5GU-46" style="edgeStyle=orthogonalEdgeStyle;rounded=0;orthogonalLoop=1;jettySize=auto;html=1;entryX=0;entryY=0.5;entryDx=0;entryDy=0;entryPerimeter=0;fontSize=24;fontColor=#FFFFFF;strokeColor=#FFFFFF;strokeWidth=3;" edge="1" parent="1" source="h7jb9lpsqs1myCnT-5GU-19" target="h7jb9lpsqs1myCnT-5GU-42">
          <mxGeometry relative="1" as="geometry" />
        </mxCell>
        <mxCell id="h7jb9lpsqs1myCnT-5GU-48" style="edgeStyle=orthogonalEdgeStyle;rounded=0;orthogonalLoop=1;jettySize=auto;html=1;entryX=0;entryY=0.5;entryDx=0;entryDy=0;entryPerimeter=0;fontSize=24;fontColor=#FFFFFF;strokeColor=#FFFFFF;strokeWidth=3;" edge="1" parent="1" source="h7jb9lpsqs1myCnT-5GU-20" target="h7jb9lpsqs1myCnT-5GU-43">
          <mxGeometry relative="1" as="geometry" />
        </mxCell>
        <mxCell id="23046e2b9bb16c14-64" value="&lt;font style=&quot;font-size: 24px&quot;&gt;RDS&lt;/font&gt;" style="rounded=1;whiteSpace=wrap;html=1;shadow=0;strokeWidth=2;fillColor=#0087DE;fontSize=12;fontColor=#FFFFFF;align=center;strokeColor=none;arcSize=3;verticalAlign=top;" parent="1" vertex="1">
          <mxGeometry x="840" y="240.5" width="290" height="700" as="geometry" />
        </mxCell>
        <mxCell id="h7jb9lpsqs1myCnT-5GU-1" value="CANAIS" style="whiteSpace=wrap;html=1;rounded=1;shadow=0;strokeColor=#6c8ebf;strokeWidth=2;fillColor=#EA6B66;fontSize=20;align=center;arcSize=3;verticalAlign=top;spacingTop=4;fontColor=#FFFFFF;" vertex="1" parent="1">
          <mxGeometry x="-1270" y="170" width="581" height="816" as="geometry" />
        </mxCell>
        <mxCell id="h7jb9lpsqs1myCnT-5GU-21" style="edgeStyle=orthogonalEdgeStyle;rounded=0;orthogonalLoop=1;jettySize=auto;html=1;entryX=0;entryY=0.5;entryDx=0;entryDy=0;entryPerimeter=0;fontSize=19;fontColor=#FFFFFF;strokeColor=#FFFFFF;strokeWidth=3;" edge="1" parent="1" source="h7jb9lpsqs1myCnT-5GU-3" target="h7jb9lpsqs1myCnT-5GU-18">
          <mxGeometry relative="1" as="geometry" />
        </mxCell>
        <mxCell id="h7jb9lpsqs1myCnT-5GU-22" style="edgeStyle=orthogonalEdgeStyle;rounded=0;orthogonalLoop=1;jettySize=auto;html=1;fontSize=19;fontColor=#FFFFFF;strokeColor=#FFFFFF;strokeWidth=3;" edge="1" parent="1" source="h7jb9lpsqs1myCnT-5GU-3" target="h7jb9lpsqs1myCnT-5GU-19">
          <mxGeometry relative="1" as="geometry" />
        </mxCell>
        <mxCell id="h7jb9lpsqs1myCnT-5GU-23" style="edgeStyle=orthogonalEdgeStyle;rounded=0;orthogonalLoop=1;jettySize=auto;html=1;entryX=0;entryY=0.5;entryDx=0;entryDy=0;entryPerimeter=0;fontSize=19;fontColor=#FFFFFF;strokeColor=#FFFFFF;strokeWidth=3;" edge="1" parent="1" source="h7jb9lpsqs1myCnT-5GU-3" target="h7jb9lpsqs1myCnT-5GU-20">
          <mxGeometry relative="1" as="geometry" />
        </mxCell>
        <mxCell id="h7jb9lpsqs1myCnT-5GU-3" value="Network Load Balancer" style="outlineConnect=0;dashed=0;verticalLabelPosition=bottom;verticalAlign=top;align=center;html=1;shape=mxgraph.aws3.application_load_balancer;fillColor=#F58536;gradientColor=none;fontColor=#FFFFFF;fontSize=19;" vertex="1" parent="1">
          <mxGeometry x="-510" y="537.5" width="104.46" height="109" as="geometry" />
        </mxCell>
        <mxCell id="h7jb9lpsqs1myCnT-5GU-14" style="edgeStyle=orthogonalEdgeStyle;rounded=0;orthogonalLoop=1;jettySize=auto;html=1;entryX=0.5;entryY=0;entryDx=0;entryDy=0;entryPerimeter=0;fontColor=#FFFFFF;strokeColor=#FFFFFF;strokeWidth=3;" edge="1" parent="1" source="h7jb9lpsqs1myCnT-5GU-4" target="h7jb9lpsqs1myCnT-5GU-3">
          <mxGeometry relative="1" as="geometry" />
        </mxCell>
        <mxCell id="h7jb9lpsqs1myCnT-5GU-4" value="" style="shape=image;verticalLabelPosition=bottom;labelBackgroundColor=default;verticalAlign=top;aspect=fixed;imageAspect=0;image=data:image/png,iVBORw0KGgoAAAANSUhEUgAAAY8AAAB+CAMAAADr/W3dAAAAdVBMVEX///81tFQbr0Tj8uUws1Arsk1fv3M2tlfO7NX2/PgmsUrg8+SS06CEzZNtx4Hd8OGt3LfB5MiIz5iZ1qao3bPy+/Xp9uxSu2kTrkC14b89t1vW7tye2KtFumHZ8N7J6dBux4N4yIkAqjK54sJRvWpmxHtcwHIvktqvAAAGe0lEQVR4nO2dfV/qIBSAx4Rq5M1MXeZLaaXf/yNeu79rHjY4MjgkrvP8K8Jhz9jYGFAUF2SohJPy7pKR/U7YR16wj7xgH3nBPvKCfeTFhH1kBfvIC/aRF+wjL9hHXkw0+8iJFfvICvaRF+wjL9hHXrCPvGAfeTFlH1nBPvKCfeQF+8gL9pEX7CMvHtlHVrCPvGAfecE+HNwPgqhnZ3Oe1c0/VacffX1UaBCgtFZhjoLRdCE1Ds2wrq3ZzcsQtFhvHjEls/F2favNP72PuvsYIfHNd6DAHZbw9ZRuG1bhUt+ut2Pg9ZvnwAzl4mYyaGeHHBccqRdDl5FqtS7bA+Ql8PHi6eNeIhFsQJEPWML7U7o/yMD9GVS5nraN3CAF40itH16b2QX7OKDXb1Ydr3trrtfu44C+AVnF+jig9KqRXVR4Uj9adIylPcQe+BBKNE/BKB+Hym7M7OLCE/qjpePNlWUffAgpl6Q+hH6g9CHkyAyvqBeuAKGPj2v1IeTavGvG+hDlBGYXc//4Qu0Kk62zwv3wIfQTrQ9Rwpt6fHhjI7yl+0D3xIdQxj093ofcU/qQZgNxN4/e+NBDWh+iBLek2OvVAfhUM7tFiu2JD/kJn0IIfKg/hO3DvGDdle6EffEhSnjBIvAhFKUPBZsv+h0P8DG+Zh9GJ5/CR3m6xBA0X3hYnrB5BL3xAR+qKXyAS0z8/UPe/DYfCvZ4SXycXnMQtA/2EQvwwe2jO0nbx+1ZhOXdOaBHPo411vhZ6u/jmGGJZwh8VB4MnpBebJiPN6xffCkfcvm/wrMX50u4L7x96Nkxwyl6Sltfk2Ng3dj++FCnAO8X7mQdfJweHO8wIZ19VMhjdy99oBOAQ3wUGyxdVx/F1p1bP30skQCDfGBvJLr7QKrRTx8jah9YD+byPtD3XOyDfXzBPuzp2MeB1/HHamIAE7EPmC65j9l0oQ8oiIbDiOwDpkvtY2J7QWAcZ2ofWHfyt/uo19ak7MOZLqmPgbbnyD6c6eCIKLWPSjkyZB8uvMcHQ3zsXAHKlPfzq/ZRwi84iH2MneVy+3DmB6fSEPtwv1dO6yPH8ShPH0a5xD6Q5wD24YrP+EKW1gdy/NiHIzd4X6X2gQyDpb2fX68PbU4AofUxR2rB7cMa3dTQQetjhvUi2IctOOPjdvYBC/55H1I3WsdP+uD7R/N3vW9Nr+X2cSo4qY+5MtFabm0LebCP74JT+qiH5uDcZPpmW52BfYCCU/rwph8+XtkHTMc+bPxmH577sbCPUy3I+7tg3juJDzjTmsRHa7WdnHyIW5AbhQ/4LEXhQ0hiH/olax8KDEtS+JCfp5U/RhQ+4DAnyfyPZ3uXNhMfQg+P80kqCh9CfR4nvFRLCh+iXB3zo5kfpfbfAWJcyofQ+nvOGlJbbx9ClsIjQ38ffgF2mD8IAnSjjHdYP+nDiw4+/Ojgww/q9UvYRxzsI4qkPggCTOgDGx/0xfCB7aPtC/RRU/vA5gV6ktIHwXJLhg9s3wJfjPWp47MzfWAzhT1J6WMff/4ZPrB5BL4YPj4JGgj0gU1c9CSlD4Lz2fAxw+Zte2L4wDa69Y4Q+Kjyvl7V8TcQwwdF/8XwMSL2QbGgZUIfxSY6PNMHNtDkibm/wY7gigp9YF8O+5HUxyA6PNMHwfln+iAQbPiIPwOT+ihWsUIaPtzrIfvS2P9jGC3E9BHdhU7ro3iIrG/Dh3u9cF+a+7E4Z6h4R2h+pfMWWeHEPoqHuBbS9OFcT9+Xpo9qF3vGNL6a+nBNCfMjtY9DnzImvpaPYvkcdQDb+xUNowJs+SiW9hmsniT3USx3OvyUafv4tx9L+BG07B91FxNg20dRTUS44vQ+iuJ+uJdh++6U8+fW4Ts8F35s1vr8f62823Z5GQ33AvsTOq7b/sqzqF9umvspecdn7KGC7Vf0Dn28I+laXwUXMTtdWTL7UhKa38A+alphAdbYY4rNR0yFZ965wPC9c+wF2PJrDh9MQnzHz5mfgX3kBfvIC/aRF+wjL7h/9UPcebHEHpPZBx2V50N01+dzJgxspXJf2Acd7CMv2EdesI+8YB95QeJjcL4cxg8KH6J/wwsXg8LH+tKV6BEEPuB2vUwkBD60bTyeCSPeh+TLFSHxPoJm+TMOon2o9udhTDjxPhyfIzFBRPqQOmSNGMZJnA+94EdzWmJ8qPnT+QKYTlRShaFLNeFbBz3DQF6u7cbxFwNU0De1NqI4AAAAAElFTkSuQmCC;" vertex="1" parent="1">
          <mxGeometry x="-1220" y="333" width="202.67" height="64" as="geometry" />
        </mxCell>
        <mxCell id="h7jb9lpsqs1myCnT-5GU-10" style="edgeStyle=orthogonalEdgeStyle;rounded=0;orthogonalLoop=1;jettySize=auto;html=1;entryX=0.5;entryY=0;entryDx=0;entryDy=0;fontColor=#FFFFFF;strokeColor=#FFFFFF;strokeWidth=3;" edge="1" parent="1" source="h7jb9lpsqs1myCnT-5GU-5" target="h7jb9lpsqs1myCnT-5GU-9">
          <mxGeometry relative="1" as="geometry" />
        </mxCell>
        <mxCell id="h7jb9lpsqs1myCnT-5GU-5" value="" style="shape=image;verticalLabelPosition=bottom;labelBackgroundColor=default;verticalAlign=top;aspect=fixed;imageAspect=0;image=data:image/png,iVBORw0KGgoAAAANSUhEUgAAAW4AAACKCAMAAAC93lCdAAAAzFBMVEX/////eAD/dgD/dAD/8eH/9vD/hTD/plr/063/hyv/4M3/ggL/ghL/cwD/oEf/cQD/iiD/kCP/w43/+/n/nEP/fAD/x6j/8eb/9e7/59X/gwD/8uj/+/X/4Mj/tXH/mlP/q2L/n03/uon/27v/lTz/yqT/kzP/t3v/w5X/2L7/n1T/qGn/tH7/oV//uIf/5Mz/zaL/rnL/1q7/xZr/qWD/0bD/jjD/gB3/mEn/07j/6tz/giP/pWX/jDj/lEr/lS//xJ7/qFT/s2z/x5PbnaXqAAALoklEQVR4nO2df1+iShTGYUbXSgmSuIhCqWhKamqllmVt9f7f0wXbWoszMAMDsrvz7Z+7nwvy8DCc+XVmkKS/iWOj9p2LfWv6iznG6DvavjXliK7bdtnH3P61gv8s27ae2fWOsfyNxHZ/Km81gr9G1tLTYjdMp19vH580m9VPmtpJp91dWK2GncU1+dhtNxrWwld+of1W3mxqz6e3g5mTkfJ0NNZOt6NhVVW+v94YK6oq1yo36xb/osLBbts8GlY0I1COvyv37wc1K0OnVSjH9bU3WMoqRt/v/bcJCKvG7cLkfeXUdreOuj058DlKuXx6sy6M4fp60QkUE73+EK7gjsfZ8JR2m96oqlAox8qybxYjjK/7vtmxin/JNkZHXItJKrtL96MqpXIZy5P7AhTw0v0lRcHeMXzZb3C8fAq77fuRrDAoVw6H3GMhI7Y3MkI3HA1edTmqTm739Kqq0pu9VW6MLH7KE1AaLhlK9ocfxpif30ntthd3DCX746fRZJ9+T+c1ZsmB6lW3xUtCQrtLVzXGl/KX349rXsqZ8S7lJG4Hfvd51fLJ7LZGRkLl8phnzcOC10voth8Fe7xeykR2O5PEylFtsZ/2oNMjdw3iVY85hZMkdk/PUyjHd9wCIQu+24klB4XE4yMjgd1W8rK99ZtbIGTASuW2LCucije73aVRirLtgy/yj97ryyQV+64p1SMuQpjttq9SlW0fldOLSU/jSkkn2Rc95NIlZra7n6jtuovSzrszf5+wHbUDrnDp67DaPe2lfC2DF7PMQzk962eS5tBM1hZYNJe2IKPdrblKdJFWuay6PJRTYw8Jmn11q8NOe1Df5bW3AmWjex5aGO0mvZa+Ql95ZfBF+uvdAxjn1SEP5dSsm3B5lR8uBw4Q19xL6CbVPo8QyGZ3aQTWOb7Xm8E1IMcarQDluJJnU9DuQoXbN3vkEgxszQG/VS7dYSa79QVUWhF6OJ+RtAyBmhU186wr11VIs3x3QBZROg+fgis8Wt5MdoPNVyT3ot6zW+AMI8dxb70OFG5kPE6jTuqGizfu8BDNYre+ACoRJF86URdwwy8EQjkOw7ZOIM2jUuRJB4dhu3t5290CI/ddZDmRSkD0ViMfEF9cQDO6i3ne7o+w3Rd5221BcXgT00e0tf3afRaOJWgV1xKFSnfedtv9cEFBxlXMBVoPe7W7AVSUqBN31jD8SuYeTFqVcEWJnuLCsLPfYOIChVu+jjnJfgydlH9VuQ6HBWSM4y4wCCuXcX5VJRRLtJhmv34DvJG5NwQ9oHD/iIuCbjgK5toQBIZLcD36lHUX0Cwrg5y7OX2gATuJ/vVWfwP1MTIYo2pZU9c9CAP0D/EZcNwnN/NzqCcsqz9p+mZ6yXIgGR88hwNEDT5yBvVxOlG/fTOeAG9lEAaZOvF28Kf7fz769h9f/3/DGY4fz582m81hGOhpr4DjPlnJ8MAajhulN93heDR5egJlfGAAv0w6FJARrdyAlasxb/NXJuffedqJYKXZ/OlHcCEC0PWJB5MHMWMGYHW3PglkxPw0mxxm5QTpbA2TauhXfz8ud7RZyeQLcQQ/kusb92zzkJOMBKAqU6UT7lt92D3tkN58/pBD9/VWRSGd3qJUmAYESXbrA0KsygJkEKaGp50cVSRCXbC4DdiNArsPNMaE0HSa4cSH9S1iz/HMF/zM1oCFS/cgT7P9+Ae1S/RZLVcViVAZ03oAuw+kF+KUaRYg3AV6Cua84GEkAHcYO8OA3bPXXN2W0SXQCpyeF79o+50o1uEpIHZrObu9BEKJc5eviESg2g3rPCU0yJ6v5kOgbv8z3Da6zAM9qbO2UkpGh8BUrDX5A9zGqwSJpPu1G6HeIuz2epQ6lyxz/HKSZBHXPu1GuDYH6ppyt/BtEoSNySLJwOv+7PbNfuwDBURfQKkrRQJh+e4m2RzOfuxGSEHafAHmR5jp01IzBCGs1CY/pwkz1ejtph6TjB7GDLZ8QNXl/KcHJ6PoN5Fusw+RMhwbrdyXriqGNvrpJZ+dpLA7eKCqgoxqGPD4GnDgL2ra8uJuPux7DnEJv6kR85d9GViGZHwATS/IhEOh+45Url2cPl4NPaeUJicwzu5gKwztctxdeN5RGCiHquYAB35iWWszatMbfUhYCoEU42I0XEAqPgHCEFqCcpwxkGby0I1RXkq9d0y03X6I7Q08y2wQauE2NDOdKu9Ch5Pzg90h7qMflARNDcuoBx/qATkERjeNciqi7EZqdeSZUT2nGZSQeZtGjwO7Ld86jfjaicHuNRBN0FN0biMHIuzG8ugopm1pQqJjk9aiADJXggA1o2rkQnYTdrZrAVPxORRvst146caWJ/0WTMlMkaIDrYWgfoAMpRtc44I2WS+0IdqN4/JYtwBZa/6bP08sx4IeH3VtwGC3dAS1TdB5dMJxakh2ow5VHCvDixfaSXOigOx8JA9oz2ax2wTX3oJj7xwh2E0bEPQBGGtRTFo6kTbQPjuhPpshdks6kHEsB6m4mcYT2G50SHtREx4ex7V6okxFoCGvzqjPZindknUBNoKw8ZrhpjCg3cigvsUyUB63P4GXsxbzJp56OKAig/50JrttwmiB3/wdWOWMVu/Bdvfoe09HpNkfrFY7XW/9a/9UOszwWAY+pb8ZJrslizQWhlTjub4IlDNIpwK0Oz4jfofynDikFIzpyNrzaYWa0/BvsaQ8ssTuIHoT5wkRVlXc1E4ZpNPQhu1e0t+h3z9bRg3hbfdOpSf8AyxrztlKt7R+jBrBQIzSKUCg3XEZ8V+x++l3fIhAZWiZMdoteZElhTuoBs/Esw0dtDJNwMnSbhtadZ0dsN2YvqH7jgWsuuYGi91A6I+0WzLneaZ5wHYrbUa7Jfcwu5dSZegwAS3paLuzLSkhLaDd6hur3eX+j8z8ZqkqodmOaLslD1relBEEu9k74HY/s/LN8PBtaDg4ZlGtfr/JrboE7UY4wSB7dn7j2EXIn1jQ+E075iTdW+aV1gLbzdBr3vHbLyWZqEYGdX/6FRpPiB1O1K3LnJL2YbubSeyWdOcym1Ki0I7flKBYQtNBbs3Zt5NOAmw3azvwg0aXdbN0OpFLygEcaN6Nrg9RXjTzyAEF7WZudn9iO70scuAR3eTQFNxaim48Qjdf1OxrTM52+7KzWEKFDJpBBRPskOMzSuW2e5L5cgnudvuy6zJ32agW77fdgZdQ049t2m8nUd/64XIf3O0ODNdUhW+tieRKTAi2LuBZqSqLcn32HPl1pdS3kYXdPtOzpRyRJJlAqCK3IzpfpTMER17lhVG5Nbjgq/zLXWRkt8+0XlmuttdghSAVo5PX2dS09W+U17MXg9CQS9Rjs2avy9UqifJYsrM7oHRQP6vc9TaHPxgAtzt5f26KquLg23onO2hVlfz+K/Q90i/oJfft7LbT27AIp2CZqd3v2HaJhUHkZuDUb8P7wSl35WJTTkEOdjMC7nKaDIW2FZgfhbPbBjKvk4Fr+/4qWZjC2R0z1UwPQ7JMfhTP7oh8BCa30bgYn5T8QvHslhrkzBUG8ONeviAUQwHtlqzz9H4r5/v9vCGBItqtO6n9Vp5y3HeYgSLaLUm+32niN8ITp4CBWyqq3fr0MUV9ieQ9fyiVTDHt9puDyRNusDze32c7Yyiq3VLjppZoBhEphzdFbJO8U1i7JfvoluXb1p9FezQtwCfFSRTXbt/waRsxTQ0hrPRIn+spBkW2O5iyHTRV2iKOVNyLXwq6X4ptd4D72lRVBUfPrwTLDZqDorZHflN8u6VgX+vX5yYKTAdRVFx9rme8AJUPf4TdAXbJvX4bvL4cn36lUzl7uy5y7fiFP8buvwNhd64Iu3NF2J0ry1TLdAWMhD/9pbb3rekv5kD5mqqBMMr309D/FvZY2/0ejWws8/0y9L+G7S7+22FR9FEHgUAgEAgEAoFAIBAIBAKBQCAQCAQCgUAgEAgEAoFAIBAIBALBv83/xVYfie+Ub7QAAAAASUVORK5CYII=;" vertex="1" parent="1">
          <mxGeometry x="-1220" y="449" width="159.13" height="60" as="geometry" />
        </mxCell>
        <mxCell id="h7jb9lpsqs1myCnT-5GU-11" style="edgeStyle=orthogonalEdgeStyle;rounded=0;orthogonalLoop=1;jettySize=auto;html=1;entryX=0;entryY=0.5;entryDx=0;entryDy=0;fontColor=#FFFFFF;strokeColor=#FFFFFF;strokeWidth=3;" edge="1" parent="1" source="h7jb9lpsqs1myCnT-5GU-7" target="h7jb9lpsqs1myCnT-5GU-9">
          <mxGeometry relative="1" as="geometry" />
        </mxCell>
        <mxCell id="h7jb9lpsqs1myCnT-5GU-7" value="" style="shape=image;verticalLabelPosition=bottom;labelBackgroundColor=default;verticalAlign=top;aspect=fixed;imageAspect=0;image=data:image/png,iVBORw0KGgoAAAANSUhEUgAAAVgAAABmCAYAAACOa4kpAAAAAXNSR0IArs4c6QAAAARnQU1BAACxjwv8YQUAAAAJcEhZcwAADsQAAA7EAZUrDhsAAGz7SURBVHhe7b13gBVV8sf7/n7vt4qEyXkGEBNGwgAzxCGDKIhhdYU155x2zdk1KyuugTWCillRMaBiFkQUAVEQkIzkNAyhXn3q9Lnd986dRNrVvXWnpvv27T6hTp3vqVMn9P8jKUpRilKUot1CKYBNUYpSlKLdRCmATVGKUpSi3US7H2C318F1UbJnopyiFKUoRf+ltAcs2G3VuSEAGb03GacoRSlK0X8p7XqAjQM/AHVzhLcEnAC4EQ4/ARFO9Ja4sJX999j1FKUoRSn676A9CLAeXGsH2JADIpzo5Wj4yThFKUpRiv5L6D/jg41DzFo42bOJnKKdIi9tT4nfU5SiFO047QEfrFIyYNwVnKKdphTApihFu4/2DMDWQdu1RnuGtm0VqaraKtu2bZOtW9zR8RbZvl1/VAjg6M9TtOOE9KISTPyeohSlaMdpNwIs1dSZmQqLUrltu2zWr5VgohK/bNikv+ltGytFVq3ZLstWVMnS3yrtO7/z2xY9gX3Fx4NbtXWrVFZtko2bN+o1/0uKdoQSpZeSZopStOtotwGsr6gbq4BEB4zLVm6Td977Tu6653kZesKV0qH8L7LvAf2lpGUvySnqKul5ZbJ3szbSLLuDtGo9ULp0P1WGn3ar3HbHc/L+hBkyb0GlgbQHAIDbx+P5f45oiaLcQEqU2/+sHFOUot1AOw2wvlsfJaukWtkxVles3S6jX3pPBp9wrhTt11nScjtIVn53ycrrJek5vSQzt7dk5PeJcdOsHnbMLuwnmQV9pVlmD2mW1U1Bt5OkZbWTfkedKSMeHivzF6+TTRoBcXj+nwOGWsHVTXZDJlEZ1ZeTh5miFKWoIbTjAOsroNVGtVQ3bpTN2m2H6NKvWS9y3U1PSnZBmWQZd5aMArVS87uppdpDuadxRr4CbUGU+wTcS5rlu3vSciuUu0t6blfJzOsi+cXdJbewXP5yyjXyzbQFsr5K498aJCRC26r+wAjh5R9zYNvVgIBVZ98jlbX6da2efPfTEnn+9U/krhEvyAWX3yunnH2rnHDiVTL89BvlvEvul8uvfkRuv+tFGTVqvMyds0y2a7fDgt6+PcYpSlGK6k+7BGA3V6ql5IF2s8jLr30qBx4ySC3VihhnFDgGNKMcD67VARZumucAFm6W1cXCa5rZ2azanOKOcsb518riVRtlXdVW2bJtm2zezLzbPzh5+UcA1oPgVv2yRf8jhWWbtsh9o56XTn2Ol0Y5h0hm8zJpVlCuMu1q5ZGd110yc7pL4+xusk+WNmDZvaS4qKeMfX48saQANkUp2gnaaRcBI/vQVq2IDFqdePJlZl02yy6X7KJeMWDdWYBtqkBgVqxav42zsIYrnDVc0Elym3eSw0sHyEefTbNBtMqqzQqyLl1/WIoBbIQDQgbkfsxr70lJ686SvW8naZx3hKQXlUnTfJWdAmhmkcpYewc0WMZBWTTN6C7ZOZ3llRc/kC3acKYANkUp2nHaeR/sdqxGkfkL10jv/sOlcdoRklPkLM6m2V0cEJpLwLEHTc/x4Fo7wMKN0sskt6SvgXdmYU89ArRq1RaUSYEC7aNPvOgARtP0h6YkwEqW6UgwEHjR3+6QvH0VUAtKJbNEQbW4izTJ7SJ7ZZRJRmFfBdgB5u9OV+sV9rLOzu8redpwjXlmnIWZAtgUpWjHqcEA67vfVVVVNjd185atsvS39dKj15+1297WBrDwqzprFUB1vCMAC4f3unC8JZxurL/n9XbhKMhizWblt5cXX/3EgGbr/xAeAK6btigI6vHO+5/RhqeT5JRoGRSodVrQLSY/5/vuLem5fe2YqWUCeznnFPQzC/aFMe+4QFOUohTtMO2wBcsCAKhS+6IDjz5NK6laSnnOYnUDVyHA+u49HAKm4xBYPTcUYPs65ncFktxifL4d5MvJc6LG3R+WcNGAg94hMv7D77Tn0EZl1F0aZ3aNyc0x4OpZQVaPKYBNUYp2HzUYYLFct251Vix+15tv+7ekZ7mpV/Hgp916BTzjvK6xLn4ImI5DYK0fwPqw4WaFxNFTmub3VnZAm1vSX5pkdpADD+kvC5ZEB7v+iGixTRu4dXrcbgNaqzeJdOx2kjTL6SJpOb0kq3iAyYwyMCtW2fzWEc7M02MEYJke5wD23f+QyIg0GnHi9xSlCNqzeuFjC9lPgqydGgywuAUgLKYfflwi+cXaNc/prl3SPlqxQwBsVqSAWkDl7ilNGPU3P2po1boKjsXbVTIKOxszlStLvzuuPq0rBFsFVQu7hzQuVAZk8/o7zu1lg2DpuZ3lsr+NsHR6oex+8jHtqRi3yYbNa/T/dtmo5vqzL30sOSXa0BX2liY5PWWvdG3YkI3JKhFgtdyU6XXw3QMwPu3M3I4y5vnfM8D6Zxr6XIp+P7RnyzeqUY53EcBaEPS1I/1tnAPrFbmGnHixA0MFUO9jjVqXzQp7Geg1yR2goNfbBlewrgCBLr2Hy613PiEvvfG5TPxipnw/Y4l89fVs+fDjafLUM2/JjTf9UzqUD7bufnpWuWQX9Nbu/6CYS8ADB+BqAGtWrLKeGwCrtdwkr5P8MHeVWXc++bFZTdvddKaGkxNvvJj9h+56lP19u5dsYEt5yF8utcEsy3surpkKlU1vYw+wDAzSy2iaWWbT3Bqlt9VyY+CrTNLyS6Vx5uGS16KTjH7pA6nSMHd96kPZxXMi1fV7TcS9NKuOw7KpHiL8v06hfOr3qS7BhvCuoF0VZi3hKCwk/hpy/Kcuqh/A+tA14srKSq7I59/Ok8a57bWydjcfHuAadQ/AgF3jnL6yd2YfaZytlmxuN+nQfZiM//hHAwS/N8FmDZuVX5A/evru+8VyxVUPSZZaWjmFfWxwpmluHwMPs4w9wCbjwi5y8XX3+6Q76zvIy64C2OrsK3f02u6lzYqEqzaK5LdScM0vU5mXx/zdjQv6BgCrPQcF2KbZ3cw3m6b3DDv9Zvl00kJZtFJkrSb519+2ydLVIt/PWiLL126TShXPrk19VD5R3lWx+PBNuwLe/fL//REycZzsUydRbTzb/fXlHaVkYXneUao9nPhfa/7URfW3YDnRI8AEIN581xNmLfkuvPe/enYg28us1r0yOisYd5LBJ15uFXmjPr9Rj4QTJb7i14U2cJOSLblVnvDxTGl1UD/z9bKyy7sckgKrZwXYotbdZQ11zhPBKjuAdQN1O03IJxkHFGRpl1I0TM5/+Gm5pBe2Vzl3ULmwr4Nzq4QWrANYZEf5nHDKdbJa20pEgxRgkgwkbdIACZNrHL0qwQ2lUBGJCY6CH8y1HQ/fPZUYPisKYc6V/C2JHFAtP+12ShZ3lGunuu+ufgf/o/J3V+MoUY8TORpgXeyfCchf9hS91TEfeh6bjePT6tmXdTSknSMXbzQVLg0s14myS1fYQw2fcJxIDXMRBIICGHv0/6taS50NYBPBFfZWbGZxL8ks6S7tuhwnC9U6Qu3XsvJLj+yw5RMGiMJ+/irnTAHztFlPv5w8V/KLy81vaCCb26s6qMZxN8nS7u6n3/xkcWzapLGD2MrM390TAOvzF5K/UhPXjxLvfvO9SZJRVGoWLECaFGDze9j84ezi7vLhV3NNRSFcAZUamgdUFtl68vEkxlc/ciqIMobgl1hRXKix8JPIsGbyT9UWvpK/LZE1/GSX4T1FyeKOcnVKvMMLyn+Pp+idjvkflRXfE8gHmYzjA6ub/XMB+cueorc6dvrigMw3lL6xjJYr7J/aefJxh2f1BdjoU9WpfgALBYLC8luzYZstUaUr6ipyyIlAi88vr2WFvPbuJNHHNHmIhqWcroteExMPILht+ybZsn2zAS8ge+s/HpeilgoWOd0ks6hfAqAmcjdpVthJrr/jUZcFDdMBLDFUaTwN9zK6dDneEfLT27APKzev12Pt8fNrsjv8ddLBcczLE8yCZRlsFGDxS0cBNs1Ww5XJStVZ1BYJkCIPronEirgwzTVTVC6OVcbKVdtQSJfaqi3OvcS5Hyz15HsuHGHvK6+Z+BEOFNPC1LQGM1ygaLoJqyphbwoa8cpgtzcIl1VNcmgokT9m3CSST7VnaLMmbtPWKqlUPXc5cUudWfa9bv0W8dmovniGuz3XTgQRn7fos/ULY4cIIyooa47kyefdM7RBKzclUal101hlge5ECYOIp6uH4ENpOJEe0ADasCk+PgiZURYQ5ZIYf/hJnooGAyz0/fS5CrBl2hV1S1drA9i90zpJZn65+fYgB6yAGx/Ok3+sgup929W2Msbi1MQsXV4lxc07m6ugWbafUVAT0y0ulzMvvNnyQcUPAbZSY6HCJxNLzWRhRGh9ZWjvbVIN8fvXwhQLv5l17sooRh6AEsNLJFKXmEK++8rC88glOcC6WRzeR+0BNqe4sw1SArBOZV1rnBhT/Lf6kQNXB7B8IMJB4nbuhaKstwSZUHlpejy4Ii8/EFkz8aDbeD0p6aOExV3JQuEpemLRp7nX6ac7rw8Boj6dtafXka+OfIiHXhzAwpMcIX9urP8CfDLaqt9dw8M/7vRcM/lwOQL5dTHpqo2tCnnme8Ax0uvaXkgl290F5Bsbb1z5Z0gT4zDcyXliGm2MRk+4F71wz/mno7xzROMFs/IfplGDmefvx4mo6y4299+d+Y+7kkj1ANjgUc2cL8f3PvhaQbOTVdgouMKJAJueUyEHHjxY1mnjgMAMPPXMKiHBWgXxJjdthbMs3T36GzVSS5L7qTDQCSdcLhmZ5ZKmAOunb8UDq2dNT1E3qRhwignJKrdpBWnYqPFs5EKYtyB/DSHavFWK0/OWbZZps3+TT7+ZHfLkX+Tb75fLsuWad72xcoNGQRqUnEVV5aUb40RKdp3vBAN7udQPYJFXDyner4ele5PJOtoFQ71rFwJWCGzlR9x6P+zT6dIWXt+4RXsfPAghev3CLl2rV2yXn2Yul08+nCk/TF0ua1a5Wwxg9UbXuKIxhFidfFyQB2TI5KvfN6wV+WXOGvlO45g0bYl8MmmuTPj8J/n6+8Uy/Zd1skQb/PV6LzFs0odwkXAORwEgGo8R4omyEvLwb97wcqmJfHgk08dHY7dWxb9Ov8yYs1SmTJ8nEyfNkPcmTpXvpi6R5Yv1GYqHhyJEPHFpS0KkZNWGTfL+xM9VBj/IB59Pk/e+mC4ffDarFv45geN/+/BTeFY8fzbT+JOvZsvUH5bIr4srZbXqO2UDrdugX5RIrwdZsuPl8OvSlZa+D7+aLh9+qWF98bN8/Pkc+fjT2TLhwxnyw4ylelcov/DMfdtZIhQ6M198Nl2++ORn+fyTucYffjRL3v/wB5vhtHDx2kiMaLV3E9ScknoCrFKgUIDU2+O/Uuuxg00FAuB8ZYbjAJYVXQqwRS16x1opb51asHpwyuiSycfZPVGAJVK9L2AswXvvHiP5eZ0lv0jDD+Zw4g5IZJaJZhaVS+sj+sgGBUEfBuE6yxiARVBc1AMcIb1q7NLteEPldvlaFeGee0fKsFMvlNKux0nBAT2kcV5bSS/qGMcZcE4HyWQD8VYV0rHjEPnLyZfI1dfeKx9/MlXWooCRsF18PlZH0W8c/b0opZ3rRVre0S9PtDj90lhfHtEGxwFsT9n3oH6WVWfBhnHAibRy9XpZtnK9LFq6RhYsWCXz5q+QX39dabxg4Qrl5bJw0QrlVbJo8cogjVp5NAIky2AmxFsqfvzpN7niqrulvPNQyc45XPLzSyWXGQ9pbaSwsKP9znOxRhhOkiifVtIOIccJH02Vm255SE4edql07HS0FBV3UP1Q+ReWmZuoaUFHaZLXwWa+wJynFbST0i4D5NiTTpc77/uXvP3+57J8dZXJ1vdAfFwxQnAwV/WIfGbMmivffDdLZv70q3z3wy8ybcY8vTZfZv08nxvdvco+LF9+YCYr7y6/doS063yMFLYqV31uow1lW8ksbm9uuDxtMLMyO8h++/WS3r2Hy003PyzvvDtZ1qO61SiWuBgF4pcHHv235O17mOb5cJVFqTRReeCvh9PyHPvvjK3Ec/S3GjiQbzPlpirfZnntNK420rasn5xy5sW2R8gvC1abPpAmz5Q32DBZ5ZfdvLXq8BFaXhqO5tvmaeeWmQz2P7CXsH+TLxP+O+NsZ8nJCwv12TFvSa7W49zcTpKT20VychRD0kolJ6+T6uuh8u13v8TK0OfAoZa75q7HU4NdBHRR3nrnC+uiN8lx+wBEOVyR1SsGsLla6ZetdMKBDOCiqdFwo4l0iSYD+o14uRgccbG99OLH0qKkTMMtleySjpLZPDlnNy+V9OyD5KCDyvThIIwYESgq7q23IC7OIuXGL/AXU+fJOZfeKllFbSS7sJ1ka9xsMJMeKEIyZjAuK7ebMefG+eUB4zrpJKeeeat8/tV82zzcva1hi1Rt2xDnSySlKOLcX1fIwKHnyYChl8igIZfJ0YMvk4FHXygDj7lEDml/rFZMVsy5VXNpwdJkprI1yevlBgSVKZM0vWfAkIs0rAtk0LEXxjHXbrn9Me2WOZB8ffzn0iz3EMksaG+7pGXleVYlzGsveQoG+Vpps7PbyF13PxUHSogToJo0dZUcdexlCu5lsfyzEIT9fdnJi2l+2TkdZep3i1yl04+vPNtBIiX2wOCalZr+g7+ZulTOOPd2abFfX3sjRlqOytTLWZkyoLFxzDnT2ELgAFRYVEHcnvc7oK9ccOF98v209bb1JpXfE++JC3WIH7bL1BlzFUxam3wyCxS0c7VB1XJNy20nJwy/xO7ctmWTWrdhea7RBuGBka/JIW2HOllEdCZNDYcwfW4Q2S1ndjrUJLO9FLSokIPbDJarrvmXzJmnPYQgjZVbNkjlZjXdfU3DOAkIMb767qdqDHSTxkVd5E8ab+Ni9MOtsLS509RpYzcFMuTob7VzI01vyF2UNR5lNhpiDvxxf7laPlXrlHKEtm5SW1YLnfT1HXqqgev/l16qZdXHZiBlay80V8uvqEVPGfvy5z5nRj6MnSXr3eqx/9FnWJ1m6qk3EAuK+ktaenup6H2ibNJEcp+L1wFsXanYIR/sx598b5PUMwr6q3LFg2wUYGHmXaIYjz35liXHDSQkdG0iYTviV58BJf+7cpVaQqtXbpXvvpsvX0+eI99OXyTfzEjO385YIDNmLJTZPy90wcRF6uOIAGyE/K9TZi2VQSdeJGz3l9WiXAvdrTDzheAs+JAzcx3buVaMLLXyYaxJXCpR5lph84GSltlRragL5Ke5SyxOa2ACxxv/USrAbs6vqySjWC2+ot6261V2bh9b5JFZGISn6eEYAqybaeEAto8t0GAPAq7zHMprswrYmYzZHrCGdfSxF5nfi3hfHf+1WXxW0QvYv8Cx5VMrPaCbqxZMpurDnXc/ZxWFosJSWatW1o03P6sWiII6g2uaPl+ZHVdI42zkoGHldJYp37n84yhCR4z0QqWGYy/B1K8bNYLJ382RgYPP1ufKNA89gz0X1ErX8EJdrC5vOBo/aWIv3OzseLZrGtawU2/Sru5G51uPqoclzaXvm5kLVDfaOgDX8OnVET9zvo8f9ne7h7I0/56ev/LGp9K24zHaSHeTgpIBlnfYpzs2/TDgxPQT7j7ZnW1sg4aSzecvvuxu6746Mm2RLZtVr3GtaaQbFUHQcMrmxbcmS3pLzf++vaSRlvc+qge+8a2L0aPaeB8FpEaal700H4ncKLev6lFvyS3qozrfXc4+/wZZvlwL1im8HZ588V1pVtTZ0rR3lup10QAbzGZ3Pgy6Y46/zKS+vjJsrHaWkBbl++20hTZDCSOFBVIwS/bR8zy9NuqpNxIAlv9B4muhHQLYH39aYi0vSzJDhXacCLBu9VY3KW7VW8ZPmG6FTJixClSNSDQC9OwzEWYEC9ODpf+lJqYsEkePw18JOxo+7LKJf+62+55Q0NHupQIIvlzf9aZl86+48YATAo9jD0JZOR5wXQXxIOg5TSs5LXvT7HZStG+5jHv7S7XWNCWaiPWKJqTIqox+B2CtK6YKyOt2MrJ6Spo2YFS0aNgePGoDWMqE50hXFPwB0r5HnuVcDxqvB1jyTnmHeXUNiIF0vjY4aj3ece8zVr7rNfHsizD0hMttgQhLqffJVEuGfAbg5uJTIFL5IE8a4W+nLQ1KxIEpFJ0JwIDDjbeNlLziUs1DB7P48pr3k/x9j7Sw2DQ8qovJOApeyIEeVmZ2yGkZnaWguK81QOxp0ap1hUyY+F2QgupEQ54MYJEvAFupGSEHK1eJnHfhXVJQqJZRtspELXhAw2TJzmYBp+X0ibBWdLO+8as7C5z55MzeyWnZR5qqzAtbqvxy2knzfbvKCy9OcIkyDfZ67Yg0UJsY1v2XdoWblXST/9N0eDnUh6OyS8boZWPNfyPVi2SMbFhSn5GljYvKobz8RFm6aLPpGmlbo8pzePkJasj0lYySfvInNtVHJ/VZ27woo41Mn7XcekW7ikxS+u/aG0ZqPB0VYFU3YwDrlt3TINDr4F4kGko1PKuJGgyw+ExXr9sihfvSkpaZAKIKXA1gi7T10srVKKOjmt+d5fpbHpMFS7EaNWNJ0+eqWDzAemVxD/hBhPpuqu26l+4ZRz6saAJCq3qNNqynn3+9ZJeUyf+llUqWFjZ54eiBNSNPz5WjlQPOzFEOABY2S68WgPWWI1Ykq6uwBl959StLh09hFGCdH1GBmRkUmQqmWkkA6GjY9QFY/5y7L7TqmmaXy5FDzrOGibiZXme+tSQAS55YwuwWf3TQBukZK6lV+uyQEy81gLLNZGyvCjbuCfPtOB5gpyjAuhJ3AAtv3gokOD/r8FOvlPTstionbfSUqQxYdJRNdvP+9kaGqC7GWNPre1pRQEAOiQCL5ZpD5dK85TYnnx2lxf5dZdz4zywdifTNjCU1Auyxw66z/MxbXCXl3YdrT6VM9mlSJkXaa7F3zGl5m36gMwGnZ2ujrcAKW/q0EcGH7EE2o0jD17KgrLBkkQOyoxudV9BJLrnsZgMsr++VlTR5amSoAnGFb/DF14w0oDY3hLlr6sfcXxs3ySuP48aatsaqA5QTjN411R4HssZ11qPncFmxxqBFVquwbr33BWtEMoudLoMfPJNTrNakGnV33qM6pvlDN3YFrVcoWqd88BGUiTba1KEYwKqOaJ4uufJe63k7F1407rpTsQMWrJte0ueo02SvzHZW0FFl9sBKAm2alJr8jXB8m29QK4AqVmGLrnLG2dfIBx9NtpE7RtixMkPA9NmIzwBKEw+UAfm0JXIDidjXaX0+7ZxrJLdEFRqLy7pHai0EHANTKqyCXONMVfQMVRw2r+aagl5uUT9rqfdOw1eplV+7sX6TcAotWojs2eBk5oCbLhSOffyygKqBK2lTUcydv0Z4KwHPca8Dcte6uyNK6UAkLQKwPg9RgI0+B3vQa5xVpt3vcw1gEeGb70+JAayF7cMLACq3eKA9n13cVW5/4AWzkK66eaQpJtZlYvjxXDfAQvjIThx2kQK5VgAqedAgOL+fs5xIT6IFy7UY4BFXUMlhwIlwnH8zZCxX2A/U7pOJP7WDgey0mYutLOhy+wbo2+nLVB4hwIbxKsAOv1nmLBLpVHGqprurWt5qodLjwG2Wo72HrHJzn2DRNU0vN3B3LqXQb49RwkBtZhEbI7nG0FwikUYD+dKQ0VuggR7+1ytlQzAItlXNM1wUfKAq03JmFoj0G3SutCsdIu06HF1vblMHH9xugBxaeqRkFrDHRalzhageWJkpUPoN3vlODyq3uLucce6tskmVjZTNXbJVf2unvRJteAqdTuNmTMt2eTz08KNlkyoZHZuae8H1I69fb777rb0oIE3rO7roMYwGnB7s11MX2H2kL6qX0bOaqGEAq99w1m/YXCU33fWoZDWnixFvNSQCbNNCbckKyrQSuMEXfEc5RZrw3I7akneS/Vt3ldPOuFzefOsTWbnGzTPDZKdS4W8z0u+4BKr7UOvDiKW6aIw0XNwNjF0QJ7/efs8TCqxHSLNclBpQ7adWwgB3BGBVqeMsOCwztVZge8OCgikK5CxEZ705PykKg3yqA6wdbYtGtyMZlk2PPqdZqqnQlnI9mTs/9MHyxt2sPAVlDQtFJC0NAVj/HEfYpwsXwVFDL4zNPfQA6xrISHicKzdK76rWhVYgBdRb7nlBXn9vhoEB8dMAeTlVB1c4OcCyZsbnm8Gsa268xwYWARvCNQALgDUKsJ4BVcAWEMXia5TVwRg3T3YL1VMFQ1YX2s5hBk41AyxpBwgYROt/9FluMFLTZH5ZTd83BrDOhUJ+cImZX1nrQO+jrpLO/S6VP6WpFafpQSf2asoAqf6u4JqvgJlf2Fnath0s559/pzz7zET5+usl8iU8aZF8MXmRvDJustw38mU5+viLNb3a6KteWpq0DEOAdTIm/emZXaTFvr3lzyddZK6meKqSDVvWmmwh7Bkabmbm1Ie5tzbGwlur1iC8fPV2ef6lj+ToIRdIdn5ncyNZ+gJwtd6SyhUQY6CYqV4ahNX7YadfZfPsGevgXvJqAKvPMrr/ymuTrQx2FcCefOr11jhRd83tZ3VRGz6NnxWrGzRNGA4sgPDPeDysixoIsKgUFWCLzP9to+S0oluAHy8JwGoibQ6mVuJ9VJGsEgA+QSVuRjdATX4/mm7+D23xKvqfZtNW3ps4S1ay0EnJT/6NJ1JWF/MQ7gjY2UbuekhVqjne/P9yyjybI8qbAKiYAFkTBVbYWbCat0CZyQPdN5SDvLBD2H6HDpIuvc6QXgPPl47dT5PmB7quIDtX0fU2IAyAzANsE63kjh3YusGzrlaZxr031bpzlhstZADWuwgAJqxmB+SaDk0TgEAZADJpCQCLm4AK6QEWfygjuzwP8x3Oa9FHhv75UutZaJQKmN9ofO3tXoArHmDVetduOedZJb3ktvvflLJe51kaskvUsqXBML1IBq5w7QALf/LZDO1aH2L+N0DcWa4OVBkMiQKsWavaQMF8B/QOKzteOlScbHxY2bGS10ot2Hy1kPbXRh7LUK0iA9fAleOB1cBVOb/VADvHisIw+OKbuVYV2AiHtE7+YamCJz05Jwe2iETOXt/dZjt9XXqzy2Tv9Pa2fzKDgscOvVQmfPSDgRfEkfn4NrldGTD3r6Znruy8JZUGtvsf2t96DOip6SH6qHrp/P+4HHgtfhe5/qZHtSEgtYRAzxOzdrutXkOnrIekJ954qYu5tza2qJQAP4wjk5Ome/wHU9TyHCSNm2kPBNdHjtYlykt7ILgP9srsKENPuNKeJaVMl8sqLLX6gq6azmpjnaH6np1VISedfG0w8q8RWSxBxPUmdz9Pz1+yzfDHDfh6cKU3qQCrjd9TL0ywrUBZY+dWcgVUz2jrD7BGfEMEbhDosmvu18yXxQrYAWxgiSn7ZZqMLtpIo1UE/GYBKKhyANBpWDtBpTNF1RbP5sEVdJKhx18k9973jM2RxJ0U7TYnMqlz7D9aukkB1uWK/yzJgyiwY0+83N6IYBappiW9uI+m27EHlXhw7STd+gyTUc+Ml6WrVKk0DBZUsFkKwMjxlwVb5a4HX5RD2w+2igiAWl6rASygi3yYoaCtvVpbF//t/niA/XW5ND+oq5Qc2EeaH9BPWu7fzxqE5gf0MYACCAxUNZ3IFObcA6yBrJYRMi8+oJc2ABVSsr/j4gMctzyop3bHL4nJuS6A9V1w/Mhd+15sv6Xn91PgBXy9+8iVbSIjS8CQdKPkU35YHABsOAm9/5FnmAXEtpjI3Vk+Ich69ulBrwYOvVIrxtcyW7vnWB5UEJhzwp/68wq5Y8Sz0uJg4gVkQ4D1DagBrFpX2c37Wth5zY+0bj7+OMKy8lWeNG2R5rNtTD7kmUaDsqWBZuQcpmz3yiw1ywx/37hxU/RpR04b3RG5Ry1CNynfaa6BujJAe+YFN0hBS6a9qXFiIEu6FWA17fiQcVM1zWgvEz75VusqKaXRqjRwxR/ryMWcDExrYtOLWtgT6Y8el/22Xa3Zi5wFC8Cik7Gy62qDdT//ssHKHNm2LR9iDSplwWCfAbOCLIPG+YVdZcaPiyL4Fom4GvFb4u8OKJHpyMfetDpv23gG1quNsWj5M2Vr8eptskEfJwSHKRGqLdqA6gTYRGI9OW9tJaJFyzfJoW2ONOXnNdp0W6lcMAALx/Zr9azKas7uoKI49hXEVRLHWATKDGYoiLO8s6BFdxl60lXy5HOfyE/ztxnIUyAxBeSLEmlzvlrOHFf/uF8w+k1pF1Rqq6+VzSoZXS8FE1wcQbo9UOB0h6lQN94+OgRAC0vToWFFWf8sbb+uXCedKoao5eGsMMI0C1ktVy8jJ6cAfLSAW7c/2sKnK0R+AFkshcj0RrMWyPfosZ8ZyHoLLvQ3anfZWMNXRsYANN0ewk5ML3kgLxBHXARMHncNoQK3WSBuAMaDeRx7AKYCYWXrNevRBG4ULHn8mvh6sR7dLAStSDmHydTpztdl6VJmOhY+RfNNakWEHZA4tvhUZow4m8y04t3xwCuyMpj9s14DcvJzzDnTx8gX57PmrZI2HYZK0/RO5h/1IGs6EDSifkDJVbiu0nvAqa6clVep4L/+fqE0ymwjDBiZGyDIN/pi6VOrCxeKf5XRkGPPk/kLNibUTb55Dol0AouUv3HwM+4b6OnRbyiQtrdGgvoHeFnDDyswkYeDjugnK7QnSHqxwAgD0HPjGRqqsdOvXcHJyOVD9VRPDm1zlDRqpr06el/oicqWhodFMjfePSpIp8jjT4/TRo35zFoOOVruBrLas8jqJrkKvDff8qjtTeIoebzuOsIKBBYQ4W/QtG7QI28A8eBKzwMM4zs9zzMvvNX0hWic9epTF+XaqcEA68kH/e6Eb6XFftoC5KjVqZm3kXVAFoDVltQDlAepWEWskz3Q4qNxXXZGFulOOOdzhfQ66kK5/7FXZN6yTTH7FKKFZt/aaIGHIokH2PWbN9jqrBEjX7I8+BkAVNiQXdqp1MwFBShOPPVWs2Cc8EP2lYG4OfqFovyfPOMXVaq2Dmg0j8kBNmRWIdFF3MJM7BgRS5gv4gEYx7z0qQGsB0EvQ28l0ItwXeruagX3Nmuoeup92J7F3BS4QNKwiA1cwylEtQKsnvM7FR0QbZrV0fyYvQaeK2ddeKdcfcOjculVD8q5598pg4+5UDp3HyI/zFoQs/6J/bqbRjjrVS1v67IpRwGWMvm/NPa/dT7VU8+73cAVC9NLzOfKk8+Zv47vjylmdF8NWK0iE48DKPOtKtPzwAd84KG9bUkr+kYDP3n64jgXQXz+6ar3soGrgqIucvQx58iKVeimSp58GmLClINnnzLHDmADmNWy3sboTqSFffb5dxW429vUL2uArGfFjAOX7qL9etrsDtLKU8iFaAkrBNiGcDygJnJ1Ih/EyrJskefGfmguksZpWKeq89ow7ZNTKs2KO8qRJ55rIIw+L1m1TbKK2lnjYQ1HMNvDBgW1gT700AExKdVMpId+SwiwpGHjtioD14lTfjI3kemV4hVsA2palrjoPv16rt3vwXWPAixEdwNFYYlZSYtutnTVBl4AWe+LDcDJA5S3fDzHKmY1dl1pbzECqihMdvPe5stCoW3lUkFHKTmoQq668SHbUAaB0ELjW40CKeyEFc8Qy2hPPvlKbRm1a04lU4C1CmYcfM/trwDc37opTHye9cvmmBVIuD5sVUFjlI2jB9j126vMAzZg6EVmDTXK1ArRvH8coCYyLgjS5lZ1RZWXc88u7ude/swsLJ9eJ/PQAo9ayC0O7mUA4VIcDSuR6wZYu+7LM3bNXWfEH2CpqBguo0d/aC4eHyOVaL2iKWXFJkZM4sYSJy+soIIGDDpdZaV5CnQpUZ9Mp1SW+2R3lNyW5fLjvHUm7eDxGBGnKxtH3LNR9WOddl04r+j1V/NZpmeqtcQ0Kdh0wMkwCrBYjB5gaWDrA7DpWZ3s7RxLV1ZZHhlUhehyO2lwwbNPreOaAMw9656+696nzR3AqriwYcD6hsvlgDb95Ld1oathzwKsKxG2HqRGMkuHRiq7kKlXvcx6ZZ55Wkm5lmEnA1hCIXvnXXKrc4HkumldNo0uW/UtXRvDjDby9vhvAinVRMiTGgo7Yuey9doVJFWXXHuvWs4K9KZbDmAbpWtvuaRC2pYdFwvbm2TxaOK5dmowwPoVRpBtcKFHGtTRY8ZLdm47Gy30o7A2mOMrglX8hgEsnNOinwEsSu78XK7bxtG2S1TgxWdL15vu0KtvfmZi9eTFkFx9Q2UvbXekFlq7YHoMI7IcPTOC2VeylAuLB0jP3mfYKLI9rxwNW1XQGGXju1c5U2zlC9VqQzbkce9sGoh4UI0yAMvWkPEAq6HiK1BG4V2c9QdYru3belcDrP8NV4AbdbdlqHmlMuKB52WTdlHJAqvwPDAQvm0Vp9/XrY9dNHcN3wDd4ha8ykYrACPNAVP2UXYDkh2l3+DTzHLFLeBpM7U1IM6QE/YMDMByL/Gdfd4tCoTl0kStYQewaiD4qXgBwAJaWFP5JR0sLMqTqPAbs0iEPJveJgAsA5wsK/5qymx7bvMWl0CKMCSvHcicu0KuBmDcAisxtRH5Qccce6nkFSoImYFAmh24MhcV+Yz89ytmxbqYCMvpT8M4Pi3VOEhLPBGj30fV5fLCS29TuRxhU7gaZZSaoZTevKums1R+mvubNb7cO/GrmeZWsZ6lWrEAbI7qV6Y2JAVaFsOGX2Ghw/FReyERm6+hIaH7bNCED97ipuHW3jZHNxWug9w/8sVYej248vHlEnLttFMWrCdaRAr6629mSvtOAyS30E0wtxchakVnEjhve7XWHFPf+7nMQqiJXffcW7JYCICqsxT0XIGc7i7gYfdTCVShGmW0ljMvuE67/mH2sWaZYkHr5QQW/oZSMEOhpPBwyco4VHJVuGzuQKWgcI05V+ClcAuKussll9xlVhZhRcPzYXry3zmuxXetxxvvGm0VgClg+ESr5ztkWu+Va1AHKpqLKVHp9b8p5PMvJncRcHQuAndElgxkASwuZXZSIzUcYJ3vsmC/rjL2tU9CXY9ylILvUflxic1McgvaSEZuGw1fASy/NI7TC1THlBltzituJ5dfe0e1oBMJCVLdKAesT5gXZ1x+9YO2XwaGgZvw3z8GsF6OVmYMJGp6CMNX6kSAtalTQQMHKDN2cNnf7zNfHvpnexuz76s+HAJStALXQUlkSL5YBceSTqtj1KsAYPF1M7WL6Ubs2OW0iHg87zj5PIT5qE6bq9iHAWk5okd274inrF7Rw7EeijacacXaS9CG4KPPphmWECTWbs8+wyVH019UpDJthj++l9bRCrfZk+rBrDnLXLibt8qmWK+V+Kg3cDzAsu8uNPbNL80os0Y7AFcMQsZ70rIOl4VLqyJLY93/5Fw77RqApYZz1JJfrch2/c3/DMDJKSZOfgq+UTM3iBTlmkE2BFjHDlirAax/ZTfPYNXkdVBg7yC9+g+XhcvolIcEyDoFi5Be2KI17d1xE+X98V/L+HcmWdfjrfHfKnMMzt+ZZvzmuEny0+wVVoQ+rJrE7a5tl/XbK60yr9UHLr/uXwZIpLf+AKvWsClpYmw0GCHAumWp1QHWg+yeAFis870zjpAb7nrcNlivL7mK4VQZAmDf/2iqvPH2147HT4rjN9/9xt7i8Mb4r+T1tz+RX/2Gw7UQ5UX1QqIeYJHqBZfeI3s3a+caf7+iSkES3fT6Z3nUSp2WFw+w305foo2K26vByi0OYLvYDlkzfnZ7LDBjZYvGagAbWHzO+gvdWXUSxRUpMnOHaeAYOcNPuVYBiDnmLm5AlvJgFRQj4rN/daP0LibPu56wzm3hkPYgwIYoADMo+8iol6x3w0o/LEYDOTVcGHN4453PYwC7SZ99esy7ZvDgd40DWC2P/LyOcsc9o2zmDvmCnByjJcwvodD4j16y0tBmMtGbVCPNW6/I6bSzrjVw9b2peHklcu1UD4BNFqhnJRKxRYFL+4AkhIJGiHPmr5Prbxklzfc/Ui0MfJc9JK9ACzrHTbUI1+hXBxbH8QDrADXK3W1+re3WH7xRlucQUqO09lp4baVb75NklTaDdMvYl5SK4RQspG1+n4IgSygDBQxoJWMIP1oU7moifqu0O935ak1Ax4qTTenxwWaUDIjktzr/HgGWnkubTsdaY0LKfUpDogQoCezI6H647kN+2MnLE/NCARDGdqLsywjigM7FE/HAjviZWGFf9eDVCuQHtD7SjAGmNrm5pIEPXkHT6x9cX4DFRcA5Lp5j/nxWTMKsUItZsAk9ESeDepC/kUCDgP1zn345ywYFcWlZetTgoIwwcLC+H3r0dZNIHGD4cCLh7ShZ3VHBxLs/QvLexRde/tA2CWqcztx3V89heqBPj3nHUoZECIZFCyUtukh2DhZrrwBge0m+6jlWbNvSAea35RkHiHxqBlimvS1cscEGXMEegBWAtbEetaabZreRjz6dHtzrwo2TVzWunXYOYHG+wpZ2lwHI7+qGib9cDYvRL0ySwcdeKYXNKwwEPFMZowKOY6xRZa/c1cBVwQKOA1iUO9uFCdDSdfvLXy8xceNzg/hP6o1IJCYAF9g63raPD/MR5DLG/AJT+NgirjCTUHCjf4ZiXqH/hp11peS2oCKSxz+eBUvcLH184ZVPZZXmNwpEjomLEuAXehdsc+1/c2nx373bqb5kxejrkv0jDlfmEOngSrTqsTzzL3+9zumjyiauZ6UAhRXoekz1B1ibmhYB2Meedr48KjbTG5kRAu8qgI1+pUyz1QKzJZ+q/5Q1045yigZo2XSX086+KZCIs5rDp5WD8JJR5C6rHjxprOertCWdNXuxvP/hV/L882/Kww+Plrvve1yuu/FeufzK2+Tsc6+VM868Vv56ytVy0rC/yfAzrpb2XY4z9wALXML6j76Xy0OPjLV4kAjJIU9/v26EFJc4/ysA60GWQWlmUIz/8FsrD1aYutF+X8ocSanLGOFSdneN+LeCe6nGrQ2pAiz1wgPsIe0HGm6FeutreU1cO9UCsMkCi7ImW7s3ieR/9cXHHZZ5vcDo61Nj35cT/nq5tDqEVla7ZShxNptOaIuCUhd2ta4NUzdsBysVvAMIB7JYrQ5cmXbEPNsQXOGw4geVP69MHnnqLXPwQ67YPGsKqZWAL2w11OUtmgcGtLBaIYB1ixaTn7LBBx9v/F6hSgSt/NXkhXLNzf+Wgw4/ylpoVxGdQtXFewZg4eTELzUBrB/IMeAxkK2wSlO0byf5bU3gBdM4vAzjYyJyzztOTv/iw9mOCRVcY0CWgSx0DzClcm3Qn7//cbVcfs1DtkiDmQFYrx5gsWqc3jBQF4JrFGCd7e30ms1eogDLQgNkY5ZRbnuZs2CFc00FSbR9AZSr152ay6E28nJFzqRp2Gk32MCaXzVImdkEegWyTl1P0jsgdAbI1ye2aW6MNT0+CXpKevnKVDLyCQE8rHYcOeptOebEv0mbjn+2LnVWYUfHwZgFKzLdyswy0wlmAZhMVUdCeTq9NCvSWBsDAPbR5y0vMBIiTzNnLzfL3FZyKbja1LeAmdFz8qnX6l08g975N6KwoT5Pu0x5GbEYqF15f9m7WRstN7c5D+mwZfE5HeTWe0cZLEP+pazu6Zq4dtopgK1GQaHAZCZ6N4nGZuFolU/54y9myh33jZFuff6qLW17M88pHAYGABe3yEDBBsvUQAKQjQKsKnEEXGMAC8AAAIElkb9vD1nEBEkl0uKKLkgZ/RrAC+f3tuoFslaViquQv0b6CQEGeGnFZ85cJBM++EZGPjRWrrriXjlywBly8MH9paC4t62sSVMFi7fWqwNqIv+eABYLiU1qzjrPKbvJJlBQ1wzVFlPDCYu1crMClR5NNEocN21U+0XLbPmyNfL99Dny6vgvba70OZf8QwYdc4Hs31rLpITVQeVWOT24hgDL8szkAGsrDJMAbHQvAvYh8ADb/KC+wXLXKksvoEV64erExaQ/1Er+KfSSNP3j3uctbwB+VonraXh/8gEH9wsWKSQCLMfAJ6xMzwG9ZrkreVy4rFL+cd/Ttrpqr/TDzQBiZzUWVtjAkGeVHRzKLNA9BUK/IjKeA0s/BrCdqgEsRJIHDblE8gtx4fQ0YA1XXfWSvObdZN7StTa/FTeMDf0GPQNPXkafff2DZOQdbJuWs2kOrjpAlpWIjN/MXepwwtUPTzxdE9dOO+2DTXbVM5XfAEDPYX+dc5siE7m+dGWlvPz6R3LV1Q9Iu3aDpVAtC/aMNH+SKYiCrCquX3K7j5rzsM0iCH6HEwEW4dEtv/qWB6ygiCsk/WaT+DUlKNp2qk6wTls5ej9HWvBx70+WkY+/Ludd/A85cvAF0nL/PpJXxGT4cgVT7WZot4fVJkwrAexgt7pKK6AtMHBdtyiQ1sS/R4C998FnbLEAFdSHviMAm+x+r/McKR9W8ixbIfLp5/NlxEOvydnn3Sadu55orxfhbRd5xR21sS6z0WLmXdo0NrWmSGtsVyvVrxjABgBheU0AWBr2KMD60rDtCiMAa8aAyobzjj2Gm5yZjoYlCNfkn0ye47rJP+X1dcyLn5vViLXNYhzAi3IDiLAuVzI/ye5Xew+dsh6cJhKAVavaGi39Hb/mYpXt+ZfdZ8u26T6z3wTbD9oOcMUKcMosloEZifd663XNs3fnRQ0jep+ALLLyvU02gHro0TGWF5h0kCeOb7033U1Do7wMYINeAuWY20HuevBJ0zuaDeqEGzzkSUdeRudeeIM0Tj9Ew3EbEtFIUCfoLR9z8hXmWPBP0Sg64qQmrp3qAbC1U7IoPZNAzz7RKJwpnZ6b0m1zo6rcD+EGhb6bvET+NfIN6Vh2ognDKX/EXaAADHulTgqweq/NoVWA2O+w7nGA7uLjP1eVFVxp0bnilZVfPp08U+4c8bRUDDxZK2p7yS7qZN1KX0AoB6u7srV1dfGr4uX2tcUW+L9QBOsasaFKlqY5WCbslbE23h0AC4Dse2AUYGsmfm0owL7BhuH6IANVYSp3DmD9uZfAF9/MketuGSn9jjrTVmHhc8xVCwRrlFVjzbLLjekms2OWjVRr+piI3yRddSnws3LuwRXmnjiA1WNdADt5ZjzA2mqgAGB5LQ9ipow2b9kqG4O9WZOTz2XDyD/ldRaAdRasAiG+WPRPy426w3TDRby4D9+VpsnmV+spA72AETjrG0Y2OaHnB/hktzjSeooAJCsPYxto63cD1mCak9fbqL65XifGUOeA9VyvJwKs6Y/2XhMB1uePmQKtDzvKypcycrLmWcqsTI7oMMCmwlEuHmCjc/Y5I8xWB7D4g96LgqvWRyxxMIIFS6+M/9rqPPHCNIxhCmri2qlOgI3uKG9+xgYSSaDgPJF5z2bGq1oYm0mvN0alqszXn35ZLdfd9LhtCMG8PhYfNMpyb7W1Qo0ArGeuucKmspRpd+BQm9bjKwZEAVRt2aiKRrvlrhIfrTfTfyoGDNdCZBNeVVjPqriOXctnIAPYBGzxBnGbEqgy4CIAYNkTls3HSRMtJ9a16x4l510BsAbumi4sf645gO1tI/F1EW65+gMsXewy+WrKL5aenQHYWFeVcGC9Ru4pv+69h2l8HWySOr7G0L9XnUmfK4NgZgDpz1aLjq3v6GpqRbd15yy11SPPIJ94DkCDnhKDrrltzcpBfOSHlVz75IQruSh7Brqo/IOGXmr3mQWrdSe5a8ATP9Z6Q43EU8QDwH7y5UInE7VgbTtGa0yoEw5g58xZFqvTfgk2U6p81calcfWNI63XZxtyK/gAqrz9AFDdWw0EAJUVgRgLXk7I0I+lwMy9ZZED7gT2ME4vLpVmJaXSVA2UvXN4UWJflVV/06NkAOslwdxWVQGbr3zzP57UhpP3nrlGb6+MMjvnWtPMw2xaH7rnKdZbCK6Nfu5te++a7cWrMqJONsrE4Olqq91Y74IMo/G7s9q4dqq3BRtTDhIb4cTojLke+c0DrJ3bJ+qI9qxZ4w13SCX6cECoAluLnX3RXQaYdFlsVRdApkpdE8DiW8ltTiXrKLff7Xbc98H640acdkoIlgGak0+7UruWWhBFzCV0QBpjvseuacULgNWzpSdyP/vFArC8MsVvuI1i4lTn3iigJvLOA2xwrukygNUj4e5qgPVADsDSGBI0Fdal0H/c9/pQFGCp8Ow18edTL7Mywd9GV5+pR653EA+qIbu8+w3SbW6rAaxaqMrOatX7AkDwz8WDqwNY2Mo1AFhKxKso2xVGARYLFj8s5YsFy3Z9TBOsHVwhbqjzphqJJ5H7G+O+t0UxWLFY7okA6yxYp0uuVLRu6YOaHasbl/7tXttsnmWseS0HqnXuQJVtR/+U2dH208XQML9zTnvp1e8MOe2Mm+We+8fK2Je/lHc/mCkffz5Xvvl+mUz/aa1MmbbcZDR5+q/GbI5z+/0vSn6LgbJPOr7w2gEW8gPMcxdv0rSpodKcMRnVO3orWiYYPOwdcNrZN9h9azZQQiGZbDSDg4acZTpKXGla1oRhO75pGH+75SG7D4CNxu2+1ca1U50Ay1sGvHJwYCwoyjZPsQa27r5mLHzejfJtUUDdImo5xrhSOd6S9f4THsWKQcj4bVcrFj419l3Jb6VK0NxZkr4SRNkBXU/5U3ona8nZzeiUM26qBrDsTo9TH3/enF/XSGn5YPPb0RqzAs2HEwPNJADrgCdQFColaQqY7muTDF4QWSHlFefIoBOuM5BlH1UPsjXxrgBYA8IAYGFkA8DSja+LuKUhAEtXbfkq1Qt9DreQS6H/uO/1ISt/vZlymfNrlRzY5mi3ZFYrtvkWi1SuCmgGIEz1C/yq8Uyl7RVbOODmt6pMKR+93/bpzeooPQdeKENOvF7LXIFRu4weWH15x+lTPQDWT9PCgm3b6QSbsG7dVZ4hczVS3XfUTE6+yP3Rx98VFhuQP7PMEwB27VoXj58F4/bscHXsn4+8ouXYwZ5jAx3rPpcMcJsSqTVqK5/y28hxJ18gr7010QZ3kYMFAOkRNQWw7XoSIo3Mg7VNfLD00ddaAJZ0cU5wyH3YGTc6a1nlnV5SYT1Z6hmuA15aOH/xusD9FRIDe3N+WSf5hWUOYLFeVUa4MLCk2Uhq+vyVskYTr7fG4nZndXHtVCfAercAzu9ZPy2QIUOGy5DBp8nRg89I4LMcH31OyHq9ZoB17MHVsf8EboRAUN7ZzFLDdZoeplw9/OTLqvSHq3AVVIJKEGUHUq6S0BrTnRx49PmmVolQBfFSs649T7JWOb+lCr2gv1bkAYElHFa4GFvLqRyp1KyZtmW1Nl2F1zi3lb5HnS033zlaPvx8vqzViG+79w17ntHLvTICH3INvDsAlnBbHrSrATaoJAqwv61xz+0MwFLu1ugpMxWIuBkgBFApS9948Z43S5dytByoQHQDXXkw59q9ZpxyKWzR2d459sDDr8jEr361lzNecvWj1qDaMt+dBFjeXuCsWHop5TGA8Fwz1X1HcmLKFyCJLojccddzBrBuk3cHsGzARB6QARY1zziAdRWMWGfMXqOyZW6qyiHQTxoJgDanJcZDO+l31Kkydfp82x8DYl4v77uL7fDFnxZc8mlopM4tZ31u7Nv2JgcbaFS9SQRYQM6hTlj3Ia6/99GPNteaRpby+H+btrXyx7/OG3YfGfWK5ScRZK+94V+2IQ66wf0xH7Fa6INPvNJ21/LxhtpaH66d6vbBqtT8COiXk6ZJTv4RVlDMWXODTzUzCr2BtwkH6bBJ1poNx+xoE/XHRljv9+zzwYHMIzcYP1i3vieaVeMrRZR9BfG79NMdLOv2F1MrD1Whiomcc+Ed9s55Kq6Bau5ArTADYwBrlVrD9cCCm4LuCjvTFxV21wblArnumhHy2KNj5b33P5Mly1bKxioWRrqWlyMTQO4Z+ab5kKmwHvBq4v9mgLXzoHLAxOEA1gUc7vvgPy68ushXTKbHnXr+ra48YjJxZQqou6OzGK2MmKmhlYweA4Ba3LyrDDzqDLnq2n/IyMefkYlffqvWzSoNd5tt1UgspI/5sVff9Ii5HfDDuvi8/iQ02PUAWORAekxH8jvKj/NXyUatOw4wiBVOJC+d+nB1QjeQMHGw6QvbI9oLMbOoC2qF5qv+K8h2rTjNdMWVhqtN/qWI19/8lFnxvsG0XonmiZ3Ksks6ylnnXe323+DRIAsuTtVA63U6dlf9J0oMIGNGiYwcNdbqGtOkTE61AGwi8ZqbLt1PCnTdNa7u+QprULtVnGTTy+g5EAYM2B54aF/rsVCODNjZ/Hm1etMyS+W117+ytOIqdOlOXteSc+1UL4C1Sqzn7NdplllsBZZX/OQMyC6YF8w/NYkRlgdYF6ZZK8pRUI2yzwcHgkAElC+hXnvbQwqwzJWNB1eXNsfMBeTle1S8jl1OtDgt3uCIj2/qD0skI6dD7G2iroIMMuY9VuTFh0th4gMqaNlZjj/5Ynn1ta9l2RINz7lxjZyiUQ1pULTVVmaLZdJ8x4MvmS/WwGEPASzxMDWmOsD6cJITvzQEYGl0fsNMV9oZgCU/n0/5VbJb+HKsLhsGnWCsEKwtK5PmveQvf71Bxr39rb0YD2uNOKnavIbGs1sm4rrtNHxX3/hPMxhsJkEAsD584moowBoDHCqPUaPf0rsoQU/hWUheOvXh6oR0WcwAMB18hOqtAhd+55yiI62cAFje/nvOBXdbmbg0EJYaTgxw6YOHHnGs3ev1xspb87RXVhsp7TbUNmmJUSwLnMRzWN58QkIbqLlM9L/rn8+YbKwcI/ExB/6fj9UOsKT1X4+8apsuRS1gGOuUJbgfTvzRwqCcANdx700xvzI6YnEGAEt5HnJIf9vpzROasUcB1ouJ/8tWbW4wwL44dqLJ3sBSybkAcAcE1qv+VivAunKz+BE65cw5Ihj9ygQHsFiXCYzwqCiAmW0PqF2mbr1OseccO4CnIC698m6zemxX+BjA9lfGiu1vIOsGz5y7oaBlV3l53CdWgPiG7Q2sJCqO3LpzPgAsFRlmN600VSaUyr+3rCYmbzsLsN5y9fMPKRcA1m24XT28KPN/hwFWpes6rv7jQq0PkbTTz7tZKwIulNr0TBs9NgrR9O3buo+888EP9jz6hE8d3xsDTGyy4lbg0WtC/7ZpucOkU+Rv1z+g+VE9wr2A7uxCgB103Nm2gpF7TeTB/3jy0tkRdrSxapu88/4k7SY7HcB6tVVleqTsmMb27Aufat4TSIOYN2+N5KkceUOy1xsrb80Trwx//rXPLNWm42GUSnY1jqMlHr3VP8pUqr+ec7XKWdNZoLqJHzSILznARsN3tGKl2CvKbb4v+md6qcaRlh/1+AzVHXomhEFYp5xznfmPrYwoVwNYyrOLXH3NgxYm40lQmHKfen9eE9dO9QZYssf0pYYBbDe54IJ/uLn8Suyug5vAgSyfhgMscuAcoB01+p06AXafDDf/FAt20JCLYqAKwNK6sZnEIYf3s/fKxwBW047zuzrIar6yO8gHn/wo0X1H3XQXclOllRpvDokmna5KOwsqsJZufcLSg48urUjjCCpyMt4dAEu44RsNqocXZf7/JwCWd9UXtWJ/UMqiDoDViop/kN3niRlZ0I3FLeinHkFkl/R4kHXWrAPYq665z7qKtmE1ulMDwNpvOQ0B2M5qNXWQ6bOXmby9cRBPXjINZz74Qckb23OeMOwy1w3Oce4TBqnQf/yqvCqfnhpPRolFXKxAZJEM87a93lDe5q/M7yjL17kYqxMxx7MvbT5R4hvlw569vNqbVZr4PxsKsDSa+GXPvfCWoDHxegnAqtGS3Umat+ohi1duN5BdsEIku3mp9YbQJ4vPylZ1R+vXzB+XW7iequeTK7Vx7dQgCxYBde15sjRKY6RRgUxbIJQv1sInMArJVmML5js0siSZA1xhwTje35qMPXGK0BEzg1ycX33zw5oG5qbWDLD2DnlNKwB7zgV3Wh5IjQfY2fNXS36Rmxtnr+1lyZ8y1mWTwn7SpGCA8pEa5gCbFnTK2bdaWlgGSqoYpKPz76ebuSoLu64G1XlTsJCCq6ece5v5+phFwCuefUVOxijAqtU8pXKyNfaEEs/1A9g+Cq6wB9i+AcBC1cP0zP+GAWxnbRBIJ3ndcYCd/O1P9j4mA1B0rEausPfnX3jlPfac6YdG4v24kM8J3VM4CrKkFOkOPeE824iI8jerLQnAGqNXCrDaq44D2BrfaKDX2LP27Atu1jsdhcDhyUumYexlCpGPzyf/okDazsoJ4CLd+FGZd90os53tLOc1KEq47saN+ywGsLG6q4YGBtK+hwyw7f3waVYn5FwbO8KAMr+oxjXpu4W2bwGyxMiwNySTXuqoNpQPPjo6qD0BWVBhviH0fer0RVpepZZGB66eNf+Z7eXhx8eZQTPy6Xcka181svI7Se5+vCHajcsAtn0GnWVpq5bsKMfirYlrpwYBLHz9TY/bgBFdbxJbK8BqIVFww4dfF0uK7Q/p9zRTLY2CaTKGOLhunasQHFeq9FgbXRfA0oKbbzWrXEY+9lYsDHyEAOzEL2ZqI9DBRl4Lmw8MAVafaVLYRxoX9ZPGhQM0PPf65mee/8ieY/J45ZZ1WgbRubweYFEPB7BrK9daOWFn0DB073uaASzKZa6IoCIn4/oArPdZ1g9g+1j3aJcDLPHl6rUIwLqeigcCFxacnGKJsTJ/74OvbUTbdCgpsDqmPPKa9zDXAADAK4zM/41uEaSyz0kUYEPWZ/Seit4nWtcyt4g81Ayw1nPLDgEW4lXjjbNLDcwSAZZrTC9jf+LPJ7s3GlSXQ/Rq/ZkP6Uc7cEEMOvZC03src7XS3Aqq7rZclg3KRz37uj2ZjEY98YoN8lm6Y3mmd9BNWh7cX9Zq+MmfDYRcIzuygTEl3GkXX3GPxlVmA8+WVgNYGi7XE0kOsJz4fIu9Q4/f2fMZNyQ66AEWXzPGVEXf06029hp6rjQpKZOmhVo3StAbtz9udnF3eXLMhFg5xiU7ykG8NXPtVCfAevLBffDhT/buLQrAurlkLg5gwy6dU8oetlv83feNdu9a0kS7aR1wHQCr4OFUCWVyXe212u+jZbrrn6O1MrRRgdUOsKxVJg2FJX201VsdB7AA09hXJkqehpGrXYaCkgGWL1/B9lEgbFTcS0G2l4bXzxoWKpQmzWjTpg1WoaPspAS4OMeA8/5RncV2lLc3ZWq4plw5bpDGV+ZE/t8AWBKC3FyCKHfelspyZEA01KtApzy4qjVuAFuoZfKde82IPU8Jm27pF2UOLh3JAXbV+i2SU3CYNElv52YhNBBgv52+zHZh8nqfCLB78/4otZ46dDlaFi5fb8/EyyFIaAOZD+lH2jff+S9Ntxs0cu6gCrFd5xQ004rdO9jW0F+ugWoDWF5JThzIl7KJJ8IM66j/HnJIWIrzF26WgublVrbUAQeuznqtEWAhC4rw0SneTOIuvfDqRBucROcNYHndD3qpdZ6G9+EnJ8j/ZR6h9bfcNvTGLWCNnsqmqEVPWbshlKYRgboLjmPx1sa1U70BFiI4RmcPOewoFVQf2TuNiucA1gNTjG1QqLc0Y2miCo9JwHfc/YSFg0PZjAwNsDamUPRglQFghMnzi69PtFeF2LQqFCGIPw5gNQ1cY2R4n6alto7ZVtXo82ZnakCbNfAnn3nfRiTTM7tEfLCuguEIb1LkrFmb6qIA++kXc8JyCOb7RZkUOv8yA3k4IpyyEO+YVz+wyoZyITcaqLoAds0al+uY1e9ijvHvH2DJExyQpuvBfz5jAxjoEJU9yjFwVaZsaRinTlsdCzs5wMa+xmKDkexTo8dJRu7h5rskPADW6UA8uHqAZSpR1EXwjQdYa9C13CLgituA/RAaZ7tNZ5hHyjiGT0vd5O+Mf8J/Iw/Pvfqe+XnttStFfU2fHLjCNFKd5MFHXrSpYpuiU10Cop69+dZnBkgsKPC65/LODlfltirLdvjHMEognxa4JmLkH9w4/ZzbVM7arS/qJns16xi47zReDDW67Tnt5J+PPFcdYI3QoS2yoWqjxcXvjJ8wZdT8sIozgCuLKrBi8R9jpaazaxbLqs3nWmE9b/YhuOKqEUGoLmQj6oRnLnE0cncl59qpAQDrYkPQ9z8w2tb0srsNmbPVMbY+H1aA4zsAa8sUeRsrq2ncCN/AwefKpCkLTUn9ZHQc1z650TLk1Aua7vWC5ZVyyZUs5dPWTgvFNljR8I2jIGvxu0pBpSko6SY33PKw5YDw/AwC4n/55UmSnqFdFq24bkOZAGAViKjgFFhWTsDa2j7+xLs2Qm2+GyV8oA5Q3QfyI9YQQIZjf8U6MZ8PloJV5MBXlrJgkZOTlafRY96zSkD6fTlG2a1Ocr0jloW+9c50Ay73TiYnJ99IEyehA6au7F1jx5FyKS0/RjKy1QpicUJQ/k4HPMg4Q8HiVYBlQ2sfJjRlxkqTDwAH+Oc0P9L86269vdvcBwsNa5vlq336nynzf600Pfc65GnjhkpLc5Tc5Kt4+RjY6aX7RozRdHW0RgFAZ5crvyn9/2meGud2kLZlA2xhAHOy40MJ6ac5y2zvAXSR3ppNYcpzq9/orf7tmpEWJ0nzyePo8+CvR5nrJn8VduVa7XHe+aqt3CKt7CfCO/r8vhDsPscudJnZHWTkoy8HJRiG4+sWOUBk/ohP97a7nnabZyu+5NDLVF3PKXTGEJYqMmGZr6tPADC6UyafffWjhUEcu5MaCLDbzY+yRns6rVopsGaVG3DWBbC2FpylilxXy6RR+hHSf/D52lq9Jp98NVvWbnQKb0LTE1ZV4RSH5i1dLy+9OVHOvvBG236O7gU+VSzj3OKjVbADXRxW+UhHGL8JM6ezFLXsIr8sWB1ULMA1BNgPPvhZMnl1hYIsVqyrZFq5gvTzJtmc7BBgjz3+StmoLacvmDA8gNZdN/eDfveVGrrnn69Z3gFX0mUtt4KTWT0JwOoZgF2Bs5lQzXqFiCHkPwbABolxKiavvfGF9U7cZiIOVD3HwBXWsuItxsNPv97cRjxOnC5ePdd/hE45eEYH/FaZN/3jEduNy+uwK3vHNQEs8ywBG18a8QDrZG5LoIu0IW3Z05Zykg+bVK8MkBxwUH97t5t2gNyyUmXAiDmpyYi4fHzQr4urZPipV5vhkKbl4qxmfK5dpZGmpYk2Av+n8uMtre9N+DJ4KiblOKLd3qDC4y0DpJkeWwxgVffR+Tyt1++9P9XuxxjyPlWIU88GhsrUK47QdhX03bc/KxlatwBUP22S8rNNsxV0bXvPLAewjzw+zuoM4dGFR7etrgZMzxPiwD2z5m7QMMu14VNjhd3RVNcJ1w9Yu41pqEuu10O8ffqdHaSZ/7uXGgywEAJ+8qnx9rZHdhm3jTQSKkI8B8AXMK0YrQsmPJWyaL/e0qXPmdJNMz5w6OXS5+iLtMCHScmB2ho1Z5MUKngHA1daJqxXhLU3yxID5Y8HV74HAJvb0ea5knI6SCEg6rnmY86cTVJUqIWfruFrReCZGGAokMRZsKoM+aqAz73wGWKwFtQKPcK+IvOKmhUbttguQA8+Ms51QVGovH6SltVXGwgH4LUNdAGwy5YxR4bq5ZXBq5bj3z/AxhISO/1hxmJzpdDFtnh9PMpRvTJQ1C5sTkmpjPvwqzggDdl7wt1UOXpCvOHgjnt5sylLJ9l60oFrfQAWC3aVWmTkhfC/mf5bxEWg1lghbg21rJtXyNDh10n/Yy+3c9tdKgMw7yoFWul5S2qf3qfLu+9PMtCCcDtwDoDDlCtuLIi9iGf8tFKuvf5Rabl/P2mSFrg0AFhzRzhurGXFxtH5rbrI1Tc9GAu7NqI+33b345JZrPmg50DvTfNOXchVoE1LK5fmLfrIE098YPezmoqiImlWjyLsNZVZNpOmzJBBR51hr8PnpYXIF9Aza17rcKPGpTHrlV4EluVNtz9lIOr2dtVw9J/NNQ+YeKl3ZAsd5jj4uItVB1VHNUxX55ULQ4CFDWD1Oz3IMc9/GtW63Uo7BLC8hI731v/5pCuDzaX9RHwPdp49sHrr1g3wYL3xe/F+R5sfEqX0gMA5XWemUqCodCfYrMXm5Ok1Uyp9hufzmrtBqTAeD7AufCrEQYf1l+Wr8T9pgWihxwGsZgdlad1aW7ycjlLS0u2Y7gDDsQtHK59eB2Dx+WHF3HTHE8KLTClgrKcoEzYju9/MWCTHnHS5gSt+IcA1Uy3utEztHuW4d+/XBbCLFmskBrBeJTiiwo5//wAbIdKkTH72ba3p1y62xVsDwFLOtiY9p60Utuogt973mPy8KDKQmYQZzT/upMu0PLRMNHznVw3AVS1Zrz81ASw+Pzb5Ji/o1OQflgezCFw3Hd3lCKiecPqN8t2cDdK8tYbFTJVCtWSbdbLGOjObd0tVSHZuOzno0B5y1nnXW/f47femaPd1tnwzbZF8/MUseWL0eNW1UeZewsigQcA62yejmxkYDlhd3M5/XKbyOMI2ZCGN3pL0x5pohSrsfocxddAt7ojVI9Wn9Eyto7yuJbu7lJX/1fY7+OHH32SFNjQ2lhFhFiO99tZHcsqZF0tG7v6SV6iGS542Ltog4FLE9dNn4EUGqszcceDqGIAtatlDDm83WErLj5XSsuPlsLZD5LA2Q92x3SBp2+ko6dj1KHnj3c+soWTg+OU3v7KpX4RNem1DbgVTPxsIcKX8MM5K9q2INZB7gho0yAX5ikIloBvfruOJ0kiVBuXHqowHWi0gRvkVKNxovwKAZZxMu1c+oMQOUPCTRNkpuFPykMOK5laoWBwRYMUyRtFySipsxdX7n0wT6xJqeqn6zmeqrN9pufFlXXbF7bbTDuAZB7BaAbBMfPix1pFKyWBVQQfpNfBsueDy++W2e16wTV0uv+ZhOenU6+WQdkdr+tqZU5/Nn90oZz/tJvaTnMLBBlJ7NWV1iQPCGAfg6gF2zi9LVOBbZWsV9jeS14THSuH3AbAuvPoRXWWstuFn/V1lUGplGYvHyt3rgtMx0znKJ9Az3q3fc8CZctGV/5Trb3tWrr1llFx762Ma3nXSvvMJ+kxHAykabACVBhsf6f/b2M0h9XoEyJj+JQAsPaKFS7dbKQDkiRas6TPAoZbS0GFXylq9ccIXP5iuWO8rS8NSPQAgSbsDeFxTajzoM4AwzOAYugyTPxe2A+9QXxTQGZEv0ftoaLSLnV/SSY45/mxbrFEf8iWD8THhk0lStK/KEZBWi5vBOWYnWPrMwAh7cugajc3+rftKefeTjTln/xHyCrNwwHqeei+ve8nXuj9k6EWy9DdRsGUzHlcGGEwYT9abYI8TY61fHH2946jhMFjIjl4DjjnL6jWmBw3nEaVH2SYwrpEM57P7wS3KmLrINDHKbU/RDgGs+Vn0SEKnzVguBx7SXws3NNEbBLB6bxRUouwVPFTy4I0FcRXOVQgfn7XiGhc7zz/y9JtmSQImpLcawFJLlL6ZOse1tKrgxAFYeAVuRliwteo+b7B+V8U3V4da2GZl63cDBNKg51QSKpUVuqY7K3eAKg0+4742QEcFCytLwJH8I7evvp6mQleo2oIakWCYUnBMXjzA+jmB9QVYF1IYViLzf0cBloG++LDrS0z7UVD68nuVgYJerQDrdMM3xB6AWCnH/rvsJsXzgB26x1QgKporDyqdglYwABVlytaDZah/DmDZs2LajBWmS5RI7QB7uahBZ3Jm9V/Jfn0VILR7rwBlvTStLzTkTq7OOPHvmnJ1gx5OXyszzwxEOXbzXNOK1apWq49BKl4ieua518i6dRphPSlaOqx8u/X2h23hDSDr6mtQb8m/DVYHTD23gUG3VSDMuTVcNHjGapmqRcy+yrgA8H2uZ6Gj0oknX2U9CO6nDGyaVlBvLD5jPTfZO/lTLsX797d6kV1SJt//tMoGKkn/PSNGa/xu4YHVTcqyqKfsleXqLuHv3eQQ+WLSbDOq9hQ1CGB9YfhutlukJzJ99hJpVzbEBgxwiluLE7Q6obCcwFyrHCizAoxX4DiOVRhfmTz7V8L4Su58pCH3NL9uo6xD5cFRL1p3Pd7vGgJrDGgtB2oxnXq1FLfiFS8KQgoWTom161XUyTEVyNKH0ruls3ynorBaZp9srFG1iEoUyPScazj0PeA6IOpjr5JhF/W8fVmW6Lp2tQHsi6+8bctk3VJZT64UOHqAHfPSjgNsTSDL/4YCbHSp7I4AbOXm9bJBrXVCOeovF1qYsXiUo7rhOSYzzVu6Ahhr8AGvvJZaGQtdFxoAZPUOFc/yEoRlVo6VgWN+qwtgx0+YZrqFgTFl5m/6u5sm5Y0HnsWiPHb4FQbC3Mcsh+9mrpAO3YeZn3QvtTbRL1vJBOAqA7bEFQVUmOmCnmNTsFQ/OTYr7il/ympnc10f/vcrzmervB0fXj2QJFZGKIMSPYiR/3pO5dDB5GUNhzUe0XqoHAFClr2yHNddC+437iKN1JLNaNnJ3iS9RoHfBh6Vp0ybKyWtyrR8y7QO8eJB4gjkHoszKANjd93KUK1f4r307yOs/pKD+Us3a/cfwNc0BQDLtLO9g3oJwHbvfarl0dckntvdtBMAG06bYEBn0fJNMnDw2QpyZTZYZECrGTWQjXDUUqgRYOFAsHGFqkxltu52wB5YHaB3k5L9K+S1dydZBdhA9zlIZ00A64BAZNlKsVdrky4DJrMQFAAL1RKCcVug8AaunnkFjCqVVipGjjkyRYfFDaSVd3V5l4Xn40+5zfxz+BdRlNoBtlwefmSMuWDD9ws5WKQUmKtA3qjEY15yk67TPBAqgFh4WmkBWM/ItOWBCrAahAvJfcLSDRnlffO97627GAs3GcDClIdWlth2hZa+aHj1J/K0tmq7zF600RoD10B58PO6EK8nnJvll9/Pzg2s9DqvFbEKphUUv74HUsdaUbUMjjvlJqvgyMtbTC7csIK76/pdgRFZs3yUxnvyjGUal38nFxU7HmDZ3ITuN93Z9XrOtOY7RoxRq7OD7J3bRtNEV9y9Psj5b52FGnWXMc2IuZywf9mnA1oAuoO9rO/HuavNDQaxJ2tMTeqgWBkxwsYhmMnw3scz5LCOx2m+6MHxZg84AD5jlSXT0PL43V0DKG2DHn9/YSfJP7i73P6vZ2WlCiuIybY+xSh47OlXNX+l0lj1lpcpYsRE852MG2OhBvjR/IA+slItYgYuAc0Th19udcCAXn8HYHnlDWmjlzHysTfNb45eb9AGCBzY3bTDPljHfKgOrjLSUt/34FjZ74C+0iS9VApL+kl6JoNCA2yOGntUUhmpIIAr7BW6JmZ9NLv87J2mVmIGvioVdHq5OcVZ/gqYM7LP6O7QP18q305baGlD2Vy6+HhrtTojY5i0f/jlLCk5sJcp7f9lYGGEldFXYkCVLr5xkEbAhWljnHPcu2lnyzP5A2SxwnJbdJGzL/2HrFVBtel8rHWdGMALw3Xsu4cwLouLLrnNCRuKKQTg5cbF12/eYJuQj37pA7fG23yLKmN8sRHwAxRZ6YK/vNVBfSy/yCgsx/gPVynTV9/Wrjr51+40cxdj5RLppdCYGud1ko1akXgO2fpwwgzUj6xsNG00HO9PnCn7HzpQcoo0X7luk2Zzt2hPgN6AT08yJt80dn5KHACZpiCNNUMlxHq64oYRslIjOuDwY7WsmJs5wDEyA9Q9uJsMe2k3f6Bcce1IK8f1msZJ091eBM7Sxor1ANtDAfaqWM4BgKg0fvx1qfz95vulYD/i6Gw9Lxuw08YMkAKgaYixdvGzZtAo82bclmrt6vei1gPlz6deJ598/ZMbaUdYO0RBitCtCIO36MiDo16Wdj2Ol0Y5hynAKRhqY5Je5NKH1e7BlcaKtCLTvTOOkKL9esrwc66X6fN/M2OHYKMyQEdI8rOvfiLFrbWsSsrVEi914VnDFrVeQ0a+vl7hlhz1zHgNxQ12/Xv0m1YHzG+tAMsAFz3KP2W0tVkVbABDnF4/4d1NuwRgHci6hENLlrs9Cwqbq/LwYjq18jKzAUFG0rE8HQDEKmlcNz9kb6Vm5/e1Z80iDnaqx0nOaD5O9d79TpO3xn9rU1lIF8SrMChWL8hEDvOAZesKH0WYOnu5tO1+nPwp8zCn3ArgMaCySuotqOpMwfv8WV7VEqHyHNh2kLww7lMr3NWarOFnX6X3qzJRmbShAAQ8O7+gYyamd+9xgmwmYUq8899RCLAQFeGZsW9qJT1Cn2ur7N6X5Dk9S7tpmZ0cZ7WXVgd0dVOB1IwIyzH+466KvP72FE1rmRtwUOb11zDLn5E/zFJj48L2VtnDiuT+O64/MXAHA7KU6Vff/iqt2/S3AQ5GitGDZlkqrwyt4Naw1cz8zsRz/K5/atxWG63OWjk7aHgD5e2PvhNedIcUh/z5SgvTllvakkutpAyGad69mwJdBOD7HnWu6QrPGcDmtIkBLCBAgwT4HHfylaprjnwPynGgbxr3qo2Mgk+Scy75h3TrM0zT1lbBv02Mm+UeZtPQsoraySHtB8pZF90mz736uSxbq8+rfGJTvHxEO0pgTQLeUGoEi1t9yo+LbB/XE0+9Ujr3OkmK96NetDNA41jUqru06XSMnHnhrfZGWmbY8Dw9EeSEtU/wXPOMDPhtod7LO7GOYG8R1SEbJPODXLBat55tIFB7lux+hy536/lnm75FOEcdd6b+zvv6HMCapasNHQ3g6eff6IwKizfEgd1NOwGwyT6OvCBXrRN5YMRLcuRR55swqJSsHWd6hs05VSW2EckaOFvBiiNTRABprKRGTdpIrirz/gcMkLPOudU2a2GiNO4mKzT9597A4CxXrnlhRpnrnr3Cxwpcm8Pr73pI8vfTQi5yVrOznLTgAjawV466P2AAE98rm3zve8iRcus9T8kC7R+t0fQRPrJ5+N9jJbeovTTOaJNUgTwzlaiw+HCZPXuJPuXIpTkEWBYRV+qRzbx/037oUo3IcZUsX1NpvGJ1paxcuVVWr9guy5ZslNX012IUlQQcEt/YaHm1luNvK7fIqjXbZcWqrUlYr68UO6dCuj6N14jq4dZFBq6UkwqLJ/EXr9QM/u36+2Tfg3pYb4XVO/4VznBo9YRsv2ljZ/pk8i21PQHuGvFvWaeFAUhS6ehi3j/yBVvOjYvL2AZM2ul5MOATlDv6m1dUJrMXrzOZfzdrpQECFijlbm4hLKziCjlh+N+svKOEXrIQxV9HJ5AZxCKb1es3y+Jlq2XWnF9l6rRZ8u33P8qceYutS83v3Os5UaqhG2nXEfHQ0yG9pBV98GmnMWV/ER+rv5e9ab27AvfIxi1sDhnmNcoeePmNI3smsMCgJl6vQt+gx416XBPoI3HNWbDR7XOgvU7cB+YTVyOMniJvhn7n46k2IOYA1vVrnbbuXtqlAOtF7+9BaBCrVebO2yCjnhonf/nrFVLe9Xjt1pcq4JbaTlZsaWisFl0iFxVrd0vBef8D+0n/gefIdTc+Im+9/a1sUAEzIokltmYjW1q7wiVeiArKjldwFFg9+zT6dPrzwFi0irdg+Xq58fbH5cjBF6il5t+1pa2rVT7H/ppn3ppw+d9Hyrh3Z9genRidVESryGpmENcvC5fJsy+8I08//5488/yEOH527Ef620TjMS98IC+98r7M/HG+PhWm0Unb9Rw2bVtv3wif9eaEH+aH8kAyrlzsEJyGxIUw5JoIsGO3quidnonBswNXlzanE57rTzGAVfZPUzHwG89ftEH+9dgr0qPvySr/NirzwOKpgelFde46zN7JxGud/eIQrJjNKjVyz/cZsxfJ8y9NUP4oYM6VX5xoMzTGvPil8RNPfSDPjf1QJk2bbc9NmblMmikQM2uAio2laz0QtbCG/uUKA0bS7/UQ8noJbdyMdrjzrba1vkpt2xap2lIplZX85ih+kNNR9JX60fNdSbxzi7Cj4I21bLviaTnZd02b2+iIcwdhThscMWgJcZU6ihHkZVCl9wN0yIGj05kEIhrPEbLV40qEd8+DL5rLgB6x9V7MD6sNZnEnad9lqGzQZ2lUnfUafnY3NRhgayYnAdQoZFdBPHFOtxRibfTMn39Rpf9M3nhrgox+/g15/N8vysh/jZZ/P/myvPDSu/LGuIky9fu5snDx2piF6sPjiHh8TFTsqOlvv2tUXrE9++6nD8uFEX9OOI4VFAPEpfWcNmOBvPrGR/bSNtI6YuQzMuqJl+TNNyfK99PmyZKlqiQagGenSMqaDtSOWRe88sZvlYhl5q6HDFB6Ji21E/kgf2HayUdI0V80Mv2zG2DO44gLiRweaiYPpj5ocoHQkB7sf9kx8k9HcxJlLLxx73wkjz/xnDz40Ch59N9j5Imnx5pO8Q65ZM84DrU0+e/JORgLMqaMJk9fKPvktjG/qffV22CZgu1xJ//NnoE8GEHRcyO+erYIlKPX4P8UJaYjyiaFRAnBsRuMwjJ0Rg9g7dnXR8c86+9WjsYFR36KsRL1vEv3U20psptChg9eey8KsGwV+eBjY+3WTRqHt17d7ncEuntpNwAsHFXbKGl3oWq9XnUQQsWkBfOtOcSOPXTxEZqXoQdKN3ndLX4M2dtMDhQ9kPKMcfSasi/MWNgBQz4VYYFvF/9W3ZrIRviVmd4CcYyyn5YSnx73cYXNtZD11jiuiwDY5PdrZDGG9Mipv9FfjpG/N4E51EquaXDB8h9whbm+8wAbJR+SY/67NHrryVNVVVXM8kLe8c/tOMeT0/BEgHWDXD2FOZjHD/t7kueSUETc/3UAGxVALC18oWyTmQTJExsLIlK3EusK18LwA/ZxwpHLMVaaPHW+NG6mPRlWlAY+dPOZ53aWvJYdZC6v8tb7XB1zH5+G3U27AGB97uui2u9LluHq3xERBUthukrs5RwDMM8aVzL28cSeCzhG/qI3wBIoMU2J5B6PxKcXamLSqYc4bjg5gKv+dO3pjP+ZLzVx9TTGs//475TJBuUEkA2DazhVe9bFhD64mCFtYLUBhv3N/BZvFe0o+ecDDtLDt10CsBHyuvHfS8iXcqV8tVtnDjBcAB5g44msRDlWN1R+ydhlPfpEAuk9USbGi6+4y8ZImFkSG6SEc7vKKWf93e7xVfkPCrD+nuoC8xmFfZchSlHfjyPERWG6yuuLoVphaXzJOBZX8Jw9qxwjLlAanvkekPORQVp1g8n/vsCwxL0/Kfrx8UWBNcr6F8cNJ6/sXoV2hJB5ck5MX91MmWwyDoFf2QfZYEp8PvgesANUaLus38SG1mEk7nv0/gRKmqbEe6PPBxw8x7edBdhIqMZefxOv/6coPh18KF8aUV/GUXCtJky9J57j6mOQ1ygn3g/XRPzGcv3WbQbZ7J2cggHiZnr0tCMW7OvjP7fUQbjmEuvl7qZd6CLYU4RQ6iP++lE0pFhoROG5gbQnCi2eqqV+j1I0dsfuE1754xKQsqsBtl60g7q5aygxxVGuTsnuSuSk5PMIJ7nZ7c0RTCNUIC1qeaTNtccPy8b5ucUVcmjpUdbEw74JiAYVCW630e8QYHct7WmB/9EoUX6e/xfoPwKwUeCB/8spMX8hJzbEniPk8+h/CvKLEbNh/SbZrMh5wsl/t9kbfo494Mr8cbY4vfWuUXHgmgLY/yDtKYGn6I9DuwJgG0wedDz/7snXvKhfznNUenzfLEwD81c/+/IXBVO3T4ZfuMSeu8xbZlcxv51oCmD/C2hPCTxFfxxKAeyuIF/zEsEVjtq4zu+L1DfrBRY4DBpyieS37Gvzjv2qULZ6ZCHIuRffav7ZKLimADZFKfodUX0ANka7Cgz/sADrOHEMww98MdzKe6Uhlk/f88DLklfCZkpucQfuAfc6Jme9Tp4619wDHqprGkTb3ZQC2BSlaAcpBbC7gkK4s1k13swMiEU6ACRgubZym63mY4MXlpi7xQRu8xcHsN1tO8njT77UFvKs3shucymATVGKfpcUBVh2uGL3Nf+SPbbJO3b4bnAR/KEI6TgI9IB33XV3yT9HPC9vvDZJvvxyvkyftUJm/rJKPvxsujw86jXp1utktVhZlh7sOeABVq1X28Mjv4N8OeWX+E32AVdtjWAfj+fdTSmATVGKdpAcwC6WfXLahQBb0CcFsA0i5qOyYEQBT4Gw9cHdpUWrbva2g7TMUtsDxL16pp0CaJmye48aG+vw1gpAFgZw+f20s2+wXcYMWOEIuKYANkUp+h0RFXjS9OWyd05HA1feHmEAm99b0orj94OtNykgGCfQngKE/wTZcnM9siseWzQ2Lego+xSWWaPFmwsAVM9+9zQb1NIj7/LiXVt5zbvJ/of1lnlL2FvOuRM2bK6KA9cUwKYoRb8jMoD9YYXsk81bE9zbI/wbFRI33K43/Q8CLL5XNgOb8fMSSStwvYG9C+Gu4rad9PtGh/v8OoBV0M3vJLxFd79DK+wtzoAr7gEYebldUWztlrGXo+fdTSmATVGKdpAAWPfabjaddm89sJcWAgCFPeT4YSHA1rsy1wGwify7pYR8snH4y69PUNm5Nwm7Vzbx3jRnscYs1zjuIhm5h0vrNhXy6Tc/2X6vWK4McHli5gEL2j37BQ7+s7spBbApStEOEgA7ZdpSaZrdzr39IMe9Btx8hIVd5IRhV8SqcL2rcgLwePKAmsi/W0rI58bKrfLAiCclO7edvbGEjVrSWEBgL1IMN6S3Telj3ElOOuUSmbd0rU3gYs9XtkHdFgRcuX1TALAhyEbBlc/uphTApihF9aBEYIMB2Ok/LZVc7dZm5LSzgRnmYTZJbyPZBaUy7NRLrapzb70pAXg8Jcbt+Y9Ec+ctk7PPuVEOOWSgvYIoO6ejAmq4uT3cNPMIOfTwQfL3ax+RL76eZ8AaZcoEAUZBtLbP7qYUwKYoRfWgRGCjIsNrNmyTcW9/Lm+OmyQvvvKFvPbmZOWv5d0J38o3U3+O3V9v+p8DWJ+TINN6ukWRcsmSKvn++4Xy2RezlH82/lR5+Sq3iss/lQiu/nrItX92N6UANkUpagAlVmBIe6W2qTrEW3UhXsTn397RIPqfBFgmVTE8pV14lVsl7/XxpLLwe5BzJ6LhV0TLOdf47tnLpTon/+xuSgFsilLUAEqsuOwBDFVu3lbt1dk7VH1BDTiBEuP1/PsnnxOEt1m2+FcoG1XZftCArl+J5TlKUXnUzMk/u5tSAJuiFKXov4A8FHpK/F43+Sdq4z1NKYBNUYpS9IehZKAa5T1NKYBNUYpS9IehZKAa5T1NKYBNUYpS9IehZKAa5T1NKYBNUYpSlKLdRCmATVGKUpSi3UQpgE1RilKUot1EKYBNUYpSlKLdRCmATVGKUpSi3UIi/z9+6w2TYm7GuAAAAABJRU5ErkJggg==;" vertex="1" parent="1">
          <mxGeometry x="-1220" y="563" width="202.35" height="60" as="geometry" />
        </mxCell>
        <mxCell id="h7jb9lpsqs1myCnT-5GU-12" style="edgeStyle=orthogonalEdgeStyle;rounded=0;orthogonalLoop=1;jettySize=auto;html=1;entryX=0.5;entryY=1;entryDx=0;entryDy=0;fontColor=#FFFFFF;strokeColor=#FFFFFF;strokeWidth=3;" edge="1" parent="1" source="h7jb9lpsqs1myCnT-5GU-8" target="h7jb9lpsqs1myCnT-5GU-9">
          <mxGeometry relative="1" as="geometry" />
        </mxCell>
        <mxCell id="h7jb9lpsqs1myCnT-5GU-8" value="" style="shape=image;verticalLabelPosition=bottom;labelBackgroundColor=default;verticalAlign=top;aspect=fixed;imageAspect=0;image=data:image/png,iVBORw0KGgoAAAANSUhEUgAAAsAAAACsCAYAAAB1hhrnAAAABHNCSVQICAgIfAhkiAAAAAFzUkdCAK7OHOkAAAAEZ0FNQQAAsY8L/GEFAAAACXBIWXMAAA7EAAAOxAGVKw4bAAA9rElEQVR4Xu3dCZgUxfk/8Ld7jr0PFhAPFFFElCuioCKHqKARr3giGEWN/LzA2+jfRBM1akxiPDCPirfGKyKeKIKCogQBxRsvbjxQYe/dubr7X29NrUGFtXe3q2d65vt5nnG7emFlp3uq3qquestwBAIAAAAAyBOm+goAAAAAkBcQAAMAAABAXkEADAAAAAB5BQEwAAAAAOQVBMAAAAAAkFcQAAMAAABAXkEADAAAAAB5BQEwAAAAAOQVBMAAAAAAkFcQAAMAAABAXkEADAAAAAB5BQEwAAAAAOQVBMAAAAAAkFcMR1DHeclJJMipryenrk6+qLaWrG++IXvdOrLXriVbHDvr15P9/ffkVFeT09xMJP4OpVLpl22TI17MME1yDEN0K0wywmGiUIiMaJQoEiGjtJSMigoyKivJ6NJFvsyuXSm03XZkbLUVmVVVRGVlZJSUpP+seFFRERniZwAAAACAd/IvABbBa+rTT8latIiSixeT/dln6eBWBcBOUxNRMikDW1+0BMwiSJYBb0sALIJhc+utKdSrF4X69aPwnnuSKY75+wB+cWKxdMdPdAKtr78mhz8ropNoixfF4/KzUnDGGRTaaSf1NwAAPNDQQPaGDWSLekcORHE9xHUPD1RxGy0UX3ON/AqCeE9k/OKCHJgT8YYrqRQ5jY2q0DonFCKTB+9ckoOOLkNQHkD0Wm4HwCLYtXn09ssvKSkC3tTcuZRcuFA25m7f9KwhAmUOikN9+1Jk6FAK77OPDI7l6HHXrnKUGaCtHH6KISoh7gTK14oVZH30EVnLlpG9fDlZ4rPDjU5rHcKKefMoPHKkKgEA/DJHdKCdjRvli9tpiwemRN3Dg1KpL74g57vv0oHXFtpqHgyqEkEypMWfeIIaJ05UpdZFx42j0nvvVaXWJZ5/nhqOP16VWhceMoTKnntOxipuVHfvLq+/G1Uug/u2yMkA2F61iuKPPUbJOXPksew98puXS78qT68QPS2zWzcye/Sg8PDhFB07lkIDB2LaBLROBLPWBx9Q4oUXKPnf/5K9ejU5GzbIERYe1W2Z0uMWAmAAcKW5mZJvvEGJWbMo9c475Hz1VToIFp1sh0d129BGIwD+sfijj1LD+PGq1LrohAlU9vDDqtS65LPPUt2RR6pS63hgrlxcW6O8XJ1p3cYuXWTb40ZnDfFbTgTAHNzyiFVq/nyKP/44pRYvJrIs9d08YpryUTQHwpGDDqJQ//5k7rCDHD0G4AYnPm0aJWbOlHPcvZrmgwAYALaEO9TJRx6h+IwZclBKPvb2AALgH0MA3HaBzgLB8xNjU6dS7X77Ud2YMdR44YWUWrgwP4NfxiN7X3xBzbfeSvXHHkt1o0bJ0W8AlnjwQYrdcQfZa9Z4FvwCALQqmaSGKVMo8dRTngW/AF4IXgCcSJC1dCk1XXkl1fTsSY2TJ5P17rvpeSS5NMWhI8T7wPOreAEBAh1o0dapDQAAnkDdA1koUAFwaskSqhs7lmpHjqTma6/F6OYvkBPROR0bAAAAAPwg+wPgRIKSc+dS/YknyqkOcg5RfT1Ge12QOYc53QkAAAAA/CCrA2Ae4a2fMIHqDj+cEo8/LoNhcM/o1AkBMAAAAMBPZGUAzMn2Y//4B9UOHEiJJ58kaiUXIGyZ2bkzEQJgAAAAgB/JugA4+dZbVLPvvtR46aVkf/utOgvtYWy3HTbIAAAAAPiJrAmAOYtD0+WXU92BB5L9xRdYNeqB0C67qCMAAADIVUZhodwZ1tXLZZ5e5kSjm/8Zm3t16iT+Ie73HTC6dNn8z9nMS4es2AjDWrmS6g8/XG5mgcDXO5yQOjJmjCpBvmucMoVit92mSt7BRhgAsCWckrO6W7f0luoewkYYP5FKyb0RXAmHZcDsimWR09ysCr/ANMkoLlYFFxobyW0Iyjvfei2zI8DijY3fdx/VDh8u9wBH8Osh0QsLDRigCgAAAJCzOKgVQaKrl9vgl4VCm/8Zm3u1JfhlohOz2Z+zmZcOmQuARfDb9Mc/UsNpp5Hz5ZfqJHgl1L07mVtvrUoAAAAA0CIjAbDz3XfUeOaZ1PyPf6gz4LXwgQeqIwAAAADYlO8BsNPYSPXjx1Ps7ruR11ejyEEHqSMAAAAA2JSvAbC9ciXV/frXlHzlFXUGdOAVnuE99lAlAAAAANiUbwGw09BADaeeSqn580UhAJtacCoPXtHIeXQLCuTkbjkZWwSXRrduZPbsSeauu1KoXz+52CzUvz+F+val0G67kbnzzmRuv306xQenG+G/x5O9i4rIED+LJ6vzz25LupC2MHn+r/h/AwAAAMDP+ZIGzf7qK2qcOJESc+ZkdfDLQSoHtiEObHv1olCPHulgl4PJqioyKyrSwSwHxBwYh0LpQLYF/27i5VgWGbZNDqclicfJaWoiEh0Ap76e7JoacqqriTZuJHv9erLWriV7zRqyV68mR7xPtge73kXGjqXyGTOwCQb8CNKgAYDfkAYNspX2ANhJJqnhhBMowQFZtuCRV5Xaw+zaVTbe0aOOovCwYekgN0N4fnTqo4/IWrCAkq+/Ttb778uAmUQAzZWI2zRxJTfeSIWXXKJKAGkIgAHAbwiAIVvpDYBF8Nt4/vkUu+sumaQ540Tga1ZWUvjggykqXqGBAynUu7f8IGUjDojtdevk6HDq448ptXChfNlr1245GBa/Y6UInHlqBsCmEAADgN8QAEO20hoAx26/nRrPPVeVMoRHe6NROSe38NRTqfD//o+Mzp3VNwPIsshaupTijz1GiZkzyf7mGzm1gs/z1Amel9zpk0/UHwb4HwTAAOA3BMA+4RiAnxS7weuQRFzkSht+rsPrptqwyQZPD3W9Eqqtm2y4oC0Att5+m+rGjpXzXDNGXODoEUdQwcknU2TYsPQ+1TmEtye0Pv+crHffpeSrr1Jy9mwqnDyZii67TP0JgP9BAAwAfkMA7A/OrtV0zTWq1LrI6NFUfMUVqtS65JtvUpPLPxvu25eK//Y31zvC1R95JNku7wtuZ7ymJQDmx/Y1/fp5fsO7xW8+N8jF115L4UGD1Nk80NJL40wTAD+BABgA/IYA2B/xRx+lhvHjVal10QkTqOzhh1Wpdclnn6U6Eai6Ed5nHyqfNSud/cqFjV26kLNhgyq1rrOGsVotadCaReCZkeDXMCi8335UOmMGlU+fnl/BL+PAF8EvAAAAQKs8D4ATzz+f3uXNZ2bnzlT0+9/L3kd0zBiioiL1HQAAAACA//E0ALY++4waJ01KT5r2UXjAADnqW3z99Vmb0QEAAAAAsoOnAXDs5ptlVgLfhMMyq0PFO+9QZPhwdRIAAAAAYMs8C4BTS5ZQ/MEHya+d3nikt2TqVCq+6ab0jmwAAAAAAC54EgA7DQ3UeNZZcuMGP/BubSW33kqFkya5TrcBAAAAAMA8CYB54Rtv2+sH3sSibOZMik6cKLM+AAAAAAC0RYcDYCeZpNitt5KTSKgz+hhlZVTyz39SeOhQMkxPpy8DAAAAQJ7ocBSZePhhSr31lirpYxQVUek991DBhAnqDAAAAABA23VoJzinuprq9t6bUp9/rs5oYhhUeOmlVHLttek9rAE2JxYjp65ObsJi19en56Q3N8uvtvhqJJP/S9HHe5ZHIuQUFJDJqfOKi+XCSn7KYFRUpF85lksaO8FlEXEfOny/intTvpqa0veqePGOjvIrf593d0yliGxb/jW5134oRAbXg2rjG7n3vvrK96xMBcn3cmlp+nuYKqaXaELlNRT1jqx/eHcycT35mtpcB/E15LpHXUNetG1EozJXvaxz+Ku4VqTqHl7jQqJuyhXYCc4f9tq1lFq4UJVaZ/boQeEhQ1SpdfZXX1HqzTdV6RdUVVGU2wKXcVrimWfEf9zNHoged5w68k6HAuDE9Oly6z3d0x+ixxxDpf/+NxnY5Qw2YYvKz3r7bUq99holX3+drNWriTjw5fuRGxwRODgcPPAt3vLaFAcGLS/OJCI+tBwUk2icuEEK7bQThYcNo+iBB1J4zz0Dv7kKAuAM4OCouppSn35K1scfk/XJJ2QvW0bWl1+Ss3Hj/wJcda8aHBiLl6iYyWkJmH5y3xrifpVnfnL/cmAsG56W+1jcr+bWW1N4110ptMceFNprLwr36+d6m1LYMufbbykh6pwUvxYvlkGC7LRwvdNS97RcR75+P7mGLdeNp/I5fO34eqm6xxRBRHj33Sk8YgSFDzqIwr17BzrTEQJgyFYdCoDrjziCEs89p0p6mOLDXzF/PplbbaXOQF4SwYAtAlzro48ouWiRDHpT770nR1x+1rhowDsNhgcPpogI9DiQCIlAgoOLIEEArIG49+yaGnLWr5c50B0RCFkrV5K1fDnZn38uj+3vv0+PAmYaB1zFxWTuvDNFRIcuNGgQmX36yADZ7N49HZTBz3AAZ3/2mVzonVywgJJvvCGvrQx4dRMBsrnDDhTZd18KDx9OIXHdwrvtJp9UBQUCYMhW7Q6ArS++oBrRS5W9XY3KHnmEoieeqEqQd0Tgm3j5ZYrfcgul3nmHbK5EeYTXh6B3sziI4JE1DojHjKHCCy+UozVBoCsALn/hBTlSnnE8cs+P/DVzvvsu3QkTHfOkeDnr1qUfgcdi6ekLPM0mU/dnW/B0Cn6/RDDFo4zRU06hwvHjsY28wlMY4vfeK7f2t9esIae+Pj2FKlPXlkeKRdDHnZUC0SYWnn02GVVV6pvZS1cAzNPWqr7+WhUyjKcbic8TBEv7AmDxVxrPOINi99yjTmggAo0C8f8oveMOeQx5JJWi1NKl8ulC/LHHyBadrawNKAoKKLLffnJxZmTsWDJFRZ+tdAXAcmpSFlT+hRdfTMVXX61KHeds2EApce/ZPJr7ySeU+uAD+QTCEsFQVozoasBzUKOjR1Pk0EMpIr7KkeF8IoLexNy5lHjqKUo8+yw5PHqfjbgjzvMtRZ0TPfZYea386Py1h7YAmN+DLPmdKz/9lMztt1clCIp2BcD2l19S7bBhZK9apc54j+dflomKKLTDDuoM5AMOLjhQS86eLRcFBWIkjStinqPXuTOVXHON7LhlI10BcLYovvlmKjrvPFVqO55zy9NsOPBJPv00pTi3ubgHOdVjRkf+/MYDDvzovbKSCiZOpML/9//kvNScJq5t4tVXqenCC+U8bflkMyh1TyRC5u67U8mdd1LE5cImP2kLgLOFuAZVop7AGqXgadewTerdd8n55htV0oM3ugihR5UfREPDC4SaLr6YagcNoiSvDG1qCk7AIf6dvICJ54E2nHkm1Q4fTokZM9KLm8A35jbbqKP2ab7ySqrp3Zuazj+fkvPmpRepcSeMr2NQ7kUv8O8qAn57wwZqvukmqh04kJr+8AeyVqxQfyB38OeWA9/6o4+mhrFj0xs6ZXKKVVtx3SP+vZZok+tHjqSGk0+Wi/LAR4WFCH4Dql0BcPK552SvThdeXFQkgiE5EgE5L37PPVQrKm9ubPmxc6DZtkwZ0zBuHNUddRQ5NTXqG6BbqIOP6+X8cnRafkwEWPa6ddR83XVUN2QIxe68Mz0angtE54a38G847DCZjklnm+YHnoMef/hhqhs1iprE9dK9PgfSkFUluNocAMuFATy6pauHHA5T8V/+knM5WOHnrPfek5lEGiZNSs+1C8qoyy9RozLJmTOpduhQij/6KBojH2AOnkYcCIvOaeO551Ld4YenRxkD+nnlRYr8mazZc0+K3313epQ/l+qexkaKXXVV+jr5sElVvpN5myGQ2hwAJ196SeZA1CXUsydFDj5YlSBXxR9/nGoHD06n0cuVxuenxO9lLVsmH0s2iU4daMRzVrfbThVAm1SKki++SHWjR8u2IHDEv7/50ktl/nr+bOYqntqRnDWL6kRbyplKQB9eOArB1LYAWDTocjRLo+hhh5G57baqBLmGd0lquvpqmUVELi7KB9zoXnMNNUyYIOeVgvdkXlSkIfINL2iqO+YYahafZZn+LQA4dWf98cdT8623qjO5j69T/aGHpqeX5WjmkkwzO3VSRxA0bcoCYYvGm+eBcZJ3LSIRqly1ikIIgHMSP2psPP107Z2obBbeZx8qe/FFucLeb7mcBYI3C+jEOwF2QMPkyRSfOlWVwBXR6eD0cyX8hMPl9qeZwE8ta0eMIOvTT9WZ/MJZagovu4yK//xn33eVy/UsENETTqCyxx5TpcxJvfEGxW6+WZVaFxo+3HXGHJ7uFPvrX1WpdbxxWdEf/+h6Cmvjqaem82u7UPrkk+rIO20KgDkHZu1++2m7kQvGj5dbHkPusdevp8ZJkyj5wgvpjQLyWGTUKHmfdzRrQVvlcgAcHjiQKt59V5XaBwFwO4kgmBvToixdu5FasIDqJ06Uu7flNb5Ol1ySzpUdjaqT+uV6AMwbkpTcfrsqZQ4PLPHUHjeiEyZQ2cMPq1Lrks8+S3VHHqlKreMBnvJZs1wvDNzYpYvrhe+dNUyVbNMzQ3vFivTWsxoY4TBFRW8Acg/PR+PgSyaWz/PglyXnzqX6E04gCsij40DIwIg6KLYtpxXEH3hAfNizaz6//fXXcg5+3ge/TFyn2N//TjHeXEocgzeMzp3VEQRNmwLgOG9OoKmCM7baikK9e6sS5Ap+vNEgOjbJ6dPVGWC8jW6D6BTk6o5ifuOtqSGDRMe28cIL04tas4T12WdUd8AB+qbsBRAPQHC+dZn9Iss6K0Fldu2qjiBo2hQAp159VR15z9xppw7n8YTs0/yXv1Di4Ycx8rsZnP84xg0RRmM6DKMwWaC5mZouu4xszZskuSI6lo2TJ6d3dYMf4cXHjZdfjlFxj5hbbaWOIGhcB8D2t99qXUBQcPzx4l+DVdy5hOckxbJgblTWEoFv0yWXyI1loGPMbt3UEWQSB5ycZiyjUyFE8Ft/2mmUnDNHnYCf4mw09YcfTvbateoMtJeBuiewXEec1qJFpGuXJDn/95hjVAlyAW+X3cCpzhoa1BnYHM6M0fynP+F96iDkAM4SIvCNPfSQnO+fKbF77qHEI49gnusv4Ckizddei/epg3jnWggm1wFwQuOOMqF+/ZD7N5eIRrDpiiuImprUiQwwTTI6daJQnz4UGTaMooceStGjjpKvyK9/TZH99qPQLrukV6tm+MlD6v33ZRAM7Zezu8DxdvB8f3LqKv4akO3hOdsI70jmN7lt8/XXq1KGRCJyVDA0YACF999f5raP/uY3FD3iCIqMHk3hIUNk2j6ZMSPD1zP+2GOUfO01VYI2E9cPsUtwuUuDJv4Ib6vIKax0KLrgAiq+6SZVgkCzbWq+4YZ0AOwXDnYrKuQoYHjPPeVOgpF99yVDVEzGL6T74ST+nN0k9frrlJg1i6wPPpArxzOxPWr5nDkUOfBAVfJeLqdBq/zwQwr17atK7aM1DZpoKA0RGFFhIRklJT98Nbt0kenwOIDnhtTYems5n9msqpKbexjFxen8uvz3+X5MpcgWgSVn4+HH2Dzf1l6zRi70slauJEeU+Xs2p5zK4Ba//LuWzZ5NkZEj1Rn9OOCuHTWKLN6m2Sf8e8rrteOOFBk+nMIHHECRvfYiEp1vzr3bGqemRqYWTcydS6mXXyZL1EM81dDvbdN5DmvlsmVkiHtOh1xOg2Z0705VWTKNBGnQ2s5VAMyPZ+tExZJaskSd8ZAIXjgnasG4ceoEBFlq0SKqO+gg18mtO0QEBbx1dsEZZ8iRFXPnnTu2wYT4KHDC/BQ3StOnU/yhh/z5PRQeKSp76ik5gqRDzgbAog6pEo2rUVqqTrSPjgDYKCigyNFHU3joUAqJIIkDXn4ywR02GeCKQNizjQksKx38fvcd2V99RdbSpZR48UVKvfkmORl4GhMSgWDFW2+RwSPXPohNm0ZNZ58t0y5qJzolkREjqGDiRAoPHiwDYHkt24kXpjmiI5N67z35eyQ545KPC4eLb7xR5gjWIZcD4Ohxx1HZE0+oUmYhAG47VzUT37i6bl5utEI9eqgSBF1MBBC657PyyIop7hmutHnkouiyy+TIb4d3V+NRNlFRRw44QCY2rxA/u0BUFPLDLL6nG49AJ30cvcoV4d69Oxz8alNSQkUXX0xF554rOzjcQIR23VXOG5QjwV7uyiV+lpz2I96PyP77U+EFF1D5yy9T5SefyN3aQr16pUeTfWItWUKWxqlzm+IAP8bb/eoOfkWHJvyrX8mOavkrr1DBb38rp1l1JPhlPJLMHfio6CyVz5xJFa++KkeUf+kJllc4Iw22Sm67sOgEQXC5GgG2RCDAI8C8m5fX+LF1+WuvUUh8+CHYkvPnU/2YMXJagTamSUUXXURFF14oHxdrl0zKx5SNIoBIigZPN/4cVHz4YYcb1M3RNQLMI0cc1GWKscMOFB09WpXaT8sIcFUVlc+eTeFBg9SZzOGR4dS8edT0hz+QxSmwNIyo/BTfG0V//avoP+rtQDaedRbF7rxT6+9kis5Fsfj88DoC2XnRjAcSkny9zjmHrDVr1FlNxPUpuuIKKr7mGnXCO9pGgEVnpDTDWYZ4PUm2zAHmqXy8yZIb3BkOu5yexFOs5BMJF3g6TeSQQ1w/xYzzKLTLjlfB6aerI++4CoB5L+ja/ffXsqiJG075mKyiQp2BIOIRmDrxgdIyTUbheZIlt9wiF5T4jSvvBtHIJp9+Oj0/WKNy8f+IuHzk1Ba6AuAK0Ui7rUyzWa4HwC14njDfy4mXXtK+G2F4332pghtlEazoYr3/PtWI/4+2RbciOAzvvbd81J2JxZbcAW845RRKLV0q11jowqPQlcuXe/476gqAuRNShew50AHupkDU1GirKA2eE+dyvghkr+Trr8uKWhd+UsCPHXn0JRO4g1b24INylES3+JNPqiMA7/GTk9LHHqNizjyieUoEB6e2pu3zW/DcR7ngTwcR/EZFZ7Rs+vSMZRrhxZ3ciYoee6w6owfPQ07MmKFKALnPVQBs8SpHTT1P+ejUh/mVoFdcBIe6RkZ5gQnPiwvz6upM3isiWCi6/HI551jHFIUWPDKHvMCgEy/Ok9MTRIeOj3XhzAzJ559XJQ2amtKPUTVNfeD0iaWibsv0Y26e213yr3/JEXWddWDimWfUEUDucxUA69wtJtynjzqCoOKE6kldIweiceaR11D//upEhvEc5L/8hQomTVInvMerYmO33KJKAJrwvXzllRSdOFGd0CPmcrV5ezTfeivZX36pSt7i/PQl990ns3VkA7NzZyp/7jmZR1gXzhiC3eEgX7ibAqFxb3ezZ091BIHkOHI3IS0L39Qih/Dw4Vn1lIDTOvHImbnLLuqMx8R7Grv55oykroL8wvdy8eWXy8UrulgiqNIxP9eurqbYXXdpGf3l3MycntPs2lWdyQ6cc7j4uuuIeBMNDXi+bjP/fIA84G4EmJNza5KpeVXgDd40wu0K0bbizSwKXOY19BsHDOXTp2sbHbK//17mVAbQjVMKlkybpq2TyUEVPyXyGi/O1jU4U3juuRTu10+Vsktk1Cgq4WwNmq5X7IEHZD5pgFznLgD+7jt15D1sIxhsvDLZdpnIui140VnxP/+pbaTDC+buu8s8wbqk3nhDHQHoxdv0yvmlmugIgJMzZ2p58sSblhRedJH4gLtqHv0nAt+Cc86h8MCB6oTHmpvTGScAcpy7TzhngdCEs0CAICry+uOPp7rDDvP8lVq4UP1PvCe3x/Y6+byo4IvOO08mnM9mvCFHwVlnyX+vDkmfNhEAYAUaUu+1sFevVkfekRkLPJ7+YIgOd8lNN2ldGOgFXoQbPekkVfKe9e676gggd7nKA1zTsydZq1apkoeiUersMglyruNV/9Xdu2vZca9MNBRa0oclElQt7g3edtVL/FSgfO5cuaNVEPD2kzIVk8dC229PlR4mwEce4NblSx7gLZH53jUtsCo8/3wq4Sc6HkmJ+qH2wAM9D4B59Jd3z/Njo4uOcr7/nqr79HG9lWxbREWdVvbvf6tSxyAPMGQrd1MgNN1kRnGxOoIgSr72mpwD7DVuhHhb0KDgrBA6tizl1e3WJ5+oEoBe/MRF15x2r4O0GM9Z1rD4rfD00wMR/DJ+elokOm068DbWALnO3RQIXbsFZfljJmhdjEcIvG6ETJMKL7hATi8ICh6xDg0YoErecWybEk89pUoAmkUiWnYgZF6O/vHP4m3XvcaLAbN10e2WRH/7WzIqK1XJO9aKFVrX/gBkA3cBcCKhDrxlaN6FCPRx6uvJ0pClgHNvcvaHIOH5giFN85WTzz2njgD0i/I+/hp4ubGLtXq1liwFhaedJv6jb4MbHTgbTWj33VXJQ6kUpV55RRUAcpOrANixLHXksWxdZQu/iJOlOxs3qpJHDIOixx0nvwZNZMQIdeQtXo3Nc+gA/BDee28tnz8vszXYq1bJHea8ZJSWUuTgg1UpOHi6RrhvX1Xylo5RdoBs4i4C1bQNsrafC9rZ69aRU12tSt7gOeG6Akndwvvtp468xcGv4/EiQ4AtMbt1I6O8XJU85GEnTubH9nhQxuzenUI77qhKASI6KyFNCxeTr7+ujgByk6sAWNt8TF0jy6Bd6oMPyEkmVckbvMtRIBshgf/dhqbdtKz169URgGamqWVOqZdPEVMa0gOGevUKbEpOXeki5SAHdqOEHOZuBFjTXF1H09xi0M/iROkeL4DjbUeN7bZTpYARgUOUHx9r4GAxCvhF3MemhhFgw8OnfTo2aZBp/AK08HZTod12kyPBnkulsBAOcpq7EWBdCwOam9UBBI2OROk8jSBI2R9+yuzfXx15y+upJgBbxIFUFu++aC1f7v3aAyGoU68YzwM2dQwciE4L6h7IZa4CYEdThcgLIxyvdxED7XjkPqUhP23QN1MwNW3cYWvciRHgRzgA1pDT2ivW4sWiAvL2yRNncQnvuacqBRNP4fAaT1txUPdADnMVAOt4JCZxRaahNw962byvv9fzt0XDGxk8WBWCKdS9uzrymIbdAQE2x+AAOIufwvDaA6/JKQQBfvLEjG22UUfeMUT77GX6OoBs424KREWFOvKe/e236giCIvXxx+rIO7zy3Nx+e1UKJrNzZ3XkLTRC4Ccji9NTWh9+qI68E+rTRx0Fl1lVpY68wxvxYJoi5DJ3I8CaGnZmI8VT4NgrV6oj74QCtPXxFmnaQhUrsQEEy5L5x71m7rSTOgouTiHpOR4B1rULLEAWMBxBHW9Rw8SJFH/gAVXyVuldd1HBGWeoUv7iUb7q7t093TK0RdmMGRQ96ihV6rjGM8+k2J13qpI3QqIRinj4b8wEvnbxe+5RJe8U/t//Uckdd6hS+zVOmUKx225TJe9UzJsX+PnbrGHyZIpPnapK3jCqqqh89mwKDxqkzmS5RILqDjmEknPnqhPeCA8YQBXvvadK7cPzUWv23js9BctDkQMO0LaTo19Sb77peXo4XpBcPG0aFZ56qjrTPpzLvLpbN8/bNl78V4WnY9ABrgLg5ssvp6YbblAlbxX+/vdUoulnB0mQAuC6ww6j5AsvqBLoVnD66VR6992q1H4IgFuHAFjI4gCY89LWDhtG9urV6gxoZZrpASpR/3QEAmDIVu7mAGvMzWp//rk6gkDglcEagnQAgNY4PB/V4813oHUuxscAAsvdHOAePUQUrCHRtmCtWOH5jmKgj5wT5uG2puBCFi9KAvALz4XH5kn+yuYFkQAd5W4EmLeI1JUbsr4eybYDhBsgNEL+MjTtxAgQKFzvIG+8f7I8JR5AR7kbAS4rI6O0VJW8ZTc0kLNhgypB1uMGCI2QvyIRdQCQv2TH2+v849A6dL4hh7l7vsEBsKbNMJz6euQCDhIEwL7jnaoA8h5PlUMA7B/DIAOdb8hh7kaAKyrkS4vmZrKXL1cFyHqcHJ1f4B8dOT4BgkbUO3JzBvAHT4EoLFQFgNzjbg5weXl6HrAOjkOpRYtUAbIerwrGymBfcbofgLzHwS/qHv/wCDACYMhh7qZAmCaF+vdXBe8l589XR5D1EAD7Ttf8e4BAEfWOnlxEsDkyAwSePkEOcxcAC+F99lFH3rOWLSNr1SpVgqxmGITw118YAQYQ+JE8+EcEwOh8Qy5zHQBH9t1XXwUkevaJGTNUAbIaPxZDbkhf6VqAChAoot5xEAT7ht9rE3UP5DDXkYy5/fbpDTE0ST7zDFb4BgHnhURuSF8hAAYQuN5B59s3Br/fqHsgh7WpNomMGqWOvGctX072N9+oEmQruSkDAmBfmZ06qSOA/MUpuWRQBv4Q77VRWakKALmnbQHwQQeJWkjPIyjOBWx98okqQdbiRkjXroCwWUZVlToCyGNc72BjBt/wU1/sQgm5rE0BcLhvX32T4pNJSjz5pCpA1hKNkIPk6L4yOndWRwD5S6bkQkDmm/Duu6sjgNzUpgDY2GYbMnU1xrwQ7vHHyca2yFmNdyUzi4pUCXTjzxtWYgMIot7B0yf/hPr2VUcAualNAbDZtSuZvXqpkvfs6mqK33+/KkFW4tQ4GJH0jTlwoDoCyG8G56RFAOyb8IAB6gggNxmOoI5diT/wADVMnKhK3gsPGkTlc+aQkWcLf5yGBqru3p2c2lp1xjtlM2ZQ9KijVKnjGi+4gGI336xK3okefbS+JwwBFR45kgomTFCljmmcMoVit92mSt6pmDdP/juDrmHyZIpPnapK3uD52+WzZ8t6LRASCao75BBKzp2rTniDg6mK995TpfbhOrJ2yBCZN95LRlkZFYwbp0rQoujPfyZzm21Uqf2ceJyqu3XzvG3j/OhV4p4AaK82B8BOczNVd+lCTlOTOuMtnudV9tJLFMmBBrUtghQAx265hRrPP1+VvCP/nUceqUogebjoFAFw6xAAC1kcAPM0uRoOgJcsUSe8wW2ODKSQYu3HPKp7EABDtmrzJ94oKqLI4YerkvecWIyab7ghve87ZKXQLruoI28lFy5MV7p4/e8FAGni86Cj7uE2J/Xhhz//7OX7CyDHtavLKx8XaczHmHzpJUqIF2Qnc7fd1JG3Uq+9Jkd5AAA2J9S/vzryVmr+fHUEAPmiXQEwP84yt95alfSI3XQTOfX1qgTZxNxhBy27kznr15P99deqBADwY5E99lBH3krMm4fON0CeaVcAbO60E4U1VUQtkq+9Rqn//leVIJvwbkwhDTkinY0byV6zRpUAAH4sNHiwlsfz9mefkVNdrUoAkA/aPeu/8NJLxd9u91//ZakUNZx1FtlffaVOQDbR0QGy6+sptXSpKgEA/BhniTF33FGVvGN/+aV8AUD+aHcEGxk+nMJ77611sry9YgU1iUDbsSx1BrJFeMgQ76+9bVN8+nRVAAD4uQi3Ox7j0d/kggWqBAD5oENDuIWcD1jjYjiWeO45sjxOyQMdF+rVS6ah8VrqjTfIXrVKlQAAfiw8dKj3nW/Hofh996kCAOSDDgXAkTFjtO8K5tTVUe0xx5C9bp06A9nA7N5dz2Yl8TjF7r5bFSAIbDyhAR+F+vUTjU9ElbyTeustSi1erEqQ7fBkGDqqQwEwz8Uq/N3vVEkjEQQ3nHYa2eIrZAdzu+1kEKxD4umnyfn2W1WCrBeLqQMA/UKi3eHd23Ro/vvfiRBYBUMiIafNAbRXh1exFV95pQyGdEvOmUPNPB84HldnIKMiEYoeeqgqeMv67LP0phjgLU3z9XXsXgiwJeb225O51Vaq5C05BQtPGz1l6FonJIJfpEqFjuhwAEzRKBWed572ucA8Ryt2113UfNVVePSRJaK6NkRJJqnpT3+S0yHAQxoeGzP7m2/UEYAPwmGKHn+8KniL7+XY/ferEnjB4WxRmoJgG08KoQM6HgALBaIy0r0xhiSC4OZ//IPi995LjgiSILN4IVx4zz1VyVvW0qXU/K9/qRJ4wSwoUEfesleuVEcA/ig4/XQydHTobJti110nn0KBNzhvvLanT2vXqiOAtvMkADZ79KCiq6/WdpP/SCpFjWefTc08QoiR4IyLjh+v7brHbr6ZLDyO9E5FhTrwlr18OTqk4KvQ9ttTeMQIVfKWk0hQ48UXk9PYqM5Ah4j2wdSwcyhLffSROgJoO08CYFZ42mkUGTbMtyC4+YYb0pUUFsZlVHT4cC3p0BjvChfjKS+82AE6TFfGFt5AAPOAwW8FRx8tWjDPmrAfSc2aRYlnn1Ul6CijSxd15K3Ue+/JJ8MA7eFp7SF3h9M0z/Bn+FHVLbdQwymnkFNTo06C38w+feSiFF1iDzwgrzNW+3acue226shb1qpV5Hz/vSoB+CM0bBgZmp5qyFHgc8/Fdvwe4RF7HayPP8ZIPbSbpwFw5NBD0wuj/BgFZqLnxymzakQQlnjpJfQEM8AoLqbCiy7Sd80ti5qvu46SL76oTkB7hXbaSR15i0d/ky+8oEoA/gj360fhwYNVyXvOxo3UeM45ZK9erc5Ae5k776yOvGV/9BHZX32lSgBt42kAbJgmlU6dSuFBg9QZf9jr11Pj+PHUOGUK2dXV6iz4pfCkkyi0yy6q5D0e4a8/5RRKzJypzkB7mD176lk4JDTffDPyAYO/RHtTdP31omenLwNR6t13qf7oo8lCENwhob591ZG37Pp6iomYA6A9PJ9AxQnKi666SmultDkc+MZuv53qR4+mJG+d3NysvgPaFRRQwe9+l17tq4mzYQM1nnEGJWbPztk0ePx7WWvWUPyee8j57jt11jtGNErGNtuokrc4d2r8oYdUCcAfkUGDKHLAAfqeQDkOpd55h+rHjcvpLdod0XnlBWVc9+gQ2mMPPddIXJ/YHXeQ9ckn6gSAe1pWEEQOOYQKJk/WVyltCVdWb79N9YcdJissrrjAH9GjjiKjqkqV9OBHXQ3HHUdx3q0pl+YE83377rvUdOaZVDdqFDVeeKG2BWshTY8iWbPogOIJDPitYOJE7QMu1ltvUd2YMbIDnkt4Yyle7NdwzDGy7ok9+KD6jrfCffuSUVSkSh7jvPHXXousUNBmWgJgfsxactNNFBWBcCY4TU3yQ127777UcNJJlJw3DzvGaMZTIApEAKe708PzTRuvuILqTz5ZLoAIKm54eMQldu+9VHvggVS7114Uu/tuslesSOfU1rS6PbT77tqukfX++9R00UVYlAK+ih5+OIV2202VNBGdVOvzz2UHvPnGGwO9+QvXoSkR0DeLoLF24ECqP+ooOb2MnzqFNG1vz4vjzd69VcF7yenTKfHUU/I6Abilp5UVePvDYhEE69qz3ZVEguKPPEL1ooKsPeAAit15J9KmaVR0+eVk7rqrKmkkevoJcV15RKbpmmsCFXDZopGJ/etfcqpOnbgnGydNohRP2dlk9MLU1QgJoX799HVSROMTf+ABahIdFGTtAL9wG1PKu7dFo+qMPhw8Nol6ru7ggynBC3ODcp9zAP/pp9T4+99T7bBhVHfIIdR05ZXy3KZBo9a6Z8AAdeQ9nsLRcNpplHjySXUG4JdpC4BZqE8fKn/5ZW05AF0RH26noYGsJUuo8ayzZMaIxvPOk1kFrBUrkMDfQ/yIq+iCC8gIh9UZjcR15fyzzaISr917b4o/+CBZ2bYjmQhqedpGcsECOT2gTnTEqnv2lCvLk/Pnk8PbeG7msZ2x3XbqyHv8mdSaqpDTE4rftemyy8j++mt1UjPxGcZK/fzGC68LfvtbfZ27TYl7nJ921I8dK0dPk7NmyTUK2YQDQm7fknPmyE2jakQdWdO/P8VuvJGsDz9Mpw7dJPBtoTMADvM8YI24nW84+2xKPPwwUVOTOqsXD6hxOwTBpDUAZuF99qFi3rUtG3DQJBrl2G23Ud3RR1PdyJFUN3q0TLPFczC5IfWTXPQkKqnEf/4jAwaeuhF0BePHa+3pb4710Uey98/Xs+GEE2RwubnK3Rc8teGdd+RGLfW//rUcbeGvTVOmUPL554lcjFaHe/RQR94Li0bQ0LQl8g94o5q//53qDz2UkhrTE9qiA9E8dSrVjhpFDZMmqbOQr4p47rymTXk2S9zXCfGZ5iC4dsQIWYdncgtlmY5w9mxquvjidNsmXvVHHklNV19N1uLFrto3nTndw7/6lTrSh/OR159+OtWfdJJcmKsFd4BEm8NPuuqGDkUWigAzHEEd6yP+F03XXy/3WM/ax9WGQcZWW8nckpyyJdS7N5nbbScXI5mdOhGVl5NRWkpGYaH4JIeJF11w2reWEQeHH4WJlyGCWjmq3NxMtuiRUn19upe4caN8/O2I3qL1xRfyxVvI2jxysJlRQC+VzZghF6n5hTdGqB0+nJxMbWMsrktohx0ovP/+FBEVlNmrV/padutGpriGHVkww3N3eaSBqqvl9eQgzF67llIffyxHVmRidnGtOxL0lU6bJrNq6NIwbhzFH39clTQTn4+ICFALJkygkGgAea44f45cj9SJzxS/3/K95h3nVq+mpOhgpBYskKNwPNLFOBNA+SuvyOP2apg8meIeN2a8MLRcBCV+p4Zst0RCPh6XmXQ8FBad4gretUuz2P33y8Wk/DnNBM60YorfNSrqHs58wLm3eQMas0sXcoqKxG3fzhFqrk/EvW6LIJfbDA70eB6yvXIlWcuWyQEcblM6OvJZsXSptkCVF8hW8wizXwM9nJ3o+ONl2xcSHX9uE/icW9yOc9vtrF8v63hLtNepJUvkAAuv1eC6ifEAn8x8BYHjTwDMRJDHc454tDUQOLgVgS5XaPKRsXjJR/viA8SjDD8EwmqxkpNKkcGPYvnDzY2yaEj4HI+GyZ43v8SxDJR9estb+B0As9hdd1HTOeek34NM4usjrhVPz5DXTQTBoZ49ZTYEc5tt5PQcuU89X0/u1IjrY/PWy+I6yo6LaGw4z7Tz9dcyF6jNO56JRkhuz8zBsHgZLdfVI+WzZlFkzBhV8p4lGssaDsh8vA9liryyMjIqK+U0DH4cKq/B1lvLwEAGxBy0bBLs8pQWbmjkVAq+HpzaUHy2ZBq8n/zbo8ceS2X/+Y8qtQ8CYCHgATDfF7zwmdd+ZBTfz1yf8L3NdY+49zkQDnFnvEcPCnHdI+4NuUaG2xeup7ge4XaDF2yLl/wccN2zbh1Z4sUda/5eS93zQxvj4ee4k6jvTI3ZfBrOOIPid9+tSj4Q14EX5Rs8gNW1azoQHjiQQuIa8OCWfBrG7x93Lmpq5LQ0HjnmYJc7F1zfy3pHvGSniv/sT97vElFnFIq2DoLHvwBY4Buo6ZJLKDZtWjpIBF9kIgDmSkMuSuCRRv9usZxQuWxZeq6uRrWDB8vRjFxROGkSldx5pyq1DwJgIegBsMDTEHhqm71mjToDbnCA3knzfFbOpVzNm2L4NQrsgzLRxkWPP16VIEjSw5c+4d4Wp0fjuVqQ23jko+yhhygyfLg6A64YBoV23FEV9ImeeKI6yg3mVlupI8h3PH2tYsGCzC6+DqDIiBHqSB9T1G3RUaNUKTeg7gkuXwNgKRym4quvpuK//Y0MnlsLuUtc65JbbtG6sCLXyDRlPB1Ds4Ijjkg/es0Runa4g2DiOf8lt96aU/e4brxmwg+51vnmtUMQTP4HwCwUoqKLLqLSO+6QQRLkLl74VLlwoZxvC78s6sMoDOOFgUVTpqhS8OH+gp8qGDcuPS2mA4te84ncUtoHBcccIzsoucLs1k0dQdBkJgBmhiHnzZS/9JLMugC5y9h2Wyp94AEyu3ZVZ2BLQj5OGSm65hrtc439kksNKnhEtDEFJ59MxeI+9yU3eZBVVMgFer4oLKTSJ55IZ4MJOLmIEU+yAytzAbASOfBAqnzrLQpz75NXzkJOioweTRVLluBRdWtMkyI+PYZkPE+78JJLVCnYMM0GNoezj/AOlSUPPSSzAcDmcUYWP9tfTk8pNy4JOM55L9OhQiBlx5UrKaHyZ5+Vc4N51TTkJnOHHaj86acpvNde6OxshsxV7POoSMGJJ8oUYkG+HvyeYSEKtKbghBOo+M470b5sgQyAfVYkOt8hjTvP+UG2ZRBYWdN14RytRX/4A1XMn0/mTjups5BrwkOGUPkbb1Bk5Eh1BlpwflC/58TLbB1PPKF9m1Kd5MJBzPOE1ogOXuGpp8rsEHha8HO+TX/YhNmzJ5XyTpF+7t7nsfDgweoIgijrxu5Du+9OFYsWUcl118nE1ZB7OB1e6dNPU9Ff/4pURZvgXaMy8phWBAcl06bJTSmCiDtVAG6Edt2VyufOpehJJxHxJkcgceq4TAiL9r70llvEPyCAHVhRb4aHDlUFCKKsnLxidu5MhZdfTpVLl1L04IPTqWzwyDynmBUVVHzppVQ+c6bcladlR718xpkZMvU+8EYN5fPmBTIIDu+9tzoC+GX8uL/0/vtlTnpqy7bcOYy3KM8I8d4XnH46ld5+e+A6JPzUmncVheDK6qiD50SWzphBpY8+mk7RgsecOYcfIZUvWkTFV12V91kiwvwoP4N4dIw/a4GagiQ6DBgBhrbixXG8fW3lggVUeMop6S3v85UIQvmzn0kFZ5xBxTfeSIYPOdC9wjvnQbBl/bAbz1HkvIHlL78s9/qXc5V4niR67b+MRxPF+5ftyeB5AVPRlVfKrVKjY8em92fPp+srflf+neVc1gzjLBSVb79NIZ4THIBrwIuakIcT2ivUvz+V3HefbF/kNIB8a1tEG8HBb8anool/R9F551HZzJnpjSUCcA3MgC/gA3EN1dfsJz4g0d/8hipE41z+1FMUPfro/O61t0b0onnEvGTqVKpcvJiihxyivpHdeDODsqefpvI5c6jgd79L51jMZRz4du1KhZMnU/krr2RkJfbmGJWVMj938Z//nPW7NXJmEaS3go4Kjxwp156UPf44hUeNyv28wRz4ig53yY03Utlzz6mTmRcR733F3LlUcNxxWf+55roHgi04AbBilJdT5PDDqezJJ6niww8pOm5c+tF5PjeCoZB8X3geV9Gll1LlBx/IgKrwrLPSm4wEaeqIaHjCw4ZR6V13UaW4vgUnnZQeEciVBomDXp471qsXldxwA3VasUJuFx3ebz/ZKGULOSr/xz/KQDg8cGB6VD4LyfnjuR6sgC+Migo5sFIh6s6y2bMpMmKEPJdNn8sOEb8Hd2h5znypCPT5iVvhRRdlJANEa3ghfMm//03FU6empxlkafuVbe8btJ3hCOo4mGyb7FWrKPnmm5R45hlKisrLqalR38xhHEh160aR4cPlZiLhX/2KQrvtJgPhXMK3p71yJaUWLKDE9OmUnDOHnIYG9d3g4NEMHnGJ/OY38prxFANeCBgETl0dJV58keKiU5J8/XWiVEp9J/OKLr6Yiv/2N1XqmIbJkykuGl0v8RSNchFM8SLDQEgkqO6QQyg5d6464Y3wgAEy4AoSJ5kk+/33KSHei+TTT1Ny4UIiy1LfDQjV4Q6LOid62GEUER1tDjCDMmBkrVlDCRGsx6ZNI/uLL7hBUN/JvDLRHnGHCYIr+AHwTzgbN1JixgyKP/YYWZ9+SvaGDUTNzVn1wWkzHuEtLZWPpnlhIM/TjB5xBIX33DPvRr+4c8OBcPzRR8kSFaIjrq/T1CQ7QlmDR1qKi+VoC+f2jYiAgrf9DmdqpbVHHPEep0QAHLv1VkouXkzOt98SiSDB188Wv7eik8fz7yKiQS+aMkVOnfFC05/+RIkHH1Qlj4hOTulDD2V8gaNr4no2nHIKpTjY85DJ6cdEJyqwxD1uLV9OcXF/cGfQ+eqrdNsiOgxZ1bZwW1FWRkbnznJApIA73OJlBny7XicWk4FwXATCKdGuO9XVvndG5JQM8T7ynGleOBkdP16uUYLgyrkAuAX33mUltWIFJd9+m5Kvvkqpt95Kf3Cy/VfmXnuXLnKBBo8c8UvmiN12Wwrxgh/MfZaVn8XXd/Vqsj7+WI4QJxctkteb4nH1h3yiRlnMnXemyODBFBoyRFaSPEeMH+Hl3Fx1fu/5fX//ffm54lF56/PP9Y0Mi/eXp2SE9t2XIgcdlH6PRWfC6/nJPNLtNDaqkjfkNqlVVYGap/xDYOcl0VHPlSwvHIw5a9eSxU+mli4lS3QWkkuWkC3qI9874lz3iPuLO1icDSXEbYWoh2Tdw+93rkzfaCHee+uzzyj1zjuUePllSs2bR/Y33+hr00WHwtxxR7mmhl9h0SbLtRoBylYBW5azAfBmiQ9P6r330sGwqLQ4WLJra2Wjx6OIBgfNXIHpfEt4BEs0BjLdi3jxSCHvhMMju/xoitOC8ciuzC+IQLfN+AkAN0pcQVoffkiWuMZ8zuGnANyoixd3jjhYc3gEQV3vljXHfOUN0ajIhoPnnvGLrxdfCxHEyLmw4pqFttlG5u2VnZSBA+W1y/lFe1si3kN+VJl67TVKvfkmpZYtI5tHhzlQEC/5vvP7zQGy+LObvtc/fB74SYZ4j/n9dcSLR6xkh0I06rxAieeyZ+s8ZAC+t+0vvyRL1Dupt9+mlOiUywEYHnDhDjl/Brh94Rd/DkTdIxpfWfe0kEcc0LbUO+IlO0784vqHPxcVFWRwW9G7N0X22INCou7hHdXy9rMh3tfUBx9Qcv58OQjCnRKqqfmhvndU3cPvN7ftXPf8qI7neofrH37/xItHdLmzbfbpQ5GhQ+V0NQ6Ac64jAVJ+BcCbEr+2DHw3bJAjHjwyzD1JrsTsdevI/vprctavJ/v778lWHygZIIsPk6E+TLLy4g9GS6XFH6aWIEkEQyZPWejcWY7m8kIuDpqoWzfZM+fv8aNcntYgX/woBR8y74nrxdeO5w3L0T0+5sCMGyUOhPlacgXJlaO4jg5fS76OLYEvX0sOzPj6cOXIifN5egOf50oUfobfT6e+nki8bP7KU1TE+93SGMmOh/BDQ68CX35f+f2Vj3C5M8GNPkBAyftd3Puy7uHPQEvdw+c3qXtagjJZ/3PQ29KO8OeCB0lU3cPT4ORXfC62SNbros7hpzk2rxXh97ylrlf1vKy3W9rrlveY63Sue7hNLilJfw9yXv4GwAAAAACQlzDkCAAAAAB5BQEwAAAAAOQVBMAAAAAAkFcQAAMAAABAXkEADAAAAAB5BQEwAAAAAOQVBMAAAAAAkFcQAAMAAABAXkEADAAAAAB5BQEwAAAAAOQVBMAAAAAAkFcQAAMAAABAXkEADAAAAAB5BQEwAAAAAOQRov8PsUINf5BHQY0AAAAASUVORK5CYII=;" vertex="1" parent="1">
          <mxGeometry x="-1230" y="676" width="241.49" height="59" as="geometry" />
        </mxCell>
        <mxCell id="h7jb9lpsqs1myCnT-5GU-13" style="edgeStyle=orthogonalEdgeStyle;rounded=0;orthogonalLoop=1;jettySize=auto;html=1;fontColor=#FFFFFF;strokeColor=#FFFFFF;strokeWidth=3;" edge="1" parent="1" source="h7jb9lpsqs1myCnT-5GU-9" target="h7jb9lpsqs1myCnT-5GU-3">
          <mxGeometry relative="1" as="geometry" />
        </mxCell>
        <mxCell id="h7jb9lpsqs1myCnT-5GU-9" value="" style="shape=image;verticalLabelPosition=bottom;labelBackgroundColor=default;verticalAlign=top;aspect=fixed;imageAspect=0;image=data:image/png,iVBORw0KGgoAAAANSUhEUgAABaAAAAH1CAYAAAAArFmfAAAABHNCSVQICAgIfAhkiAAAAAlwSFlzAAAkswAAJLMBvWV5twAAABl0RVh0U29mdHdhcmUAd3d3Lmlua3NjYXBlLm9yZ5vuPBoAACAASURBVHic7N15dFx1/f/x1/vOJE1paZMu7LuyyL4vilBU8AuCUEpKM2lraRahNEmLCvr9iY5+0a/6VaGUtRsIbYCWthQURHYEBBREBGRRqrIKNEkXaJtk7vv3R+sCZemSyWfmzvNxTs7xAJ08WyHJvObO55oAANgUc9t2UJn2kmy3NR++m1xDJW0uaYCkfpL6SFoqaYVkb0vqkOlFyZ9f8xE9rzcGPqkvW1fA3wkAAAAAAOhhFjoAAFBkblqyveLoM3INk2mYpJ165HFdb8v0kNzvVcrvVeegRzTScj3y2AAAAAAAIAgGaADAR1vYXinXF2UaI9dn1TvfP5bIfb5M1+rUQQ/0wucDAAAAAAA9jAEaAPDBblp6mOL4q5JO0ppjNEJ5Ru6XKvf2VRq5/cqAHQAAAAAAYAMwQAMA1rWg7UjJzpN0YuiU93hTrsvUx6boxMr20DEAAAAAAODDMUADAP5tfseBkk+V6ZOhUz5Ch0xZVVZeqmOsO3QMAAAAAAB4fwzQAIB/nvH8HUlnS0qFzll//pw8mqgRlXeGLgEAAAAAAOtigAaAUje/fbhMV0jaInTKRnJJV6u7q1kjt1gROgYAAAAAAPwbAzQAlKpbvY9WdfxIUpOS8f3geZlO1/CqJ0KHAAAAAACANZIwOAAANtSipR9XLr5B0oGhU3qWr5I0WacOuiJ0CQAAKDzDstn0lq8u2TGKfcfIooGxWz+TbyZJcmuPFb+TTqVeK+8uf2HWrB8tD5wLAEAiMEADQKlZuPRQefwLSUNCp+TRpXqysllZi0OHAACAcEbXTf54TrlhZhom6SBJu0gqX89f/qpMT7nr/sjje/ulOh+dNm1aV95iAQBIKAZoACgl8zs+J/MFkjYPndILFmppR0Zn7LwqdAgAAOg9pzecvVta6Vp3r5X0sR57YNMydy0089ldHa/fM2/evFyPPTYAAAnGAA0ApWJh22i5zZJUFjql15juVFfXcG5OCABA4tnohpaT4ti/JtOR+f5kLr0i+ZS+cd8rOKoDAIAPxwANAKVgQfvJkuZLSoVOCeAeVVQerxNsdegQAADQ46y2vmVkLP+mSXsH+Pztki7pKu/+0bzLLuMFbwAA3gcDNAAk3cL2YXK/TbKK0Cnh2PV6cmAtZ0IDAJAco8e37B6n/GK5jgvdIuk1yb7eOmPKtZI8dAwAAIWEARoAkuymtn0U2/2SKkOnBGd2mYZXnh06AwAAbJph2Wx625fbsi6dq8I7WuyOKIq+NHvaRa+FDgEAoFAwQANAUi1YNljKPSFpu9ApBcOtQSMqZ4TOAAAAG2fUGedsH0Xdrb1xzvMmeEvSl1pnXHxr6BAAAApBFDoAAJAH7iblZorx+d0snqoF7fuFzgAAABuupqHp6CjV/USBj8+SNETSLZmGpm+GDgEAoBBwBTQAJNGC9smSfho6o0A9o7KVh+ikbd4JHQIAANbP6IaWL8bu10vqG7plQ5jrsl23H9SUzWa5DwUAoGRxBTQAJM3C9v0l/SB0RgHbU10VjPMAABSJmvrmM2L3BSqy8VmS3DThhZfbrhuWzaZDtwAAEAoDNAAkibvJNUVSeeiUwmYNmr/k8NAVAADgw41uaPmiSdMlpUK3bCyXRm77cttV4h3IAIASxQANAEmysGOcpKNCZxSBSBZdqrletE9mAQBIupqGpqNj9xtUxOPzP7k0OlPfdEHoDgAAQmCABoCkuHXJAEnfC51RRA5Uaml96AgAALCuTN3ZO5rbQkkVoVt6jv13pqGpNnQFAAC9jQEaAJJilf23pK1DZxQV8wt0++v9QmcAAIB/G5bNpmXpOZKqQrf0OLcrahon7hE6AwCA3sQADQBJcOuSAZJ9OXRGERqid/pwFTQAAAVk61faviv5p0J35El/i6PW45ua+oQOAQCgtzBAA0ASrLSJkipDZxQl11c117lpIwAABaCmYfJe5vpq6I48O6BqZfSV0BEAAPQWBmgAKHZXLa6Q2cTQGUVsO6U7OI8RAIDwTN59iaSy0CH5598cdeaknUJXAADQGxigAaDYDaisFmc/byoGfAAAAqupbxplsmGhO3pJX+uO/y90BAAAvYEBGgCKnfno0AkJcKBuXLJX6AgAAEqYmfT/Qkf0JpNG1DZO3Cd0BwAA+cYADQDFbMHyLST7TOiMRLBoVOgEAABKVW1D8ymSldqLweZxdF7oCAAA8o0BGgCKWnetpHToikQwjZG7hc4AAKAUuevc0A2BnM5Z0ACApGOABoDidnLogATZUTd17Bc6AgCAUlN7RtOekg4P3RFI2rpyY0NHAACQTwzQAFCsrlpcIflhoTMS5ujQAQAAlBqPopIeYM00RhLvwgIAJBYDNAAUq4FVn5SsInRGosQaFjoBAIASY7I4EzoiLPt4bUPLwaErAADIFwZoAChaztW6Pc10lLLO90YAAHpJTX3LPpJtH7ojtDiOjw/dAABAvvAkGwCKlpfqWYn5NEj7Ltk9dAQAAKXCzI8J3VAILLJhoRsAAMgXBmgAKFrGUJoXqd1CFwAAUDJcDNCS5Dpi3LhxHK0GAEgkBmgAKEZzX+orqeTfrpofxgANAEDvOSR0QIGoWBX13zt0BAAA+cAADQDFqLzfx8XX8DyJdw1dAABAKRg//tzNJW0duqNQpIx3YQEAkonxAgCKUWy7hE5ILvt46AIAAErBO3pnd0kWuqNQuDkDNAAgkRigAaAYmapCJySWqTJ0AgAApcBSES+o/ycTfx4AgERigAaAouT9QxckVqzNQycAAFAKItnA0A0FxTUgdAIAAPnAAA0AxcjFAJ0vxgANAEBviOV8z30X488DAJBIDNAAUIzc+oVOSDCe/AEA0AvM+Z77bgzyAIBkYoAGgGIUaXXohATrCh0AAECJSIUOKDDp0AEAAOQDAzQAFCP39tAJieVqC50AAAAAAEBSMEADQDFyMUDni/FnCwAAAABAT2GABoBiFDGS5o1xBTQAAAAAAD2FARoAilFOr4ROSCznzxYAAAAAgJ7CAA0AxWizquckdYfOSCSzZ0InAAAAAACQFAzQAFCMTrDVkv8ldEYixfHToRMAAAAAAEgKBmgAKFpcqZsXkTFAAwAAAADQQxigAaBYmR4PnZBAbfpD5d9DRwAAAAAAkBQM0ABQrDy+K3RCAt2trMWhIwAAAAAASAoGaAAoVt2DHpXUHjojUczuCJ0AAAAAAECSMEADQLEaaTm57gudkSix7gydAAAAAABAkjBAA0AxM7s1dEJy2LMaUfli6AoAAAAAAJKEARoAill3PFfSytAZiWDxNaETAAAAAABIGgZoAChmIwctlWxR6IwEiGU+O3QEAAAAAABJwwANAEUv97PQBQlwl04Z/FLoCAAAAAAAkoYBGgCKXfegOyRxdvGmcJsWOgEAAAAAgCRigAaAYjfScpL9IHRG8bI/6Y8DF4SuAAAAAAAgiRigASAJ3hx4taS/hc4oSh5foKzFoTMAAAAAAEgiBmgASIIvW5fk/xc6o+i4/qxBVXNDZwAAAAAAkFQM0ACQFBVVMyQ9HzqjuNg3dIx1h64AAAAAACCpGKABIClOsNWSGiV56JSiYH67RlTeGDoDAAAAAIAkY4AGgCQ5teo+ya4PnVEEVkrR2aEjAAAAAABIOgZoAEia7s5zJLWHziho7hdoeOVfQmcAAAAAAJB0DNAAkDQjt3hd8rHiKI4Pcp9yVT8MHQEAAAAAQClggAaAJDp10M9l+mnojAL0D6W6MxppudAhAAAAAACUAgZoAEiqysqvS3ogdEYBiSUbo5OHvho6BAAAAACAUsEADQBJdYx1K9V9ulyLQ6cUBPMWnVp5R+gMAAAAAABKCQM0ACTZyUNfVWTHSnotdEpQru9o+KBLQmcAAAAAAFBqGKABIOmGV/5FkX9eUnvolCDcLteIqmzoDAAAAAAAShEDNACUglMG/VEenyBpSeiUXuU+TX8cODF0BgAAAAAApYoBGgBKxYjBD8vsMLn+HDqlF7hc39GIQV9W1uLQMQAAAAAAlCoGaAAoJcMr/6Jc16clPRY6JY+6Jfsyx24AAAAAABAeAzQAlJqRW7yu7q5hkq4JnZIHL8v1WZ1aOT10CAAAAAAAYIAGgNI0cosVOrXqS3KrltQROqeHLJJS+2tE1f2hQwAAAAAAwBoM0ABQykZU3iizgyU9EDplEyyX+9kaXjlcpw4orZssAgAAAABQ4BigAaDUDa/8i06t+rQi/6JMfw+dswFc0jxF8V4aMegymXnoIAAAAAAA8G4M0ACANU4ZdIui7r3l/iNJK0PnfIRHFcVH6tSqkTpl8EuhYwAAAAAAwPtjgAYA/NvJQ5drxKDz1J3eUa7vSGoLnfQeDyryL2p45eE6ZfBDoWMAAAAAAMCHY4AGAKxr5OZvakRVVqnunSR9RdJTAWtWSJqt2A7RqVVH6pRBt3DcBgAAAAAAxSEdOgAAUMBOHrpc0k8l/VQ3tu2rSBmZ1ci1Q54/c6dct8u8VWWrbtZJ27yT588HAAAAAADygAEaALB+Thv0pKQnJX1di5btrjg+WtLRch8maZtNfPROSY/Kda9k96n8nYcYnQEAAAAAKH4M0ACADXfygOckPSdpmiRp7tJBKteuiuPdJdtNHg+VWZVk/SXvJ6lCpmVyLZPpbcVaKukvivw5RakXNGDAX3WMdQf8HQEAAAAAgDxggAYAbLqRA9skPbL2AwAAAAAAQBI3IQQAAAAAAAAA5AkDNAAAAAAAAAAgLxigAQAAAAAAAAB5wQANAAAAAAAAAMgLBmgAAAAAAAAAQF4wQAMAAAAAAAAA8oIBGgAAAAAAAACQFwzQAAAAAAAAAIC8YIAGAAAAAAAAAOQFAzQAAAAAAAAAIC8YoAEAAAAAAAAAecEADQAAAAAAAADICwZoAAAAAAAAAEBeMEADAAAAAAAAAPKCARoAAAAAAAAAkBcM0AAAAAAAAACAvGCABgAAAAAAAADkBQM0AAAAAAAAACAvGKABAAAAAAAAAHnBAA0AAAAAAAAAyAsGaAAAAAAAAABAXjBAAwAAAAAAAADyggEaAAAAAAAAAJAX6dABwKbKZrPR0399Y4t0umwLc1W64oEWaYArGhjFPtBlA2VeJUkmbeamPpIkV9UHPqj5Csm65B5LttRl78h8pcnX/G/XCrm/JU+9ZWXxW12+6o1506Yt7Z3fMQAAyVFdN3lQH4+H5tIaqpwNMfPBZl7m8oEeq48p2kxR3E9u5SZVusk+9AHXfu+W6W1zvePmy13RclP8juLobfN4qadSb6RT9ubKJQPfnDcv29lLv1UAAFBMFrZXylNbSF2DFdkQxTZEZkMl30Kxby5JijRQbpFcZYrUX5Lk1k/y8rWPUiWp/T8eNSfTsrX/XLcUL5OrY81fs+VyLVNkyxV7m+RvyNJvqnvVqxq5xYre+40DPe/Df4AHAstms9GLr7Zv1+XxzibtLLed3LR9JNvSPd5asq0kbaHCeDGlS9JbbnrDXC+Z6++SXo7NXkop/pvJX35puyEv3ZvNdocOBQAg36onTOif7uqzo3luRzPtEEs7RK7t3bSt3IZIPkTSUIX/Ht4m6Q2X3jTXG2Z6NTb9NZIWW85f9NVaPGfO1GWBG4FEytQ3f1fS+aE7CsjvW2dcfGDoCKAkzF06SJHvItPHFMW7yG0XSTtL2lLSYElDJJUFbXy3lZLekOw1yV+T9Fe5Fivlf1WsxerXuVif3+rt0JHAB2GARkEYO/bswd1l6b0s8j3dtbdMuyrWzjLtKKn8Ix+geHRJWizpOZmeM9nzseLnu7tyz827+rLXQ8cBALAhqqurU1HlFh9LeeoTLt/NZLtJ2lXSHlrzBC4plkh60aTFsekvJj1pFj/d2T7kOa6gBjYeA/Q6GKCBnjT3jf4qT+0rT+0tj3eRbBdJH5O0i6TKwHX58KZkf5b8abmelcVPy6JndUrl32TmoeNQ2hig0auqq6tT5VVb7uluB5nbgS7tKWlvJetJ6sZ6U9IfZHrC3f4QRbk/9FPns9OmTesKHQYAwLhxkypXp7sPjGT7xmb7mNu+ku8lqW/otoC6JH9e0lMu+6M8etrj6LHrr/rpS6HDgGLAAL0OBmhgYy1YvoUst79cB8jiA+TaX7Jdxb3PJGmFTM/K9YTkj8lTj6nvgCd1gq0OHYbSwQCNvDq9ftInUvJDJB1k8oNd2l/SZqG7ishqyf4oix+W9HDK/aFrZ1yyOHQUACDZxo0bV9GV3nx/lw412SEuHSJpN/Gz4/p6TeaPuEePpGQPry7v/N28yy7j7EbgPRig18EADayPhe2Vcj9Sig6XfH9JB0jaJnRWkemS6Sm5HpPb72Txg3qy6hllLQ4dhmTiSQR6zLBsNr3V39/aPxXZkbHsKJOO1JqzHdGDTHrdzR+22H4j8/tf2W7w7zhXGgCwKaobGweWxRWfctORFuvTMh0irb1pL3pCTrJn3OOHI0X3WsrumT3totdCRwGhMUCvgwEaeD+3LhmglalDZfHnJDtS0qEqrPOZk2K5TI8o1oOSPaBl7Q/ojJ1XhY5CMjBAY1NYpmHSfhbHx3mkz8p1hKTNQ0eVHNMyue6X292Rx3fPnjX1SUmc7wQA+ECNjY2brfC+n3aPjzXZZyXtIykVuqukmJ6R/G6T3d0Zp+6bN/PCttBJQG9jgF4HAzQgSYtWbKlc91GSHy3paEl7if0qhJWSfiP5HYrtdo2ofIKzpLGx+A8YG6SmvmVLScea+XHmOtalrUI3YR1vmXS3XLd2xn7rvKumvhk6CAAQXqZh0v5S7vNyO1bSpyRVhG7Cv8SSP2GyX8VxdPPuO1Q+ks1meQssEo8Beh0M0ChNWY+037KD5X6y5CdK2jd0Et7XG5LukPQrdXf9SiO3eD10EIoHAzQ+Um3jxH3c7WS5nSLpQPHvTTGJJT0q2S0yu7V1+kVPhA4CAPSOYdlseutX2w+3WNWSnyJph9BNWG9LZLpbbj+3lfFNc+ZMXRY6CMgHBuh1MECjdFy1uEIDqo6U+UmSRkjaNnQSNtgzcs1TZLdoeOVjoWNQ2BgSsY5sNhu98NJbR3gUnSLXcEkfC92EnuIvmeymOLK5u29T9RBXV6E3NDY2brYilerTevnlHeJ4GCCvqidM6J/uTJ1kbiNk+ryk/qGbsMlWSbpb0iKPyhZcN+0nb4UOAnoKA/Q6GKCRbLcsG6Ku3AmSTpT0X+IIzyT5q6Sb5XaLBg28V8cY96nCuzBA459sVEPzEZG8Rm7VkrYMHYT8cukVk833SPMYo7Gpas9o2tNTdqRMeyi2PWS+u6QqSZV69/eadyRbYe6LY9Ozkes5j+zx1KqyB6699sdvh6kHilv15Ml908u6P2eRVa994ZjROblykj0s+TW20q/nymgUOwbodTBAI3kWtleu2Rh8jNYcARaFTkLe/UOmufL4Og0f9DDnRkNigC55Y+qa986Z10hWI2nn0D0Iw6VXzDQ3yvnPZs+a+ofQPSh8xzc19Rm0UidJ0amSH9MD58F3yfWIm36ZVtx67YxLFvdIKJBQw7LZ9DYvtx0n1xiZTpbUN3QTet1Kl34RmVrLupbddvXVV3OXehQdBuh1MEAjGeZ6SqmlxyjysXKNkLRZ6CQEYvq7XDcp1tU6rer3oXMQDgN0CRpz5plb5LrKx8o0Rhzuj3X9XqafdXV7KzcwxHutedHKJkg+SmuucM4Hl/Rrc83qXDbounnzsp15+jxA0RndOOnAOBePlWmUeLcS/sWWmun6XC434/pZl/wudA2wvhig18EAjeJ209LDlItHr/05ZUjoHBScP0j6mcpS1+qkARwpVmIYoEtENpuNnnup7TiZ6kz6oqTy0E0oeJ0yv1VuV7+63aBf3JvNcoZTCcs0TNpfis+Rq1a9+7a5v8v00/62avq0adPe6cXPCxSM2tqmAd7XRkk6S9L+oXtQ4EzPSH5NenU845prLl0SOgf4MAzQ62CARvGZ+9a2SqXGyzRa0m6hc1AUVsv8Jnk0U08OvEtZ4zjQEsAAnXCjzjhn+yjVPV7SeEk7hO5B0XpZ0rQoimbMnnbRa6Fj0Htq65u2i2UXmnRa4JSXTT55zoypNwbuAHpNpr75IEmNkmol9Qucg+KzSqZbJJ/WOn3qXeImsChADNDrYIBG8Zjf9ilFapLbqZLKQuegSLkWS7pKudwsjRzySugc5A8DdEJl6psPkqlFrhpJ6dA9SIycpNtkPoUns8lWXV2dSldu3WKu76igbmjmtytOT2iddeGLoUuAfKiePLlv2fI4I3mzOCYLPcRNfzD5Re0Vuu62qVNXh+4B/okBeh0M0Chst3ofrVr6RUmTJT8idA4SJZZ0q9ymaETlnaFj0PMYoBPk+KamPlWrVCO3ZkkHhO5BwpmekWtKefeya7jxUbJUn9E0tCylayX7fOiWD7BcpsbW6RdfHzoE6CnV4yZsVZZOnynpbHFmIvLG3pDrqnRZNPWaKy7kKiMExwC9DgZoFKb5b24tpb8s0wRJQ0PnIPEel9mV6lp+rUZuvzJ0DHoGA3QCrBmLrEmyL0u+RegelBp7QxZPTa+OL+esyeI3un7SMFd8nUtbhW5ZD5f2j1ZNnjZtWlfoEGBjjaprOiCSnSvTCPH2VfSeVW5qjSy+aM60S/4YOgaliwF6HQzQKCzz2z4lsxZJw8U7q9Hr7HXJL1dZ6jJuWlj8GKCLWPW4CVuVpcomybxJ0mahe1DyVss0N8rZ92bPmvJc6BhsuNqG5uHuapVUEbplA9xVEVcMnzXrR8tDhwAbIjO++RhFfl4Bv9MApcLttjjyC66ffvFDoVNQehig18EAjcKwoO1Iyc6TdGLoFECut2WaqSj+sU4Z/FLoHGwcBugiNHp8y+5x5OdpzU2JykP3AO+Rk3RDTtEFN8y46E+hY7B+auubz3bpYklR6JYNZa5H4lTZiddN+wmviqPQWU3dpJMjxV9302GhY4D3uMvN/+e66VPvCx2C0sEAvQ4GaIS1Znj+jqTPhE4B3kenTDcol/u+ThvybOgYbBgG6CIypq5571ykb8k1QkU4EqHkxCa7Qbn4gjlXTX0mdAw+WE1d05fN7IrQHZvoyfLu6Oirr76oI3QI8H4yDU2fk9sPJB0UugX4cPage/zD62ZOvSV0CZKPAXodDNDofe6mhe1fkOx8SYeGzgHWQyz5jZL+R6cOeip0DNYPA3QRGHXmpJ2i7vgbkuokpUL3ABsolnRr7P6t62dO/X3oGLxbpr75ZEnzlYSvLaZ72iv8+NumTl0dOgVYyzL1zV+U9G1xc2AUn4dlfn7r9KnciR55wwC9DgZo9B5306L2ExXb+ZIOCZ0DbIRY0nwp9U2dOuD50DH4cAzQBSxTd/aOstT5kr4kDvxH8YslXZdSfP61My5ZHDoGUs34SUdYFN8jqU/olp5i0uw5My4eE7oDqKlvOdbk/yuueEaxM/0qjv3rvIiMfGCAXgcDNHrH/LYvyOz7kvYNnQL0gG65fibpfzSi6m+hY/D+GKAL0Jgzz9wilys7X26N4oxnJE+nyy5TlP4eZ/aGkznrrCp1lj0u006hW3qamTXOmT5leugOlKYxdc1750z/K27ag2RxmW6M4tR/z5554Z9DxyA5GKDXwQCN/FrQvp9MP5brc6FTgDzolGuacl3f08gtXg8dg3djgC4g1dXZ8rLKtrPk9h3JB4buAfJshdwurfA+35s160fLQ8eUGMs0NC2Q2ymhQ/JklSw6onX6RU+EDkHpyIyfvItF8QUuHyV+vkJydZp0ZZTuvODaK654I3QMih8D9DoYoJEfi97cRt2pb8uMYz2RfK63Jf1YuRU/1MjtV4bOwRrcyK4wWG19y+llA9qek+sixmeUiP4yP29ltOpPtXXNXxKDTa+prWsem+DxWZIq5H7NsGyWo4uQd+PHn7t5pq7lB4pyz7i8RnwtQ7KVu9SUy5W/UFvf8pXGxsay0EEAgA9xy6ubaUHHecql/ySzRjE+oxSY+sn0baX7P6+FHY3KOttnAeD/hMBq65sOz9Q3Pejy65P4Vnjgo5i0rZuuztQ3PzRq/MSDQ/ckXXVj40BfczxAwvk+27zUfmboCiSaZepbxq6OVj0v8/OUoLPUgY/kGuDyH6/IVTydqW8+IXQOAOA93E0LOqrV1fcZyX8gaUDoJCCA7eR+pfbreEQ3tX06dEyp4yqdQKrrJg8qs/jbkk8ULwQA/+QyzXa3r103Y8o/QsckUW1d86VumhC6o3fYUpd2598l9LTa+qbDXdFUyXnRDJDk0sK04q9wk2FsKI7gWAdHcGDT3bTkk/LoErkOCJ0CFBCX7Hp511c0YuhroWNKEcNnL8tms1FtQ0tDmeVekLxZ/H8A/CeTa4zJn800NLdwhELPGtvYsoOb6kN39B4fKMVfC12B5MicdVZVpr75Spc9yPgM/JtJw3OKnq5taPlOY2PjZqF7AKAkzW0bqAXtUxRH9zM+A+swyWuk9Ata0HGe7nG2hl7G+NmLRo9v2u/5l5c84O7TJA0K3QMUsEq5Ltr6lbbf1Ta0HBI6JilyOT9PUnnojt5ksjOrz2gaGroDxS9T11KtrvJnJTWKn5+A99PX3b+1Iq54qqa+5djQMQBQUm5qO0lp+6OkZnHOM/DBTP0k/4HaO36nm5Z8MnROKWHx7wVjxny1X66883uxaaL4ZgCsN3Pt5/KHMg3NF/W3Vd+eNm3aO6GbilX1uAlbuWl86I4A+pVFUbN4ey820ukNZ++WUuoKuR8TugUoEjub/PZMffPVKuv6Suvll7eHDgKAxJq/ZDtZdKlifTF0ClBk9lMc/VoL2maqO/V1jRzYFjoo6biCJ89qGluOzPXpfFymFjE+AxsjLddXV8QVT2UaWj4fOqZYlZWlviSpInRHEOYNHOeCDZXNZqNMfXNjylOPy8X4DGwYk3SGusr+lKlvGRs6BgASx920sKNRpxm63QAAIABJREFUFj0tMT4DGymSrEHp+BktaD81dEzSMUDnyfjx526eqW++3GK/X9JuoXuABNhZ7r/MNDRfkznrrKrQMUXHo9rQCQFtuc0r7Z8NHYHiUdMwea/nX277jaQrJfUL3QMUsS0l/1ltQ8vPR51xzvahYwAgEW5q20cLlz4k9yslDQidAyTAlpLma0H7XN2ybEjomKRigM6D2vFNx62KVv1R0placwUIgJ7iGmNdZc/UNrScGDqlWIxunHSg5PuE7gjKnSvw8JGGZbPpTH3z+ea5xyUdGroHSAp3/0KU6n4y09BUyi+GAsCmmespzW/7b8X2mOSHh84BEqhaXfEftbD9lNAhScQA3YMaGxs3q21oucIj+6WkHUP3AEnl0lbufnOmvuWyMWO+ytWJHyGOY96WJ/tCdXU1xyDhA42pn7jzNi+33yvpuyqxm3UCvaRSbrNr6pvnjR179uDQMQBQVOa27aB0x90y+56kstA5QHL5VnIt1IKOVs1dOih0TZIwQPeQ2saJ+6yI+z7s7l8WVz0DvcEkPyvXp/OPmbqWo0LHFDKXPhO6ITwfWF65zYGhK1CYMvUtY3OKnpT8U6FbgKQz6bRceeqpTH3zCaFbAKAozO84TWn7vSSe8wC9xmuUjp/QwvZhoUuSgpsybaJsNhs9/8qSr3ls35WcK6aA3rezzO/O1LX876vbV33n3my2O3RQIWlsbNxsRcxRApLkij8j6behO1A4qsdN2KosnZ4pOUMY0Itc2krSzzN1zRd3DUh9Y96FF64M3QQABWfRm5urO/VjmTeGTgFK1PZy3a0F7VPVXfk1jbTO0EHFjCugN8GoM87Z/vlX2u6U2w/E23WBkFIy/+a2L7U9MKZ+4s6hYwrJO3GfgyT1Cd1RCDzWJ0M3oHDU1LccW5ZOPyGJ8RkIw2RqKVuR+92Yuua9Q8cAQEFZuPRQdacflxnjMxCWSWpWuuMB3bh019AxxYwBeiPVNrScGKW6n5DrmNAtANZw02E5Rb+tqWs6KXRLoXCL9gjdUCjMbPfQDQhv7Y0Gsyb/pdbc8RpASK49c6bfZuqbGVkAYK6ntKD9W/L4QZk+HjoHwL8coih+TPPbx4QOKVYM0Buouro6lalvzrr7IkkcSA4UnsFmtihT3zKlujpb8u9MiD1mdP23XRobG7lpSwmrrW/abuuX2+6W9G3xMxBQSCokXZlpaL6GmwsDKFkLlm+hdMddkr4jjksFCtHmMl2j+W1X6qrFFaFjig1PvjZA9bgJW6UHbnWneOIKFDqTvLlsYNuvq8dN2Cp0TFAu3ib0b2UrrGKn0BEII9PQ8nmXPWHSp0O3APgArjG5Pl2/qWmcyLt3AJSW+R0HSt2PSjo6dAqAj2DWqMrKhzS/Y5fQKcWEEXU9ZepajipLpx832bDQLQDW26HpdPp3o8c37Rc6JBST8U6N/xA7fx4lyGrrmr8h919IGhw6BsBH8X0sjn5bW9eSCV0CAL1ifvsYmT8gacfQKQDWk+sAmT+u+e3DQ6cUCwbo9VDT0HyOzO+StHXoFgAbxqRt48juqWloKs2rCUz9QycUksjjzUM3oPeMH3/u5jX1zXPd9H1JqdA9ANZbfzefk6lvvpKjkwAk1lwv14KOy2W6RlLf0DkANthAmW7UwvbvKuvsqx+BP6APcXxTU59MffMsc/1EnMEEFLMqc7t1VEPzJ0OHBMDg+h9Mxp9HiahpnLjHqmjVoyadFroFwEZrXOEVP8+cdVZV6BAA6FGL3txG6aX3Sn5m6BQAmySS63ztu/QXmts2MHRMIWOA/gDVZzQNrVppv5J0RugWAD1is8h1c+0ZTXuGDullfUIHFJTYuLqkBNTUtxxrcfQbSZwjCxQ713HqSj9a0zB5r9ApANAj5rd9Srn07yQ/InQKgJ7i/6W0PaCbO3YOXVKoGKDfx6jxEw8uS9njko4K3QKgRw32lN0+unESx+kACZWpb240+S8kVYZuAdBT7OPmud9k6ptPDl0CAJtkQduZMrtHHO8JJNHe6vZHdFMbNz1/HwzQ71HT0DwyiqL7JW0XugVAXmwXx/E12WyWr39AgjQ2NpZl6psvl3SlJM6MBZJnc0kLMg1N54UOAYAN5m6a356V7HLxcwqQZEMV292a3zYhdEihYYD5D5mG5hZzXSduAAAk3edeeKmNJ7BAQlQ3Ng5cEVfcJolzFIFki+T2g5q6pmnDslnuzwKgOMz1ci3suEamb4dOAdAr0jK7VAvafiR3Cx1TKBigJWWz2ShT3zJFrovEnwlQEtz03dqGlkNCdwDYNKMbJ21dFlfcI+mzoVsA9A4za9jm5bZbx48/lxvLAihsc9/or/TSRZJGh04B0Nvsa1rQMU9XLa4IXVIISn5sPb6pqc/zLy9plbw5dAuAXpV298s5igMoXrVnNO0Zx/HDkg4I3QKg1x27Klp9d019y5ahQwDgfc1/c2uVld0v+X+FTgEQiGmEBlbeqrltA0OnhFbSw0t13eRBlSvtDslOD90CIIiDnn+prTZ0BIANVzN+0hGesvsl7RC6BUAofrDJf1PTOHGP0CUA8C4L3vqELP0bOS+SA9AxStsDmr+kpO81V7ID9KjxE7cpi3K/Nom7UwIlzE3/O2bMV/uF7gCw/jL1zSdbFN8taXDoFgDB7Wxx9EDN+ElHhA4BAEnSTW2fllIPStoxdAqAgrG3LPq1Fi3bPXRIKCU5QI86c9JOUWT3ybVn6BYAYZm0bdync1zoDgDrp7auJSNpniTOUgPwT4Mtiu+sHd90XOgQACVuYfspivUrSVWhUwAUnJ2Uy/1aC9r3Cx0SQskN0DWNE/eIuuNfS/bx0C0ACoO7WjgLGih8tQ3NZ7r5tZLKQrcAKDibeWS31DY0Dw8dAqBEze84Ta65kvEiOYAPMlTSvZq/5PDQIb2tpAaX0Y2TDrQ4ul9SSZ+7AuA9TLu+8Mpbnw+dAeCD1dY1f8Ndl6vEfnYBsEHK3XVDbX0L93cB0LsWdFTLvFW8SA7go1VK0Z1a0PGZ0CG9qWSexNXWTfxUHPvdWvNqAwC8i3v05dANAN5fpr4566bvh+4AUBTKXD4nU99SFzoEQIlY2DFSYnwGsAFM/SS/RQs7Sub4sJIYoGvGTzrCLbpN8oGhWwAUrOO4GSFQeDL1zVlJ3w7dAaCopCSfnqlrmRw6BEDCLWwbLfdWSenQKQCKzmbyeJEWtJ0YOqQ3JH6Arq1vOtxS8S8lbR66BUBB69td3n1s6AgA/1bb0PIdMT4D2Dgm85/W1jWfGzoEQEItbKuR21WSUqFTABQrq5BsfimM0IkeoDN1TYe6ol/KNSB0C4DCZxZ/MXQDgDUy9c3fdfdvhe4AUNzc9IOahpYJoTsAJMyC9vFymy2ufAaw6colu1EL244PHZJPiR2gR9U1HSAzjt0AsP5cR4ZOACDV1Df/P0nnh+4AkAhm7pfUNjSfGToEQELM76iXNF0J3lMA9Lo+im2e5rcfFTokXxL5BXP0+Kb9IrO7JA0K3QKgiJg+Nn78uRzXAwSUqWuZaNIFoTsAJIq567LahpaG0CEAitzC9lNkfoUSuqUACMjUT9Ktuqnt06FT8iFxXzRPb2z6mEf2S0lVoVsAFJ2oM1q5f+gIoFTV1jV/SeZTQncASCRz98tr6ltGhw4BUKQWdnxWruvFmc8A8sXUT7HdrIUdB4VO6WmJGqBHjZ+4TSq2O1zaKnQLgOLksn1DNwClqLa+5XQ3zVTCfjYBUFBSJr8qU990augQAEXmxrZ95X6jpD6hUwAkXqXcf6lFy3YPHdKTEvMkr7qxcWAURb+QtHPoFgDFy6UtQzcApSYzvvkYl/9MXFEEIP/Skl2XaWj6XOgQAEViYcfHFEW3S6oMnQKgZAxRd+42zX9z69AhPSURA3RjY+NmZbmKn0virfMANpENCV0AlJLaxon7KLKF4ooiAL2nXLL5o+qaDggdAqDAzV0+VO63Sc67rAH0LtPOsvTtWtieiBe/in6AHpbNplfEFfNkOjJ0C4AEMGeABnrJmPqJOyuOfiX5wNAtAEqMa0Bk9otRZ07aKXQKgAJ165IBKuu+XdKuoVMAlKx95FqoqxZXhA7ZVEU/QG/zcvvFkk4I3QEgIWLrHzoBKAU1jV8ZklN0G/dtABDQ1lF37o6a+haO3wLwbrd6H62KFsnFOyUAhDZMAyuvUdaLesMt6vja+pavSH5W6A4ACWJaGToBSLpx48ZVWNx5s6RE3VgDQDGyj5v85uoJE3gBGoAkqba2aUD0zpLzJQ0L3QIAa1Vr3/bvh47YFOnQARurpm7SKa74R6E7UFDekfR3Sf+Q9LJMb0j+D7m1u6kjynmHmzqiVKo77rYOSUqVr1yRM+v65wPE3mdg1GlRZIpiyw00jys8sr7m0WDJh8TugyOzIe4aKmk7mbaXtI2kshC/YeSDM0AD+WVd6YGzJD8idAgKyipJr5r0eiz9w6RX3f0NM3XItMxkSxVrmZs6/vkLcpF3pLrTLkkqy6WU04B/PZp5lVwDZBog1wB3VVqkoe62rcm2WHuW57aSiv7tjOgRh5Z1pluz2ewp2Ww2Dh0DIJzq6uqUb2bzTrvj+/3mf/YbN+XS6VNCNyG41ZJekfSapNdkek2xvy6zVyRfIre3Fdky5WyZyjrf1urU2xo5aOkHPtrPO6q0OtdP6bJ+iuP+kioVez+ZhkjaTmZbyn1bybaUfDtJW4sbdUOSZOdpYfuzGl51deiSjVGUA/So8RMPNovnqMiv4MZG6ZLpBUlPy/W0y/7i5i/murpfnHf1Za/3wOO3b8SvsdGNk7ZSnPu4u3aV2a7u2tVMe7q0m/hmUVTc/Z3QDUCSZeqbv+3ymtAdCKJbpue15nv4szJ/MXL9JUqnX7zmigtfleS93GNjz5y8TVcc72yxdjHTx+S+RyztaWuuzufF5dJy0nMvL/mRpK+GDgEQTtmArX8k13HpXLdOv+OCF24ads4V7/QdcGboLvQC09/l/qzcnlfkzymXekHl/rxWDfy7Rlquxz7PiZXt2pDdYa6XK1qyiyy1m8x2k8e7ymxXSXtLGtpjXSgOris1v/1Fjai6P3TKhiq6AXrUGedsH0XdN0vaLHQL8u4dk56Q9JjLfmdR7ved7UOemzcv2xk67D189rSL1rwaKv36P/9G9eTJfVNLu/Yyi/a3yPeT22GS9hdPagtWZPZG6AYgqWrqm2okfSt0B3rFSsked+m3keu3semp7qVVzxbY93C/5ooLX9Gaq5oe+M+/0djYWLbc++1myu3j7geb7BBJB0rimIYEM9lXMvUtf2qdMWVm6BYAvS/T0DROrnP+9Rfcdz3lnp8Mvvew0T94dfCu50gqD1eHHvaapMfkekwpf0xW/qhO7v+P0FHva6R1Snp27ce7LXpzG3nqIOXsIJkOkuzgte/yQnKVy7RANy49QqcNfCF0zIYoqgF63LhxFZ2p7vla8xYEJM+bLj0Qye+3KHX/y9tUPnlvNtsdOmpTzLvwwpWSfrf2Q9KaUbp8WdeBstThLj9asqMkHxiuEv/JZc+HbgCSKFPXdKhksyRZ6BbkxT9Muk/S/W7Rg69uW/lUMX8PnzZtWpekp9d+XC+teVt2xYCtPxFHdoS7H+3SMFtzjAcSxS+raWj683XTp94XugRA76kZP+kIeXzF+/ytQcMemX3O0x87+sI/7P6ZRklVvd2GHvGMpHvkdq8sdb9O3TwZFx2dPPRVSa9KuuVff+3mjp2V86PlGibpaEk7BWlDPg1W5Iu0sP2TGl7V8dH/eGEoqgF6dXrAFSYdEroDPWal5Pe72a+k1O3XTb/wGfX+22973dpR+sG1Hz+prq5OlQ3Y6iBFOkYeHSf5p8UV0sF4bEX1KiJQDGrqW7aUfL44bzdJ3nb3uxRFt0fd8b1zrpr6TOigfJs3b15O0lNrP6ZL0ui6yR/PKTdMps+b7FheUE6EcnObf3pj02E3TJv6l9AxAPKvtr5pOyle4FKfD/hHyvf6y33nDV360hV3Hvql4yTt0pt92CivyP0XUnS30ul7C/bq5nz4YuViSYslXS1JWti+k1xHy+w4uR8vXkRJCP+EZHOU9ZOUtaK4f0XRDNCZ+qZmSV8K3YFN9qpki2Ra1NU/un/tGFvS1j6hfXTtxw9ra5sGqK+Oc4++IPMviHOdelVZdxdXQAM9qLGxsWxF7HMlbRe6BZvsRbluMfdb2/rpvtumTl0dOii02TMv/LOkP0uaMSybTW/9ypJPWRwdL4tPlGyv0H3YaINTsf183LhJR1x99UVFc2URgA1XPXlyX18eL1yfYwu2eOvFM4ff/dOFN31m8qsuO7I3+rBBnpH8Fkk/1/CqB2WW+Ivb1svwqr9K+qukn2mup5RuP0LSiZKdJGnPkGnYRO4naJ+Ob0nKhk5ZH0UxQI+unzQsVvyT0B3YSK6/eqS5kfvCXbcb/Ch3F/9wc+ZMXSbpRkk3VldXp8oHbD1MkVW7a7jkW4TuS7jnrrnm0iWhI4AkeTuu+Imko0J3YKMtluwWjzTvumlTHlQJvFNpY609cuS+tR9fz4yfvItSuZPkVi35pwLnYcPt0ZmOr81msyfzsyuQWFa2PDdD0sHr+wv6rlo6fOQvL/jt/GPPXdSd6nNyHtuwXuxhubcqFd+kUwa/FLqm4K25meIDaz++rhvf2kOp1Glyy6y5ohZFx3S+bmx7VKcNujV0ykcp+AF6bGPLDt1xPFdF0Ip3ectcc6W4dc7MSx4ST1g3ytqro++SdFd1dfXZZZVbHSPZWLlOldQvcF7imOuu0A1AkmTqmse41BS6AxvGpVfMbXZKPvvamRc/FbqnWLXOuvBFSVMkTcl8uXlXi220u4+RtHPgNKy/E59/uf3rkr4fOgRAz8vUtUySPLOhvy4Vdx8y8lf/u/jmo1suXbFZ1QRxf4ve9jfJr5fSs3TqAN69uilOG/KspAskXaAbl+wli6oljZXxs0oRiRTZbC3sOETDKwv66LCC/kK55m27FfdLOjx0C9ZLzsx+Gcc2Y/PUO79YewMf5MH48eduviq1coTcxmnNlYUF/d9y8fARrTOmLghd0ZMy9c0viaMP/sXcaufMnNIauqMU1DRM3ss894h4saxYrJS0UGbXdHW8eufaF0DR8yxT1/JpmY+VNFLS5qGD8JFyMv+v1ulT7wwdkkSZ+ubvSjo/dEcB+X3rjIsPDB1RCkaNn3hwFEUPSirfhIfpuP+QzPSXh+7esomPg4+2QvI5ilJX6ZSBj4SOSbSsR9pv6TFy1Ut+qvh3u1j8QWUrP6mTtnkndMgHKeirild4xffF+FwMXpY0I86lZ11/1U9520svmDXrR8u15qYCV59eP+kTKfmZko+VVBm2rKh1qqz7ntARQBKMGfPVfjl1zhXjcxHwP8s0w6185nXTfvJW6JoS4K0zp9wv6f7x48+dvCpaVeOmCebaL3QYPlBKbjeMOnPSQddfcdFfQ8cA2HTVEyb0jzqjOdr0Ya3yqN+2Tn52509e+vgnPj9W3NwtH56R/DJV+LU6YfCy0DElYc0N7e6SdJcWrdhS3Z11MmuUtGPgMny4/dTV9zJJ40KHfJCCHaBH1TV9Qa6vhO7Ah3rYZBf1i1Yu4GrncG6YcdGfJLU0NjZ+423vW+vySXJuJrDBXLe0Xn55e+gMIAlyfVZfJje+DhWu2KVFZn5Z6/Spd4ljsoJY+2LyNEnTahpbjrScny3TaSrgn89L2KBUV3x9dXX2qHnzsp2hYwBsmrLO1AxJu/XQw6X3WPxQy+Blr8+847AvDZP0sR563FLWLfkCmV2u4VX3ho4paSf3/4ek72uu/1Dl7SfIdbbcjhPvwC5UX9LCtjs1fNDs0CHvpyB/wK2tb9rOZVeLf6kLUSzTfMX+49aZUx8NHYN/mzZt2juSpkuakalvPl6yr0j+mdBdxSKWXxW6AUiCmvrmMySNDd2B97XSzK7xyH9y3ZUXvxA6Bv923bQpD0h6IFN39tel1GSZ6iT1D92Ff3PTYeUD2i6UdHboFgAbL1Pf3Cjp9J5+3KFLXqwbftdPfn7TZ895zWVH9vTjl4hOmW6Qpy7gbOcCs+bmhbdIukU3tu2rlH1VrhoV6KZY0twu14Jljxbif0NR6ID3GpbNpt3tOklDQrfgXbrkdnUU256t0y8eyfhc0Lx1xsW3ts6Y8tkoig6S+U3i6raP8trr2w++PXQEUOxOr5/0CZMuCd2BdXRI+p9UunOnOdOnnNnK+FywWmde+rfWmRdP6vLUji59UxLHohQQN02oaWgZEboDwMYZU9e8t6SL8vX4fVcvO3Hk7d+vSHd3zs/X50ioFZIuVnduFw2vGluIwxn+w2mDntTwqrEy7SrpYq25jwgKR38p16q5XnBndxfcAL3tK+3ny8QrhoWjy8yulOd2bZ055YzZs6Y8FzoI62/2tIseb50+dXgU+wFyzZcUh24qROa66N5stjt0B1DMGhsby1KKfyZps9At+Jflcvuhyrp2aZ1x8beuveKKN0IHYf3Mm3lh23UzLv5eanX5TjJNkvSP0E1Yw9xnZOrO5hxMoMiMGfPVfrlIN0jqm8/Pk8p1Hlx9x/cP33z5WzPERUAfZZlMWZXbDjq1qkUjh7wSOggbYHjVX3VqVYtSZTtLulDS6tBJ+JeDlG7/XuiI9yqoAXpUY8th7v7foTsgScrJdK3i1B5zpk85s3XmpX8LHYSNN3vW1D+0zrz4NJcdIOnW0D2FxKTX+6VWccUmsIlW5Pr+j6RDQndAkmyppGxXtGr71plTvs759sXr2mt//Hbr9IunVMQVu669IrojdBNUKUv9rLq6OhU6BMD66674/+zdeXhcddn/8c99ZpKmpUuSlqVlUVQ2RQTZQaQoyL40JYWkC+kWtqYLII/+XJ4RN0SwTVLako0+bTMpDLIooiJIVRZXNpVVZOvC1qbpmmRmzv37o0CTNHsmc58z5/O6Lq8LmszMW662mbnP93y/rRXpOidHVPe/8PHKSQet++fNgDan4zV9phWqVQhlHYoJed/DBbl8n+JnFw9/FwV510Hdz0C1CgAXdnmCXI+fbzrfuqItzwygp069YS/H1RXgHjLmVPUXktSjotUV06J1C/9r3UOp01BT/ny0puJ8FR0vir9Y93iBCm7+cP9sIuqnKbPKToPoDdYdhDiAKgUOi9ZUfC9WVdVkHUSpUVd3y9aGmoofxjX0aaj8BAAHGrZOD48a+w3rCCLqnaKZZReKYkZaX1Qx8kvP3XPjMS/+phrAprS+tnclAdyJhB6CiflXfnjAHWWKiaPXYmL+lUDyKAD3gncAWBOIVOPupnzrkI94ZgCdHBL/KVJ3Ei31gwqeU7hfbaitvLj+zsoXrHto8DRUV/6hvrbiZKhMAhDk1e2vZMe33GEdQeRnJSXzc13IKgBcDWhHBbg76egR0ZqKKxtqyvmBLkPFahduitaWfwNu6HOA3gV+uDMjQGTyrLKTrDuIqHuFMxfki4jV+/3QEa//uezMp5Y/CMV/jBq84ndw3KNQkDcDk/Lfso6hQVQw5kUU5E2EuqdA8HfrnIAbi7B65m5vTwygi2bOPQfQq6w7Aux9VcxObN5wbEPN4t9bx1DaaLS2PBYfEToCQATBOzzAFXVnLF++nKvIiAagNaQLARxk3RFgz7iCL9XXVFx2V1Xla9YxlB7RuoX/jdZUXi7qnqaC56x7AiqskPrJk8tGWocQUdeyJVkOYKxlwz6Nr08r+P1t/xF1H7fsMLIOwBUoyPsaLhnNRW5BMnH0n3FJ7gkArgDAc0jMaBHu3VxoXQF4YAA9bdq1o0VQC0CsWwLIFZE74ho6vKG2oiYWiyWtgyj9YgsX7ozWVHwPmjwCovdb96SLQirqaxc/Yd1B5GfFs+aeB9ES646A2gzB/HjThuNXV1c8aR1DNuprFz9x2P75XwTkCgAbrXsC6FM6VG6zjiCizhXNLLtQgSnWHQCQ07LlnEkP/yg3O95yn3VLmsQBVCCUOAIFeSusY8iIiKIgbwWy5XAAFdi1DQulnS7BA9v2ta4wH0DHs0O3ARhn3RFAz7iOnFJfXX5VrHYh96QiRGtvfzNaXTlBBAW660p1xlLgXyOcnd+y7iDys5KS+bkKVFl3BJBCZbk6WYdEqyvKefGYIpGIG60pX6GQzwGot+4JoJnFs+edbR1BRO0Zb73RqVAyfuTER358woht71chs7dQehSu8zkU5M3DxXtvtY4hD7ggtxEFefPg4ngAT1vnBNAYJONLrCNMB9CTZ5R9TXYtx6f0aQHkW+sPyD9hdVU5D6GjPdRXV9zn7NTPArgdgGvdk3rynoadC3nwINHAtIZ0oQD7W3cEiuINcfWcaG359Iaq2z6wziFvaagpfzdaUzFFxD0P0LetewJEVLW2pGR+rnUIEe2WJckKGG+90RlR3f/CPy6e/Mn1/ywH0Grdk2JbAb0aE3LPwqWjXrWOIQ+6NO8Z5OWeCOi3AbRY5wRMAe7bVGQZYDaALi0tHaaOmE/gA+ZZiHNStKb8R2sikYR1DHlXfX3llmhNxRxXcBqgmXRgRquKO2n1skVvWIcQ+VnRzLnncOuNtEoqZFGoNfvI+rrKh61jyNvqqxf/Ou60fF5Vq5HZK+w8Q4D9W8PuT6w7iGiXKbPnXQRgsnVHN/Y65dl7yk781wPLALxvHZMif0LI+SIK8pdBhD97qGtnSAIF+T+E6x4L4K/WOYGiUolfbhlj9fJmA+htmvMDAJ+2ev2AiQPyrXjThuOi1YuetY4h/1hdXfFkjjv0iwBqrFtSIC7QyQ3VlX+wDiHys9LS0mEiuN26I0BeV0fGN9SUL1i58tbt1jHkD7GqqqaG2spSiJwLYIN1T0DMLp5ddqZ1BFHQFc5ckO+qLrPu6IXQp996eu5ZT9U+AlU/HyK8BSJXYkLu6bh4VCYtXKLBdunofyMv91RAvwmuhk6X0YgvZoa2AAAgAElEQVQnzS6Ymwygi2eWnQDFXIvXDqBXROTUaE35j7hPJPVHXd0tW6M1FbNd1Qvg3yv0Lao6sb6m8h7rECK/2+7mfAfAp6w7AkEQQ1b82Iaq8setU8ifotXlv1Un66ggHTJsSKBSM2PGjSOsQ4iCLEuSP4QHt97oyt6NbxVN+P1P3xY34cfD0f+BkHMsJuRWcdUz9cuu1dA3Q+UUANy2JT2m497NX7F44bQPoMdHImGIVAMIpfu1A6gm1JL9xfrq8r9Zh5D/ra6t/JXrukdD8Jh1Sx/tEFcvaqit/KV1CJHfFc1e8DkFrrfuCIBGqEyKVldMii5d2mgdQ/7WUHXbB9HqygmqmA2Aq+gH1yeaneYfW0cQBdWU0vlfBDDbuqOvhrZsHz/p4ZtHZSea77Vu6SUFUIFE7ilc9UwpMTH3aYQSxwJYZZ0SAALoUjykQ9L9wmkfQI9bt+laAEel+3UDZjtEp0RrKmbzdl1KpdV1i9fHN284C8B3AfhgH3H9j0JO5p6pRCkh0MRiAFnWIRnuGbih46K15THrEMosDbUVNeq4xwH6b+uWDHf15aXzTrSOIAogcd3kYvh0oVvIjR9Z+MjNp+RteWcxvL1/fxNUJqEgbx4mSaYdokiWLt57KwrypgK4AsA265wMdyh2br4x3S+a1gF0Yck1+0Hle+l8zaAR4EVJ6gnR6sp66xbKTLFYLBmtqfi+us6XAXh4vzK5N+60HNdQU/68dQlRJiiaNbdEIOOtOzLcssahenK0buF/rUMoMzVULX4pxx16MhSrrVsymOO4WhmJRMzO2iEKouLZZVcAcrJ1x0Coq/ud+/jSGQevf64SntwTV56C434eE3O5rSENnoK8FXCTxwN4wTolo4n+PzzQ9Jl0vmRa3xiFw+GbAR2VztcMFr2rNTtxQv2dlfyDSoOuoW7RUzluzjEAqgC41j27yXsQFEVryifGqqqarGuIMkFhaekoAXhb+eDZ8eGdS1f/urLSgx84KZPU1d2yNVpbUQSVMgBx654MdfwrazdeaR1BFBQlJfNzoY7ZwVopNuzkZ++dc9Lz99fCW+fv1COx9au4ZPTb1iEUAJeOeQmJ+IkA7rNOyVySg4T7s3S+YtoG0JNnzjlVgGnper2AcRX4drSmsii2ZAlvVaC0+fCAwitd1z0R0KeMc1ohujjcmvhstLqCK7uIUihLc/4XwL7WHRlqvYiM551LlG7R2vLF6shXAHnPuiUjidw8pXS+bw5CI/KzeNi9CdB9rDtSyPnU2meuOfvJ6jWAvmzckgTkGyjIm4JJB+40bqEgmbTPNkzInQjIN+CpBW8ZRHAh7mk6O10vl5YBdGFhYUjFqQQg6Xi9gNkKoKChpuKH8PZeUZTBVtct/nu0pvJUVWeCKP6S5pdvhcpyN+wcFq2uLFux4vaNaX59oox22az5R0Axx7ojQ/3ZcZzjeFgwWWmoKn8crnMy94UeBIqRrpu82TqDKNN9eEDy1dYdg2H05rWFEx699d2Quo8bJWyCyjkoyM2U1eXkNyK66/efXA7lQcqDwtGFuEPTcsZPWgbQ2bljZwM4Jh2vFSz6tjjuqdGaigesS4gAaEPtovvraytOUtHxsusE2x2D+HprAUTiicQnorXl01cvW/TGIL4WUWCFxF0EHjyYcgKsyk5sOWNV1aIN1i0UbNG6hf+VnTgFwEPWLZlHphbNLjvduoIogwk0uRRA2DpksAxt2fblwod/OCY7vvP+9L6yvgyREzAx95H0vi5RJwpyY3DwJQDrrVMyjx6BfRrTsm3YoA+gZ8y4cYQqIoP9OgH0fDgcPrm+avE/rUOIOmqorvxDfU3FVNmpY6GYJpAGDHwPM1XgXwq9TV3nlGhNxUHRmorvxZYveScVzUS0p8mz510AxdesOzKNCn5cX1Mxbfny5c3WLUQAUF9fuWX9AfkXA6ixbskwIiqLeCAh0eCYPKtsogCnWXcMNieZOPzSR245ZXTThiVIz13Pf0Mi6zRMyPXwgfMUOBPynkUocTwAzsBSTeUm/HLLmMF+mUG/UtjsNH8d3Dcy1R6VnVqwon7hFusQou7U11duAbASwMpIJOK8vK7pCEHiaECOhuIQ7Pq74QAAe334kGxAtgO6CZCNgL6ikFeg7r8TCD8Rq124yer/C1HQFBYWhlTdm7l7VkolBZgXra643TqEqKM1kUgCwOzi2WX/gcqPwT/8qXL0y2s3XQHgTusQokxSWFgYAuQm6460UXefs59YNvOvn7942X8O/OIMAEMG5XVEHsKw5kk4O4/bHZD3XLz3ety75QzA/SWgJ1vnZJA8JJLfBTB3MF9kUAfQl8+YMw7AdYP5GsGjd8WbRk+LxSKt1iVEfRGJRFwA//7wfzxsi8jjwiPHTgfwOeuODNIM6OT6msp7rUOIuhOtrvxJ8ax5HwB6B4CQdU8mEOAHU6fecPfKlbdyoEOUIuGRY6crcIR1R5oNOeGfD1y1d+Mb1U8dVXAJgNQevChYifdGzcSVufGUPi9RKhWM3Ig7X/8KRuaugmCidU7GUFyF+zaXD+adD4N6O5jjON/D7pWNNFCClesPGD2Fw2ciIhpMhQsWDBXB/1p3ZJAdCrkoyuEz+US0prxWVScAaLFuyRDjkkNav24dQZQpSkpKckT0u9YdRuTgtc+VnvPkHX+Duq+m7FlVb8EluVfgSuHwmbxv+sHNyM+9HLy7KJWyoBoZzBcYtAH0ZbPmHwGgZLCeP4Buj1ZXXPHh7ZFERESDJmtr8gbs2h6HBkyaRN2vNdSU/866hKgvGmorfyniTgCw07olQ9x4+fTrDrSOIMoE8dDIuYAE+s9T/ub15xf8/tbGkJt4YsBPpnoLJub/D0TSsb80UWqcIQlMyJ0JkSXWKRmkGPc1Hj1YTz5oA2hHkzcjg0+jTScBfhitqZiD9Bw4QEREAVY4c0E+INdbd2SIja6bPLO+dvHAPxwSGaivXvxriF4EgFtHDNxQCSW+bx1B5HclJfNzVfA/1h1ekNOy/YRLf/vjfYfEd9zf/2fRn2BiPv97kj+JKC4ZNQcAz1dJDQcuBm1v/UEZQBfPmnusiFw4GM8dNAq9rb6m4tvWHUREFAxZkrge0FHWHRmgEeKcubpu8d+tQ4gGIlpd+YgD5wIAO6xb/E6AqVNmlH3BuoPIz1qy3BsB5Ft3eEVIE5+Z+LufnLZ345uVANy+PVp/goL8bwxKGFG6iCgm5JZBsdg6JSMILsS9jacPxlMP1grom8CTswdO8bOGmsobrDOIiCgYikqvHwNImXWH7wm2QPWcaPWiZ61TiFJhVc2iNRC9GECzdYvPOa4j37OOIPKrKaXzx4pirnWHB40+66m6Kz/91t+r0Nu9+wURDp8pY4goCnLnQmWpdUqGGJRV0CkfQBfPLDsBwHmpft7AUZRHayt4CzQREaWN4yZuBDDCusPntonrnhetrfyrdQhRKkWrKx8RkUIAPAx7YC6aPHve8dYRRH7kuu63AOxl3eFR2Sf+65dXnvT8/Q0APuj2O1VvwYQ8XgyjzCKiKBh1LYD/s07JAF/GzxvPSPWTpnwALcKr+gMlwKpDD8y/zrqDiIiCo7Dkmv0Ueq11h8+1wMVF3POZMlV9dfmDAp0MIGnd4mMC1UHbX5EoUxXNmrcvgBnWHR4nn1r7TMm5f1r6Z6i+1MX3rEJBHlc+U2YSUSRyZwK41zrF9wTfSvVTpnQAXTRj/skKnJPK5wygB9cdkD89Eon0cf8mIiKi/svKCl8PYJh1h4+5Ap0Srat4zDqEaDDV11TeAyi36hkABc65fPbcU6w7iHxFdB6AodYZfpC39Z0LCn7/0y0hTTze4Uu/Ql7udIioSRhROkySJBLbpgD4k3WKz30V9276UiqfMKUDaMdxv5vK5wsaBf4UHxGatCYSSVi3EBFRcBTOXJAPxZXWHb4muG7XYI4o80VrKpcC+L51h585OninzBNlmsmTy0aK4mrrDj/Jadl+wqW//fEBQ1p33A8AUP0L9mq5DGcIZw2U+SYduBMJvRDAc9YpvibON1P5dCkbQBfNmneUAmen6vkC6L+JpE6MLVy40zqEiIiCJUuS14J7Pw+A/ihaXVFuXUGUTtGaiv8FUGvd4WNfnTJr/njrCCI/0GG4GkCudYffhNzEJyc+esvp+2x682dIhs7D2fttt24iSptJ+U1IJM8H8LZ1im+pnof7Nh+bqqdL2QBaoDcCkFQ9X8BsSkry3Nidle9bhxARUbBMnXrDXgBPlO8/vStaU/lt6woiA7r+gPyrADxiHeJXrvDuUaKelJSU5IjKfOsO31J329f+uvxWTBq1yTqFKO0mjVkHwUVQ8OJLf6mmbC/olAygp5XOOwjApFQ8VwC1QmXCXdW3v2IdQkREweMOaZkNYIx1hz/p08OdlhkAuJciBdKaSCSBrPgkAHwf2x+KMybPKjvJOoPIy+JZI0sU2M+6w6d2ijgTV1Ut2mAdQmRmQt6zcOQK8P16f12Cez44PBVPlJIBdCKp1wHISsVzBY2IzInWlv/RuoOIiIJnfCQSVsgC6w6fWu+6emFVVdUO6xAiS9GlSxsdVy4C0Gjd4keqcoN1A5FXFRYWhlTBPyP946o6xfXV5X+zDiEyNyH35xB8zzrDpwROeF4qnmjAA+jiq6/Og2BmKmKCR5bWV5dXW1cQEVEwjV23qQDAQdYdPtQsIpesrlu83jqEyAtW1ZW/rJDLACStW3xHMOGy2dceap1B5EVZuWMLAXzausOPFPhuQ+2i+607iDzjktybAGmwzvAnnYZ7t4we6LMMfAV0PPtqAMMH/DyBI0/Em/K4lxUREZkRVf4c6gdVlHFFEVF7DTXlvxPFd6w7fMhxXIcrPIk6o7jOOsGPVPUXDTUVP7LuIPIUEUXWjlkAnrNO8aFhQGL2QJ9kQAPo8ZFIGHCvGmhE0AjwTjwRvzQWi7RatxARUTBdPmPOcYCcbN3hNwKsaqitqLHuIPKi+tqKmxW4z7rDb0Rk2uUz5oyz7iDyksmz5x0P4HjrDv/R/wxJhrjfLVFnLhy3AyHnUgBbrFP8R8pwt2YP5BkGNIAeu67xYkAOHMhzBJDrQqbFli95xzqEiIiCy3G472hfqeC5vZzmK607iDxMhyScGQBesw7xmSGOhOZaRxB5iapebd3gQ82uYtLy5Ys2W4cQedbFo/4DlVLrDB8ah1DjpQN5ggENoAV67UAeH0Qi8oOGmvLfWXcQEVFw7VppJwXWHb4i2OKKTuShg0Td+3DwcRkA3unXF6LXT50590jrDCIvKL766jzs+nuE+kAVZatrK5+x7iDyvIm5dwHgHY19N6CL5f0eQE+eXvZZKMYP5MUD6A+tm9ffZB1BRETBJiKzAGRZd/iKizl3VVVyVSdRL0RrKv6h0G9bd/hMOOko77AgAqCJrOkAhll3+Ivcyy3CiPqgaXMZgGetM3xF5ETc03hMfx/e/xXQjlwLQPr9+MCRprAj02KxGE8HJyIiM5FIxBGRGdYdfqLAPdHaipXWHUR+ctgBo28D8Ih1h6+oM3Xq1Bv2ss4gMiai4MWYvlkbV2fAB4QRBcr0g5uBZDGAndYpviLS779r+jWAnjHjxhEqmNrfFw0kca9dUVX+lnUGEREF26vrGs8D8AnrDh95M+E0z7KOIPKbSCTiuq57BYCN1i3+oaOSQ+KXW1cQWSqeXfZVAIdad/hI0oEWx2oXbrIOIfKdgjEvAuAdW30hOgUPvD+iPw/t1wB6pzRfBqBfLxhMcm+0urLeuoKIiEiVt3j3gTpwSmJVVU3WIUR+tLpu8Xqo8CCxvrnKOoDIlCv8M9AHCl20qqbyT9YdRL71fO4iAH+0zvCREXCzJvXngf0aQItISX8eF1Abwq0JnrBJRETmLp9+3YEAzrXu8AtRLF1Vs2iNdQeRn0Vry2NQ/Ny6wz/0uOJZc4+1riCyMO2qBftDcLF1h4+8nBgR/o51BJGvRcRFWEoAbLNO8Q3Vfs04+zyAvmz2tYcCekp/XiyIVKRsxYrbeeshERGZc0LJqQBC1h0+8eYQzfmGdQRRJtBQ1lWAvGfd4RvKrQ4pmJLx5DQAYesOn3DVkVmxhQu5fy3RQF2U+zpEv2md4SMn4L7Go/v6oD4PoMMamg4ePtgrIvKrhupyrvggIiKP0GnWBT6hEJ1VV3fLVusQokzQUHXbB6JYYN3hG4JJhYWFvFhIgaMiRdYNviEob6gqf9w6gyhjXJJ3O4A/WGf4yBV9fUCfBtCRSMRR6OS+vkggCbZAXe5fRUREnjB5VtlJAA6z7vAFlf+LVlc+Yp1BlEnqa8ujUPm1dYdPjM3K3e8M6wiidCqaNe8oQD9v3eEP+nY8K/Fd6wqijCKicNxrAMStU3xBUYzHtE93rPRpAP3qug/OBuTAvlUFkyj+X31N5VrrDiIiIgCAOCXWCT7RGMpq+R/rCKJMlAy5ZQCarTv8QMGVoBQsoii2bvAL1dDc2JIl3K+WKNUuGf0CoOXWGT6xDzZu+WpfHtCnAbSqM6VvPYH1bGvThmXWEURERABwblnZEFXt12nFwaPfWrlsGfeqJRoEd1VVvqaqP7bu8ANRFJSUlORYdxCliUCUF116QVV/0VC76H7rDqKMldX8vwDetM7whZDbpx0yej2ALi0tHQbgoj4HBY9CZV4sFktahxAREQFA3k45B0CedYf3yd8PPWD0HdYVRJlsSHLrLVC8at3hA7ktodxzrCOI0qF45rzTABxk3eEDOwXuXOsIoox24bgdgHzdOsMXXBTg7veG9/bbez2A3pYcej6AXj9xUCmwIlpb/kfrDiIioo8I5DLrBh9QgVsWiURc6xCiTLZ8+fJmceQ66w4/EHG5+IcCQRxuv9ErKrdFa2/nykyiwVaQGwPwO+sMzxPshXD44t5+e68H0Cq8dbcXtocc55vWEURERB8pLS0dptALrTu8TiCr62sq/2zdQRQE9dXlD4If7HpBzo9EIn3aMpHIb0pLS7NU9VLrDh94N0eH3GIdQRQYjl4PgDsb9Kj3Z1b06g1N4TXXDBfg/P4HBcatq6oWbbCOICIi+sh2d8h54B1MPWlNOO53rCOIgsRx9esAeMdBt3SfV9duPMG6gmgw7dCh5wIYbd3hdaL4n7q6W7ZadxAFxiX5/wSwyjrDB87EQxtH9uYbezWAzm7JugjA0AElZTx5L8fNuc26goiIqC0V4R1MPVDBoruqKl+z7iAKklV1lc9BZYV1h/fJBdYFRIPJBVc/98KzhxyYv9I6gihwEslvAdhhneFxQ9AivVqw3KsBtDpu4cB6gsCN8IokERF5SeGCBUOhOM+6w+M2JaT5R9YRREEk4n4HQLN1h5cpwC2UKGMVFhaG+D6lZ67qt3lGBZGBSWPWAXq7dYbnqUzozbf1OIDe9eFVzhp4UUb773CnpcY6goiIqK3sbe5XAexl3eFlCvwsVlXVZN1BFET1NZVrAamy7vC4o6ZdtWB/6wiiwTBk1H6ngNtvdEuAJ1fXVv7KuoMosER+BGCjdYbHnY9frh/W0zf1OIAObUl8Bfzw2i0FflBVVRW37iAiImpLVS+xbvC4jUPdnArrCKIgiyfiPwZvb+1WIpkYb91ANBgUDlf490BdfNu6gSjQJuRthurPrDM8bhjiQ3tcuNzzANrhD4UevLbhAO7HRERE3hKJRBwA3Du0G6K4hdtnEdmKLV/yjkKXWnd4msp46wSiwaF8n9It+X20ruIx6wqiwEvidgCbrTM8rsdtOHoaQIuq9moz6cAS/cGaSCRhnUFERNTWS+s2nQRgX+sOD3vfac3mnm5EHhAOx28BV0F3TXG6dQJRqk2ZueAzChxh3eFlosozKoi8YFJ+EyD83NC98xHRbmfM3X5xSun8YwAckNKkTKJ4Y/3+o1dZZxAREXUUUh5c1YPKlStv3W4dQUTAymXL3oNonXWHZwkO4T7QlGlcuHyf0r2/1tdWPGodQUQfcRYC2GZd4WFjcGTTF7v7hm4H0K7LHwrdcrCIq5+JiMiLFDjbusHDtodbk0usI4hoNzcUug0A31d3IRl3uQqaMoqKe5F1g8dx9TORlxSM3AhBjXWGp4X0nO6+3NMWHN0+OOA2xbMStdYRREREHU296qp9ABxt3eFVCqleseJ2nmZN5CGrly16A8Dd1h1epYIvWTcQpUrx1VfnCYS/p7sieCFaU/EL6wwi6iCevBVAi3WGZ2n3M+QuB9CTJ5eNBHBcyoMyhcqS2JIlXH5PRESek0xmnQVArDs8Kp7lYKF1BBHtyXH1FusG79JjrQuIUqY1+0wAYesMz1KUA1DrDCLqYNKYdQBi1hkedhLubsrv6otdDqB1qJwB/lDoSms8GecG5ERE5FHC7Te6IMB9K6rK37LuIKI9raqrfE6ha6w7POqo0tLSLOsIolQQ6HjrBg9rDLVk11tHEFEX1OUssGshZOkZXX2x6y04RM8clJwMIJCfx5Yvece6g4iIqBMiirOsI7xK4Cy1biCirjkAP9h1LmdHYshnrSOIUkFFuad5FwS4g4ckE3nYxNF/huDv1hmepW6XC6G6HkCrcADdFU3yjTEREXnS5OllRyiwn3WHN+m/V9UsWmNdQURdW3fA6PsVWGfd4UVJR7o9XZ7IDwqnl+0NCC+mdC6RTIZ5SDKR93Em2CXp8gJjpwPoy2fMGQfg8EHr8TEVPFdfu/gJ6w4iIqLOuGFnvHWDh/HNIpHHrYlEEgLcYd3hRQJwH2jyvewQTgfPqeiUqj60+s6fvW3dQUQ9GJLbAOA96wyPOhQPvD+usy90OoB2xPnq4Pb4l6jyDTEREXmWqPtl6waPaok7LVHrCCLqmUDvBA/g2oMCR1k3EA2UCrj9RhdCjlNr3UBEvXCetAD6f9YZnpXIOq2zX+58Cw7BlwY1xr+akZVYbR1BRETUFenmtqcgE5FHYlVVTdYdRNSz+prKtQD3V+xIgEOtG4gGTB2+T+nc+rX75z1kHUFEveTocusEzxLt/QBagVMGt8anFPdHly5ttM4gIiLqzJQZ8w7j/s+dU8WT1g1E1Af8M9uZfUtK5udaRxD1V1Hp9WMAPdK6w5t0+ZpIJGFdQUS9dMnoFyB4xjrDozq9I3ePAXRJyfxcAXgoQCcU4BJ7IiLyLNfhHUxdUZUXrBuIqPfEkX9bN3hRayjJVdDkW+K2fhnc/7lTjuussG4goj5SrLRO8Kgjce+W0R1/cY8BdGuWntjZrwedAO8ktmz4nXUHERFRV1TdE60bvCokyY3WDUTUe6ou/8x2QsXhAJr8S4XnVHTuH6vqyl+2jiCiPgplRQHwzoU9CZzEHjtr7DloVj01LTn+E4vFYknrCCIioq6IOCdZNxAR0eBxBIdYNxD1lwiOt27wIoE0WDcQUT9cPPxdiDxsneFJKnv8fd/JSmfhALoTriN3WzcQERF1pfCaa4YDyi20upBUcN9UIj8RjLRO8CJV/Yx1A1F/FBYWhhQ4yrrDg9xQ2FltHUFE/aRu1DrBk3oxgBaIHpemHN9QYN1h4/J4EAoREXlWOB46FkDIusOrHN62TuQvrnO4dYIXKXScdQNRfzij9j8UwHDrDs9RPLli2cJ11hlE1E8JPAig1TrDe/acLbcbQE+ZueDTUK426EgU90QiEde6g4iIqEuKE6wTvExFuT82ka9wW8DOCGSsdQNRf4Qk+UXrBi8SkfutG4hoACblNwH4g3WGB43BfY2fbPsL7QbQLtxj0prjEyruL6wbiIiIuiMq/GDXHZWvnVtWNsQ6g4h6NvWqq/aB4GTrDo/iCmjyJ5fvUzoj6jxg3UBEA6X8c9wZV9qtgm43gFZHOYDuSLAl0TTmcesMIiKibgmOtk7wNh2V14wi6woi6lkykX0luKVQV0bMmHHjCOsIoj4THGud4DUK/GtV7cL/WHcQ0QAl3PsBqHWG97jt9oFuN4AWVV6V7EAUv4nFItzPhYiIPKu0tHQYgEOsOzxP5ZtcBU3kbcVXX50HoMy6w8ta0cJV0OQ3AggvlHfgAA9aNxBRCkwasw6Cf1hneE6HBVLtB9CQL6S3xvsU8ivrBiIiou5swdDPg6sFe+PQvJ3yDesIIupGPOtHAPa2zvA0x93HOoGoL4qvnPsZQEdZd3iNwPmtdQMRpYjiIesE75Ej2/7bxwPoKaXzxyqwX/qDPE0dR35nHUFERNQdx1VeQO697xTNmneWdQQR7aloVlkRgKusO7xOxeEgj3xFktz/uRPbWppyn7SOIKKU+b11gAeNw91N+R/9y8cDaE26n7Xp8S4F/r2qatEG6w4iIqJuiX7eOsFHQgK9t6h03pesQ4hot8tnlp0vkOXWHX7gqss9oMlXFPo56wYPWsOtPokySCL3KSi2W2d4Tjj58ax59xYcgsNNYjxMFI9aNxAREfVIhT/D+2a4uPpw8cy5U61DiAgomj23zBG5D0C2dYsvKEZaJxD1ifKcio5U8LB1AxGl0CRphYB3NXSkzscXIMNtfvkwgxRPUygH0ERE5AccQPfdUAhWFM+adwk0cV209vY3rYOIgmbKjHmHuSGtgOJr1i2+IhxAk88IB9AdhZL6R+sGIkox0cegwq3+2nJ0zwG0Cg6D2vR4lEp24nHrCCIiou4UXnPNcLRif+sO/9ICSOjC4llzY65qNCe59dHly5c3W1cRZaqpU2/YK5ETP0fgTnFVL4K2PxSdeiYQbsFB/iI4hLOGdjZ/5qDR/7SOIKJUCz0KuNYR3qL4+CDCcJtf5OqpdvSF6NKljdYVRERE3clqDR8GQKw7fC4LQLEjUtwaHhkvnjX3RQHWq2CrdRhRxlAdKZCDkmg9VBQh/rU1AIKh1glEvVU0a96+UOWq/faejEQinFIRZZrckU9j0+btEOxlneIhH98BEwaA0tLSYdtcHGDX4z2q3LuFiIi8T1QOU+GyohTKAnCUAkdxtRZRKgn/SKUKDzkiP3FwCAT4tyAAACAASURBVBcEdiRPWBcQ0SA4QxK4t/EZADzsfLf9cefrOZh+cLMDADsSQw4BePtbWw7wZ+sGIiKinqjop60biIgofVSwxbqBqNdc5f7PHbn6lHUCEQ2av1kHeIwgf/QngI+GziHnE6Y5HuQ64b9YNxAREfXCwdYBRESUPg6E2wORbzjAodYNHqPZrvOMdQQRDRJRDqA7chOfAj4cQLvqftI0xnt2Jjavfck6goiIqEeCT1onEBFR+iiUA2jyDVVwBXR7ry5fvmizdQQRDRInxAF0R4rdA2gFDrKt8RZRPB+LxZLWHURERD1SDqCJiILEdTmAJh8RcKuwthRPWycQ0SC6aORrADZaZ3iKyMHAx/s+C7fgaEMFvCWGiIg8b3wkEgZwoHUHERGlTzgU2mDdQNQHY60DvERFOYAmymQiCuA56wxPabsCWgAOoNvR560LiIiIenLQ+sZxAMLWHURElDaanch+1TqCqDc+vFC+t3WHl6jiBesGIhpkItzSt739Aa6A7pSD0IvWDURERD1Juu446wYiIkqrDXV1t3ALDvKFg95p2hcfzxwIALJEOYAmynSucgDd3lgAcAoLI9mA8qpkGwk38Yp1AxERUY9EeFsrEVGQCF62TiDqrdbWON+ntLfj0weMedM6gogGGVdAd7QfIuo4Q0c37Q1ArGs8Q7Bldd1i7qtGRER+sK91ABERpZGC22+Qb4RCof2sGzzmlUgk4lpHENEgc5IcQLeXhWO35juJJFc/t6PyCgC1ziAiIuoZV0ATEQWKclUV+Qrfp7QlvIBEFAgX568FsM06w1OSibEOoFw91Y77mnUBERFRb6gqVxYREQWK+4R1AVFv8X1Kewq8bt1ARGkgorzg1IE6Yx1VnkrblopwTyYiIvIH0X2sE4iIKG22rj9w9NPWEUR9wMOS23A4gCYKDsXb1gmeorqfww+v7TmKt6wbiIiIekUlzzqBiIjS5k9rIpGEdQRRrwlXQLflunjDuoGI0kRkrXWCpyjyHQBjrDu8xFXlAJqIiHxC8q0LiIgoPRS6xrqBqE94obwdVxzebU0UFK67zjrBUxyMckTBHwptKMCrFERE5BM62rqAiIjSQ119zLqBqI+GWwd4ydAENlg3EFGacAV0e4pRDoAR1h2eovqudQIREVEv8SIyEVEwbEhuffcZ6wiiPuIAereW5csXNVlHEFGaiHAFdHu5jqpyAL2bJreO+cA6goiIqCeFCxYMBTDUuoOIiNJAsDoWiyWtM4j6QjmAbutdAGodQURpkkxwAN1eriOOcAC9W1MsFmm1jiAiIupJeLuzl3UDERGlhyPOKusGor4SCAfQu/FOa6Igcd3N1gkek+tAeVVyN+XqZyIi8oUsJIZZNxAR0eAT4MVVVYuetu4g6jvlxfKP6SbrAiJKpxZuudPeSO4B3Y7wNwgREflCiyv8UEdEFAAK4epn8p0PtwoLW3d4hXDWQBQskw7cCYA7LOyW44D7MrW1zTqAiIioN7Ic7v9MRBQACWii3jqCqK+4VVh7CmyxbiCitNtqHeAZiiEOINnWHR7C3xxEROQPbpIf7IiIMpwAq6O1t79p3UHUV2G3hXdat6FQroAmCh7+uf+IYIgDaMi6wzOUK6CJiMgfXMEQ6wYiIhpU6ih+Yh1B1B9uUninVhuOONutG4gozYQD6DaGOIBwX6aPSbN1ARERUe84vIBMRJTZfrGytuJf1hFE/eE44lg3eImryr1giYLG5Z/7NrIdQDmA/ohowjqBiIioV5R3MBERZTJXcIt1A1F/JZyQWjd4iaOIWzcQUZqJ41oneMgQBzyZti0OoImIyBeUA2giokz2yOrqiietI4j6y0kkOIBuw3U4ayAKHuUAercsDqDbS1oHEBER9U6IA2gioswUDykWWEcQDUQixBXQHXAFNFHwcAC9m+sA4N5MHxHlD0kiIvIHhyugiYgykUIruPczUWYRVbFuIKK04wB6t6QDrvrdTXmgExER+YPDW7qIiDKOAO8knJbvW3cQDZTjcAuOdjhrIAoifl77iO5aAc1bQT6mWdYFREREvSP8+U1ElGFUsCBWVdVk3UFEqcY714gCiH/uPyJwHQgH0B9T4X7YRETkC8oLyEREGUZ/G62uWG1dQZQKoQT3gG5LhbMGogDayzrAQ5IOFK3WFZ4hmm2dQERE1BuqSQ6giYgyxwaFc4V1BFGqxEPcgqMddTlrIAocGWZd4CGuI0DCusJDeHWCiIh8IcQtOIiIMkVS4U5pqCl/1zqEKFUklMWFbm2IIyOsG4go3ZQD6N3ijnIAvZtgpHUCERFRbyQchx/siIgyww8aahb/3jqCKJWyd8S3Wjd4iYADaKIAGm4d4CHbHUCbrSs8QzmAJiIif8hK6nbrBiIiGrA/xJs2fN86gijVdu7cmwPoNlSVgyii4OEK6N22OwC2WFd4CK9KEhGRL8SznG3WDURENCCvxJNaGIvFktYhRKkWi0VaAbRYd3gIF7sRBckdmgUgxzrDO2S7oxxAt5VvHUBERNQbyZYkV0ATEfnXejfsnB27s/J96xCiQcRV0B8SYLR1AxGlUd7GfQCIdYZniG5zoBxAtzF6fCQSto4gIiLqUW6YK6CJiPxIsAXinL962aI3rFOIBhkH0B9S6D7WDUSURqHwvtYJnuJim+OIcAC9m+z9xntjrCOIiIh6Elu4cCd4kDARkd80w5ULo9WLnrUOIUoDDqA/5uxtXUBEaeS4HEC3JdjOFdAdDHFC/E1CRER+0WQdQEREvbZdFROiteV/tA4hSgvOGtrQUeeWlQ2xriCidBHOFttS2eJA+EOhLTfk7GfdQERE1EsfWAcQEVGvfOA68tWG2orfWIcQpY9wBXQbeTtczhqIgkKVf97bEn3fcaGbrDs8RfUT1glERES9IcBG6wYiIuqB4g3HlS+trir/i3UKUVqJy8Vu7YQ5ayAKCuEK6HYUHziOynvWHV4iwEHWDURERL2hHEATEXmc/ltET1tVV/6ydQlR+jnvWhd4Cxe7EQWGi09bJ3jKrhXQ4A+FNhT4pHUDERFRL3ELDiIij1LgnrjTcmp9TeVa6xYiCwpssG7wFIcDaKLAEPmMdYKniPN+OBRy3nNd1zrFQ+STxgFERES9IpAPFGqdQURE7W1XoKyhpuJO6xAiSwKst27wFJVPWicQURpE1AEaDwbEusQ7ku77YceRdzl/bucQ6wAiIqLeUMUGvq8hIvIOAV6E414WrVr8T+sWImsKbODblHY4ayAKgs9vPhCQHOsMT8lKfuDkuNvfA7h8ajfdZ9q0a0dbVxAREfVEHV1n3UBERACAOBQ/ax0ROraew2eiXcThCuj2jrAOIKI0EOH+z+25eGfM+05VVVUcQKN1jZcks+Rw6wYiIqIeifCDHRGRvT+I4x4bra24PrZw4U7rGCKvkHAz36e0tzcXuxEFgPJuhw424EqJOwCggreta7xFDrMuICIi6knYTXIFNBGRnfWAXBGtqTiDq56J9hRdurQRAC/KtNE6JMRZA1Gmc3CUdYK3yFsA4ACAKN4wbfEYV5zPWzcQERH1JJTYtgHcRouIKM3kPUC+Fc9OHBatKV8B/j1M1J0N1gFeEoJ8zrqBiAaZ4hjrBE8Rd/cAGhxAtyNQ/mYhIiLPW758eTMg71t3EBEFguINAebERzifjNaU/yi2ZMk26yQi7xMOoNtQ1S9aNxDRIIqoAygXtbalu3bdCO/6N3mTF+7bEBwDQMD/KERE5Hnua4DsY11BRJTB/qaQig0H5q1eE4kkrGOI/ESAtxQ41brDQziAJspkx2w9BEkMt87wFtk9gBZH31COWndTjLystOxTd1VVvmadQkRE1D15HcDJ1hVERBnmTaisdhR3rqorf9k6hsi3BK9yWVc7R5WWlmZVVVXFrUOIaBAkE8fsWs9KHxO8BXw4gFY4rwOubZDHhF3nOAAcQBMRkdfxZxUR0cC5AJ5X6KOOOHfVV5f/zTqIKCO4eJmzmHZytiP7cAA8uJQoIzlf4GYKHSheBz4cQGfH8UZr2LbHaxQ4BcBd1h1ERETdEv0vlJ/siIj6KA7geQj+6EDWuOHWP0WXLm20jiLKNCrKOwg6cJNyCjiAJspQyi2H2nORtfNV4MMB9PLlizYXz5r7LoB9TbO85RTrACIiop44itd4DxMR0ceaAewE0KjADtn1z+8DeB2CVwXuK+o4/xmuzW/wFniiwZfj5rzS7DRbZ3iKCE4BcId1BxGl2EM6BM2Nx3MLjnbewoXjdgAfH0IIKPRFgXAA/TE9uvCaa4bzdGsiIvIyCcdfRiLbOiMTtAJ4WFUfFJG/xzX0OrasbYrFYknrMCIiIr+qq7tla/GsuRsAjLVu8Q75knUBEQ2CnZtPhEiOdYa3yEsf/dPHA2iB8yKg4016vCmc1Rw+HsBj1iFERERdWbls2XvFs+Z+AGCMdYtPJaFYHM4K/XTFsoXrrGOIiIgyjUJfFggH0Lt9akrp/LGrqhZtsA4hohRy8GVu/9zR7m2Y2uz87L7EZeIdODgDHEATEZHHKfCiAKdZd/iO4AW4Oj1aW/lX6xQiIqJMJZBXAIy37vASV93TAay27iCiFFI9jXPVDtqcA+B89A8K50WbGi/TM60LiIiIeiIAf4b3leLxnGTOSRw+ExERDa4PB9DUhgJnWTcQUQrdoVmAnGyd4TnqdDKAToZe6vy7g0xOKCmZn2tdQURE1C3BC9YJfqLAn0Kt2efU1d2y1bqFiIgo0yXV5ayhA1HlAJook+yz+VQAI6wzvCf0r4/+6eMB9Oo7f7YWwGaTHu8KtYR4qxAREXmbuPhXz99FH9qYFQ4VrVx563brECIioiDIzgo/a93gPXJgUemcw60riChFVM+zTvCgtSgY8d5H/+K0+YJC8IxBkKeJuOdaNxAREXUnFE/yg10vCeRaHjZIRESUPiuWLVwnwDvWHV4jrnzNuoGIUkU4gN5Tu8+obQfQUNWn09viCxeCu4gTEZGHrVhx+0YAb1p3eJ0ALx5yQF7MuoOIiChwRP5hneA9cpF1ARGlwN2bDgLwOesMz+mwyLndAFq4ArozYy+fMedY6wgiIqJuifJneA9c4KeRSMS17iAiIgogDqD39GWeOUWUAUK4wDrBk7SbFdBJDXEFdCdCodCF1g1ERETdUZcXkXuQlKz4/dYRREREQeS67t+tGzwoKx7ivrFEvifcfqNTIs+1/dd2A+gjDsh9GcC2tAb5gKtaYN1ARETUHcdxeBG5e09Hly5ttI4gIiIKIlXlCujOiF5snUBEA/Dg5jwAZ1lneFATLhn137a/0G4Aveu21PYTagIEOLJo9gLu50JERJ7lhFr+at3gcXx/Q0REZGR13eL1ADZYd3iNAudNnXrDXtYdRNRPLZgIINs6w3v0LxDRtr/i7PEtcP+cviD/EE1eZt1ARETUlZXLlr0H4DXrDq8S4APrBiIiooDjKug9DU/mtHLLTyK/Ei2yTvAkkSc7/tIeA2hH5In01PgOB9BERORpAjxl3eBVLrcYIyIissYBdCfU5QCLyJfufm8/AKdbZ3iS9mIA7XbyTQQAOPTyGXOOs44gIiLqBu9i6oJA9rFuICIiCjQRXijvhIicUzhzQb51BxH1UThrEoCQdYYHuUi4e2wPuccAuqGm/F1A/5OeJn9xHKfEuoGIiKgr4jj8YNe1A6wDiIiIgiyeFX8CQNy6w4Oys53kJOsIIuoj1WLrBI/6FyblN3X8xT0G0AAAdR4f9Bx/KiopKcmxjiAiIurM2nG5zwPYat3hRQo9EYBYdxAREQVVbMmSbQL8zbrDi1RlpnUDEfXBPZuOgsiJ1hmepJ1v7dzpAFqh3Ae6c/nx8KiLrSOIiIg6syYSSUCFF5E7IcD+k2fP41ZaREREhhS6xrrBm/S4y2eWHWNdQUS95EipdYJnOW6nWzt3vgI65PLDaxcUyiuTRETkWSruY9YNnqUotE4gIiIKMoWzxrrBqxzhKmgiX7j77aEAJltneFa888+jnQ6gG6oWvwTo24Nb5FtnFpXOOdw6goiIqDPqKgfQXVDojMIFC4ZadxAREQXVCGfnEwBarTs8anJpaekw6wgi6kF4eBGAXOsMj3oBk8as6+wLna+ABgB1Hh20HH8Tx3WusY4gIiLqTHLru88A2Gzd4VGjs7ckiqwjiIiIgqqqqmoHFH+17vCo3K3JIVOtI4ioR1daB3jYI119oesBtON2+aCgU6Bk8uSykdYdREREHcVisaSq/tG6w6tUZI51AxERUaAJeLdWF0RQBh6aTORdP286HsAJ1hke9vuuvtDlAFrVeQSADkqO/43QHGeadQQREVFnHJGHrRs87Jgps8pOs44gIiIKKoW7xrrBu+RzRbPmnWldQURdEPdG6wQPS0Lwh66+2OUAuqGm/F0A/xyUpEwget34SCRsnUFERNSRuqFfWzd4mQv5unUDERFRUCVGZD0FYId1h1cJdK51AxF14uebPwVggnWGd8nfMCGvy60gu96CA4BCf5f6oIxx8Lh1my61jiAiIuooWrfwv1C8at3hYRdMnTn3SOsIIiKiIIotXLhTVbnlZ9fOn1w65/PWEUTUgYPrAYSsMzxL9bfdfbnbATSgD6WyJdMo8A1wfyYiIvIiEa6C7pokHfD2OSIiIjPyS+sCDxO4oW9aRxBRG/duGQ1Xr7DO8Db5RXdf7XYAPcJp/ROAxpT2ZBBRfGHyjLKzrDuIiIg6Ekn+xrrB0xSXF8+89hPWGUREREGUSCYeBOBad3iVQiddNvvaQ607iOgjybkQ7GVd4WHrUDDqme6+odsBdFVVVRwAV1B1Qx1ErBuIiIg6ah2etQbANusOD8uChL5tHUFERBREseVL3hHF36w7PCwU0tA3rCOICMB9jbkAyqwzPE3lFxDR7r6lhy04AAh4a0y35OTi2fPOtq4gIiJqK7Zw4U4out2Hi3DFZaVln7aOICIiCiKXs4aeTCsqnXO4dQRR4LlyI4A86wxPc9we/z7vcQAdl+ZfA2hNSVCmUvwA3AuaiIi8xtH7rBM8Lstx5TvWEURERMHEfaB7EBJXItYRRIH2yy1jIDrHOsPTFNuxuemxnr6txwF0rKqqCcAfUxKVsfS4opllF1hXEBERtZUdD/0KQNy6w8sEmMLVRUREROnXUFP+PBRvWHd4m0y6fGbZMdYVRIGVSH4LwAjrDE8TPIzpBzf39G09b8EBQID7B16U2UTw48LCwpB1BxER0UeWL1+0GYIer0YHXEhc52brCCIioiASbsPRE3Hg/NA6giiQHnh/HBRXWmd4nuo9vfm2Xg2gW5N6N4DEgIIynnwuO3fcDOsKIiKitgTgNhw9u3jKrPnjrSOIiIgCR/GAdYLniZ5bPLvsTOsMosBJhG8CMNQ6w+N2Ipzs1YXEXg2gY3dWvg9gzUCKgkAVP5gx40YuzSciIs9wJesecBuOHrlwF0YikV69LyIiIqLUOOTA/McUWGfd4X1SPj4SCVtXEAXGzzd/EYLp1hk+8CAu3ntrb76x1x+0VHFX/3uCQvdpdpq/bl1BRET0kYaq2z6AyiPWHT5w9Ktvb5pqHUFERBQkkUjEFc4aeqb47Li1G2dbZxAFgqpAdBH6MDMNLJFe//3d6/+Ykh3/OYDWfgUFy42Xzb72UOsIIiKi3bTBusAXBDcXlpaOss4gIiIKEifk1Fs3+IPcVFIyP9e6gijj3d84GcBp1hk+sBXxrQ/19pt7PYCOLl3aCODhfiUFy5CQOhXWEURERB/J0Zz7Aey07vA6BfbLcofeZN1BREQUJKuqFj0N6L+tO3xgTDzk8kBCosF093vDocIDynvnAUw6sNefMfu2nFx0dZ9zAknOLppZdqF1BREREQDU1d2yVYFfWXf4g15bPHv+0dYVREREweJErQv8QAVXXV4670TrDqKMFc7+FoD9rTN8Qfs2I+7TADrUPOR+CLb0rSiYRKR86tQb9rLuICIiAgBH5P+sG3wiBE0u4YGERERE6eOGJQpArTt8wHFcXcYDCYkGwT2bjgL0eusMf5B3kJ/32748ok8frlauvHW7usoDAnrn4GRO6/etI4iIiABg3f55vwGwwbrDH+TkV9ZtKrOuICIiCorVyxa9AcUT1h0+cfT+axvnWUcQZZTHNAxH6gBkWaf4xHKcIYm+PKDvq3s0dGefHxNUinmXz557inUGERHRmkgkoYKV1h2+ofjRlJkLPmOdQUREFBTigIcR9pJCb7ps9rWHWncQZYzGxhsAHGud4Rtuos931/Z5AN1Qt+gpCF7o6+MCynEUteeWlQ2xDiEiIoK4vIjce8Ncce8AINYhREREQdDqhu4G0Gzd4RPDQhqu45ZhRClw75ZDAfmudYaPPI5Lx7zU1wf16y8rVV3en8cF1OF5O8HfyEREZK6havFLgD5l3eEf+pWi2fOutq4gIiIKgljtwk0QxKw7/ENPfXndpvnWFUS+FlEHSFYDGGqd4iP9WtTUz6tlzgoA8f49NojkG0Wzy063riAiIlJItXWDn4jqT4tK5xxu3UFERBQEmnSWWjf4iSh+wPcpRAPwhaYbAHzZOsNHtiGU6NeFwn4NoBtqyt9V4IH+PDagHFGpmzHjxhHWIUREFGyJEaHVADZZd/jIMHGdaGFhJNs6hIiIKNM11C16CsA/rDt8ZKi4obtLSkpyrEOIfOe+zcdC9fvWGb6ishIX7721Pw/t/35Boov7/dhg+lSz01xuHUFERMEWW7hwJxTLrTt85piskY03WUcQEREFgYjcYd3gL/r5lvCoH1tXEPnKb9/ZC+rWA+Aik74Iuf2+S6XfA+iG6so/AHi+v48PqOnFs+ZNs44gIqJgS4Z0CQDXusNXRL9ePHve2dYZREREmW4v2VkPoNG6w08EOm/y7HkXWHcQ+cb2IUsAOcw6w2cewyX5/+zvgwd6YurtA3x8AOmSy2bNP8K6goiIguuuqsrXADxq3eEzDlRXTp5VdoB1CBERUSarqqraIcAq6w6fEVXUTrtqwf7WIUSe9/NNxQC4OLSvVJYM5OEDGkAPd5pXgftI9tVeDty7S0tLh1mHEBFRcDki3Eqr7/ZWOKtLS0uzrEOIiIgyWQLOUgBq3eEvuk8ikYjx3AqibtzzweEQ4WGnfbceH4wa0FmAAxpAV1VV7eA+kn0nwJHb3CH8DU9ERGY+s3/egwBese7wHz11WzLnZusKIiKiTHZXzaIXIVhj3eE/cnL2qE23WlcQedJDG0fCCd8LYKR1iv/oElwp8YE8w0C34AA0dDuA5ICfJ3BkWvHsufOsK4iIKJgikYgL6CLrDl8SXFc8c+5U6wwiIqKMpsq7tfpBgbLJM+cVW3cQeUpEHTQ7UUC5JW7f7UAiq2qgT/L/2bvzOKfKs43j132SDKDsohUE6761VnGpFa3iWtdatcFJhkGYyUREkoC7rdWotS5VZyZhcyYDIzAZNK8LWotSa3GlrqhYN2jdADdkX4ZJcu73j8GqdWMgyZPl+v7ztm/xnN8HYZLcec7zbPMAOj619j9QJLb1OiVJcTsPNCIiIlO6W5vuArDcdEdBEjSU+0NHmM4gIiIqVvsM3OEBCN4w3VGIVLSJ71OIvuLAVdcBON10RkFSTMWwHp9t62W2fQU0ABt6ayauU4IcUJ3prRq/h+kQIiIqPZsP+bnTdEeB6mrZel951dgBpkOIiIiKUTgctqFyh+mOAtXVsvU+HkpIpc7tdjtw76oTIfi96ZYClYIrMz+HMzKAntUUXQDB3ExcqwT1g5V+2HvhhX1MhxARUelpT6UmAGgz3VGgBliW9aB7zJjupkOIiIiKUXJ1nxkAlpjuKFADUqn0bL/fv53pECIT/H6/y9Wr/5xhj914HIAW0z0F6m78uve7mbhQRgbQAKBq35Kpa5Wg/ZB0PXBqINDFdAgREZWWRPOkjwE0me4oYIeWJV2zhobDTtMhRERExSaRCLeroNZ0RwE7dK3ddabb7XaYDiHKMVmnXZsAnORMbvqdd07YaaWSNwJQ02EFxcbtmbpUxgbQrbEJjwPyYqauV4KO6dMmjQDEdAgREZUWO+28BUC76Y5CpaqnD1iyYrLpDiIiomLkbCu7EzyzYqsJcLarV/9JpjuIcqnCF/wTFF8eGq5aXj73jyf0WL9qNKB8+nNLiPwVv+2zIFOXy9gAuoN9U2avV2IUlRW+EFeSExFRTs2adseHKphpuqPA+bw1gatNRxARERWbGTNuWy8iHKBuGz/fp1Cp8PoCFypw5bf8T78484naK3b5+I3RAFbkuqvgiH1zJi+X0QF0PBa9H8ArmbxmqVHoZR5f6Nv+ohAREWWNWLgZQNp0R0FTucFbHRprOoOIiKjY2OKMAlhvuqOgqVzvqQ76TGcQZZPXFzwLkOj3/JI9jn35nrojX5s9HtC3cxZWeP6G3/R9KpMXzPAKaKiqdV2Gr1lyBPonry/oN91BRESlI35nZBGAu013FDzRSEV18HzTGURERMWkteH25VDETHcUOBHBFI8v4DEdQpQNFdXBEwC0AvihPc97777k5dgZ8yZOBvBE9ssKkKU3ZPySmb5ga1PdbAAvZfq6JUYATPL4QsNNhxARUQlxIAwgZTqjwIkKmjw1oXNNhxARERUTW+1bAWww3VHgHAKZ7vUFzjEdQpRJ3qrgcSp4EEC3LfxHXD03fFY37LE/vQjVlmy2FR6Zk+nVz0AWBtAAVETCWbhuqXEItNlbHaz84V9KRES07Tavgr7LdEcRcIhqK4fQREREmTNr6oRlAkRMdxQBJyCtXl/wNNMhRJngqQkcCwsPAdius/+ss33TJd5HruvqTCf/BEAzX1eAsjTTzcYAGi2N9X8RxXPZuHaJcUAwjSuhiYgoV5yWXA9gk+mOIuAS1bu9NYEK0yFERETFot1quxnA56Y7ikAZgPs91eN+YzqEaFuU1wSHiMpDALbf6ouonjvs0T+eBWQtaAAAIABJREFU1mfN8osAbctcXUF6EGf3ej4bF87KABoAoHpN1q5dWjpWQvtCI0yHEBFR8ZveUP8BwD0WM8QBlWZvTbDcdAgREVExSDQ0rBbITaY7ikSZiH0Pn9iiQlVeExxiKR4B0CMDlzv41KejV+z28WtjAKzIwPUKkQ3Btdm6eNYG0C1To3MhmJut65cYB6DN3urQeNMhRERU/CzLuhE8aT5TnFDMrKgJ1ZgOISIiKgau1OqJAD4w3VEkXKI6q6I65DUdQtQZHl/oJEvxKDIzfP7Cj4csuK9uyCv3Xwro2xm8bqGYgbP7vJKti2dvBTQAVbkMgJ3Ne5QQgegd3urQzaZDiIiouM1sqPsIwG2mO4qIQ1XvrKgOXmU6hIiIqNA1Nze3QTRrq/RKkFNFp3tqQmNMhxBtCY8v4BHoXwB0z/jFFT13W/ZKw+nzJsQAPJHx6+evjUhldycLZzYv3hqrf83jC84Q4Pxs3qekiF7h8YW67DuwzyXhcJjDfSo43uqLfiyW80Ao9lXVASLYSVV2gKgLABRYC9XlIvgMkPfVkjfE0f6v+OTJK023E5USx6ayP6e7tPsB9DfdUiREBX/yVgf7xZsil4KHnFCBcfv9vbrYXX6WFutAS3WQDfQXlZ2+eP0GoAJZDuhyW3W5WPJOWq1XPxnYe9G8cDhlNJ6Iik5y1ccznL36XyLAT023FAmHqE70Vof6x5vqrwHfp1CeqvAFxinkdmR3Qa2z14blfx726J+i9/zqqg8BKYFz2eQODOuT1SdLJJsXB4AKX2CgQt4B0C3b9yopinuTPR2VidrajaZTiL5PpW/s7mnIKQo5SYChAPps5aXeAuQfAvtxa1OXOTNm3MbtAbaA1xf8EMBA0x35QlQqWprq46Y7CoWnOugTQaPpjqKjmFWWXjOqubm51A85oTzmHj++W9k6+wSonqzASQD228pLtSnwgqWYI6p/nTk1+momO6mweX3B6wH8wXRHHlkQj0UOMR1RKDzVgTNF5EHTHcVGBVM/2qXvBfzykPKMeKtDN0H0ipze1bIeuuek37+QcjivQw5mqIZ8hq72XjhthzXZvElOfvO8vsCNgPwuF/cqJQI8a1uus1obbl9uuoXoq0aOHNd7k0u9lmqFAkci8z9r1gvkQVt1emtT5FHwG/rvxAH013EA3Tlut9vh6jVgAaAHmm4pNgI8257W3ySmRT8z3UL0Vd7q0DFq6fmici6gvTJ+A8V7Kog5LGvq5u1+qIRxAP0NHEB3ktcXfALAMaY7io0Aj7RbbeWJhobVpluI3O5wmavnyjshOtJQwoI5x4xtWNm9Xy0gXQ01ZI/oGJzdd3K2b5PVPaC/IBtxiwAf5+JepUSBIWK3z68YFTjAdAsR0PHEg8cXuK3daX8gqhMVGILsfNG1vUI9IphT4Qv+y+sL+k8NBLpk4T5EJS2RSKQVuMR0RzFSYIjLIfM9/rFbu6qUKGPcbrfDWx1ye33BFyH6hCiqsjJ8BgDBbgL80bbtD7w1wXs8NeN/kpX7EFFJEMseC4ArdTNMgVNc2vVZb9X4PUy3UGnz+EI/cvVc8XeDw2cAGHzKkxOu3v2DV8cC+NxgRxbIm+jdJydPvOZkAN3SEl2jkNwuky8Zspc65DlP9bjfmC6h0uUeM6a71xcMK2SRQC5BZk+i/V4K7A/gzj4bscjrC/rD4XBOfq4RlYrWWP3fALnPdEeR2lNsa35FTegM0yFUujy+0EnOXv1fgeg9AA7N4a2dULhF069V+IIzOOQgoq3R0jBhIQRR0x1FSXEArPRz3uoQV5iTEcP94w4R2C9AcLTpFgF2OfL1++uGvJK4CpC3TPdkTvpiHCc5+RIvZ4OaeKx+BhRP5+p+Jaa7iH2v1xf6HYp3TxrKU15faISr3fkfANcCMPg4igwCcOeiD1c8y6cCiDJMUxcD2GA6o0j1VtXZnurANeBrOOVQedXYAZ7qwGyBzjV8iJelwHBY6dc9vsBlQ8PhrB6STkTFRzZoGMAy0x1Fqh9E/+atDo01HUKlxeMLeGzbfnrz5/x80X23Za9PPvOJyAwA80zHbDu9B+fs8Eiu7pbLlYJqqfLxmOyxAL3RWxO4b+TIcb1Nx1Dxc48K7OjxBe8D9C4AO5ru+YIKjlCHvOzxha7kamiizIg3TXwfwM2mO4qYJSLXeX3B+91+f3a2PSD6Ck9NcJhlWQtF5NemW76im0BuHbBk5fzzfOP2Nx1DRIWj44lrvdR0RxErg2jU6wvO9Pv925mOoeK2eVuwmwXSAqCb6Z5v4eixfvmN58298W0IZpiO2QYboHJ5Lm+Y0+FMx6nXMimX9yw5Kr9pd9ovDfeP4+EVlDUeX+ikMoe8JsDZplu+QxeB3rRoyYqHvRde2Md0DFExKEut+TOA/5juKHJnueyuL5dXjT3MdAgVp8rKS7f3VoemieJuAH1N93w7PcwB+zmvL3CO6RIiKhytsWgrBP8w3VHkKtbZ3f7pvSC4t+kQKk4jRo/fxdW7/98gegXy/MlAR6r9goqHr92xLLnhSgC26Z5OE7kO5/Z5P5e3zPnqwKS18RoAn+T6viVmD9u2n/H6Ahciz//SUmEZGg47PTXBPwn0EQV2Nt3zQxQ4BUnXC5XVQZOPFhMVhebm5jYRm49fZt8elmU9460OjQdfwymDhlcFDkp3aX/R8CE+W6oHIP/nrQ7dAP49IKItJCkdCyBpuqO46YFI4yWvLzTCdAkVl+E1oV+nUulXoDjOdMuWUuCU3/7t1oo+qz8KANhouqcTFqFLr/pc3zTnA+hEQ8NqiF6S6/uWoK6ATPL6grMrR4/eyXQMFb7y0eN2G7Dk8ydFcRUM/OzYBnumBU9U1IQONx1CVOhaGifMEUir6Y4SUAbRO/gaTplS4QteZFvyTwD7mW7pBIHo1V5faCI4hCaiLdAyLfqGQOpMd5SAHoDe5fUFWyoqAj1Nx1BhGzlyZFevLzjBVn0AQD/TPZ2nB572zJQ/7PPBiyEAy03XbAEFZDROk025vrGRIVK8Mdqiqg+auHcJOjOd6rLQUx0403QIFS5vdchtpeyXATnSdMtW6quqj3t8Y483HUJU6GxgPIAVpjtKxJnpVJeFw2tC+bRPLxWQytGjd/LWBO5XYAKMHhS8LfRCry/YxHMdiGhLtJclrwf0Q9MdJcKr3eQVjz90tOkQKkyemvE/aXf2eh7ARSjgL5sV2Pmw1x+qO3rB3dcC8pbpnh/QhHN6P27ixsbeyLkcVgDAWlP3Ly26k4jM9lQHGni4EXWGe+SYnb2+4EMQvQdAoe+l3F1gPcSV0ETbpjVW/4kqrjDdUTp0J1t1trcmOL2q6vIepmuocHirQ+50qux1qPzGdEsGjHpn6YrbTEcQUf5LTJq0DoIqAGq6pUTsLrY+6fUF76ysvHR70zFUGIaGw05vTTAkmn4O0ANN92TIdrt+9MaEs564YzaQt/vRf4Sy3B48+FXGBtDTG+o/EOAqU/cvQSIiNS676+teX/A00zGU/7y+0AiX07kQwBmmWzJoO1WdXeELDDQdQlTIWpsiTQqdZ7qjpCgq26TtNU918BTTKZTfPP5L+lX4gndv/vJ4R9M9GaMY76kJjTGdQUT5L94YfUxVY6Y7SogA8Ke7tL9cXhMcYjqG8lt5dWDwgCUrnoeiDkCxfWkh269fdUX53D++a6nOMB3zDYqLcEbvlaZub/RRtr0H9p0MxdMmG0rQQAAPe32Bu9yjAsXzoYQy5jx/YE+vLzgX0LtQkHsw/aD+CnmQ39ATbRO1LfgArDcdUlIEu4lgToUvOIOv4fRtPDXBYWInX1dgmOmWbBDVem9VsGAOJyIic6w2XArgfdMdJWYfS/GU1xecwCev6X+5x4/v5q0O3WyJPA9gsOmebLJSyaryOeEBZe0brwJgm+7pILNwbp/7TRYYHUCHw2FbHXYNgDaTHaVJRrgc8panOnAB99QjAHC7w2UeX+hKhy2vATjJdE+WDU53ac/5qa9ExeTuhui/Vcw9wlXKFBjucsgb3prASBTwfnmUOefVXLSP1xecK4q7AfzIdE8WOWHpXd4LLyz0bcGIKMtaWqJrRFENbsWRaxaAi1x21ze9NcFy0zGUH4b7xg11rUm/CtErADhN9+TICe7Hbh6xw8qlQQAbDbd8DjhChhvMDqABoLVhwlsCudp0R4nqKyJTFn244tnh/nGHmI4hczzVwVNcvVYsFOhNALYz3ZMjVXyUnWjbtDbWTwbwd9MdJaofVKZ5fYFnyqvGHmY6hszYvJroBoc6SuHL481kENpdk0xXEFH+a2mK/B2QKaY7SlR/KFq9vuDcilGBA0zHkBmVvrG7e3zBhA37HxDsbbon1xTY/1fzG67d+71nLwaw3FyIXIRzenxq7P6bGR9AA8DeA/vUQvJ2k+6ip4IjbNt+wesLTi2vGjvAdA/lzvDq8Xt5qgOzRTAHwD6me3JMRJQHcxJtG4WmqyFYYzqkdMmRlmU956kONHBbjpIiFb7Ab11r0/+C6NUAupgOyilBeUVNqJjOqCCiLEmWJS8H8B/THSXsJHXIq96aQHTEiIt2MB1DuVFREejprQ7dnIb1pgC/Nd1j2I6Hv/Fo7bEvzboBkDdzfnfBDJzb++6c3/db5MUAOhwO206RkQBWmW4pYRaAUZZlveOpDlzj9/tLZRVsSaocPXqnCl8wYkv6XyLya9M95sggV7rrNaYriApZvGni+1C52HRHibNEpMbllMXemsDV3OO+uFVUjz3K6ws8o5AEgN1N95iiqn/2+/0u0x1ElN8SkyatU9Eq5M0+rCXJCZWxqTLHogpfYNypgUBpfWlaQtxut8NTHfRpN3ln83Yb/Hfdoesun7xZ9+t5dzwA5HTx7RK4xPjWG1/IiwE0AExvqP8AomNNdxC2F5Hr1tldF3urQ2Pd7nCZ6SDKHPeYMd29vuAf0qmyxQoEAPDfr+DCEaPH72I6g6iQxWP1TVDca7qj5Cl6QuWGdJf2RV5f0D80HC6VPfZKQsc+z6F7VaynATnSdE8e2G+d3eVC0xFElP9aG6NPQBE13UHoo5DaPhvl7YrqQBXfpxQV8foC57h6DVgggkYU93kUW0u6b1h1VfmjNyy1bLsxB/ezoRiBM3qvzMG9tkjeDKABIN4YbYFilukOAgD0h2jU1evzxfwQW/gqKy/d3lsTDJW1OxcBuB5AD9NNeaRbKmX/3nQEUaFLwuEHsMR0BwEA+gO4c8CSz9+sqA6ez9fwwja8evxeXl9wqkMdrwN6jume/CJXcrEEEW2JldvpFYC+bLqDAAA/VpGmAUtWvF7hC50XDofzai5FnSIVNcGzPTXBBYDcC+iBpoPynZVODS9/5Lp9u25a/3tk9ckMuRXn9smrrY7z7y96WXIMoB+azqAvyCAAdw5YsuItT3XgAj4uU1iqqi7v4fGFrkx3aX8PijoFdjbdlJ+0mqugibZNoql2hQWrEnzENY/IXipoHrBkxVseX3AUtysoLMOrQvt6a4LTbUm/CWAUAP77+6b+ZT1XeExHEFH+mxONbrLUeR7Prcgr+yp01jtLVvyrojp4Pt+nFBTxVI/7jdcXfFkV94niINNBBeaYcx67dWS/lUsvAbQtC9d/Bale12bhutsk7wbQ8cmTV9oi5QCSplvoa/YUkSl9Nsq7Hl/gsqqqy7mCNo+NGD1+F09N8JY2q+0Dgd4EoJ/ppjxXlkrZ55uOICp0M2N18wS41XQHfcOeAkxdZ3dd7KkJXszX8Pw23D/ukApfKG5b+gYUlQC4gv17qIB70BPRFpnZVLtYVPymO+gb9lNB87p013c8NaExPI8qf7nd4TJvdbDS6wu+LGLfD+Bg000FS7D3yfMb/rD/u09dDOCTDF55HZD2Ypi0Z/CaGSGmA76Lxxe4TCD8EJuvBGtUZapt2RPuboj+23QOdfDWjDtY1R4ngAfc37mTdHE8Ft0HgJouySSvL/ghgIGmO/KFqFS0NNXHTXcUM7/f71pnd/sHoEeZbqHvIqtV9E5LNdoSi3LblDzgdrsdrl47nwVICMAxpnsK0GHxWOQl0xHUeV5f8HoAfzDdkUcWxGORQ0xHFLuKmtAUVb3AdAd9pxVQabRtx8RZ0+7g0/F5wD1yzM4up/MCAUbzqeqMa/94x71///jhlVWA7r/NVxOtxNl9Z2agK+PydgANQCpqQg+p6ummQ+h72QAeFlsn7L3rDo+Fw2E+ep1jpwYCXfpusM6F6EUKDDHdU9BUjo031T9pOiOTOID+Og6gc6PCFxiokJcB7Gi6hb5XSoGHAJncGqt/DEX2BVwh8F54YR+0l42EaADA7qZ7CpbKLfGm+itNZ1DncQD9DRxA58DIkSO7bnL1/Ce3Dch7KQHuE1iTZ8bqngDfp+Sc1xc8FIIQFMMAcDvWLNqwfe/bHzh2/GAAx2/1RVQm49zeYzJXlVn5PIDGiBEX7ZAqsxZs3oeY8p3iPQimCnQaV1RlX8WowAG2U84XlZGA7mS6pxgo9PbWWPRS0x2ZxAH013EAnTsVVYGT1ZI5yMPtvuhbKBapaKPDcsyc2VD3kemcYhYOh61FH644TgVVAM4B0NV0UxH4dzwW2ct0BHUeB9DfwAF0jpxXc9E+DnW8BKC76RbaAopFAsRskbtaY/WZ3K6A/seIERftkOzi8IrKCEAPM91TSmyH4557Trp6tW1ZNVvxj7+G1LpfYNigjRkPy5C8HkADQHlNcIilmAcevFJI0lCZq4J4qiz5QGLSpHWmg4rFiBEX7ZAuc5QrMALAz033FKFX4rHIYNMRmcQB9NdxAJ1bFTWh61T1GtMd1ClpAI9CMKMsueaB5ubmbByMUpLKR4/bzUrZleg4UJCrnTMsLel9726c+I7pDuocDqC/gQPoHPLWBCqgkpePqtN3SgL4qwriqe6OhxK1tXk7bCskbne4zNlz1Wlipc+Hymngdp4G6fwHTrzs4Q1lPa7Hli/kWQuH43Cc1fPtbJZtq7wfQAOApyYYEEXEdAdtlQ1QPAjBrGQPx1y+QHSeu3p8X6ekz7KAYQqcAH4Zk02aTOuPEtOin5kOyRQOoL+OA+jc6tjXtv8cACeZbqGtIash+qAF+T9ncvVcDqM7r3zUxYPEmXJbNoap4OcokPfeBUl0VLwx2mw6gzqHA+hv4AA6x7y+4GQAo0130FZZC+j9IjprRVd5fE40usl0UCEZGg47d/lwxbEqOBvAeQD6mW6i/3r3sSOrJnzaZ9cbAfmhJ+UUinNxbp/7c1K2DQriVO3WxkjU6wsORseKESos20FQDqDctTa93usLPQpgtrM99fD06RM/Nx2Xr7zVF/1YLefpluqZivQJAFzc8ConxOXALwHcZzqEqBgkEom0u3p8uUvSzwPY03QPdZb2gqLShla2u3qu8fqCf1HB7C5Ja25zc90q03X5yuMfux/UOk1UzgFSQ6AQ5dg569TGEADNpjuIqLB0t9qCa+0u+wlkqOkW6rQegIxQlRF92rDG6wvMEVj3Y6M9p6UlusZ0XD6qqrq8R5tsOgWiZ2HJitNU0Md0E32r3U+cP/UPC/c94bKFex5zNYAffeevVFxfCMNnoEAG0ACwspte2Gej7A/gF6ZbaKttD+g5AM5JlTlSFb7g8wrMVduam1q79PlEIpE2HWiKe/z4bmVr0kMUcpKKng7gp6LKUxaMsPYzXUBUTBJNtSsqq4O/SQvmg/ssFi5FTwBeUXjbnXbK6ws+A9E5VhqP7LXrDgtL+RBiv9+/3Zp0l+MckNNUcCrsL7bX4Kt4LokI96kkok5raGhIevyXuGEnnwOwh+ke2kqKnoCcp9Dz0E3aPb7As1bHtqBz9xnYd0EJv0+RCv/Yn6otxwnk1Da0HQceJlgoeh/49t/v2GHFe9fMO3xEJYADvuXXzMbC3tfnOmxrFdR6jPKqsQMsy3oRQH/TLZRxK1X1KUusJwH7me2tTS81NDQkTUdli9/v325dutthKvpLgRwP6BDwEKL8oNIcb6ovmqctuAXH13ELDnM8NaFzRTWBAnvvQVvkc0CeUNF5Thv/2HNQ3zeK+YNeVdXlPdocm4ZA7WOgcgwEh4Mf5vLBqngswpVcBYZbcHwDt+AwxFMz/iei6fkAephuoYz7TIEnRPC0JdZTm1YufbWIF79JZXXwJykLx4nKUECPAbfWKHgby7rX33/CpftC5JQv/7/yFlL2LzCs72pzZZ1TcB8CK3yBXyhkHvhGv9htAPCCQl8UkRdh4aX4nZHFKMDlRH6/37XW7ra/AAdD7MOhciSAg1BATyCUEgGebYlFjjLdkSkcQH8dB9BmeatDN0D0atMdlGWCNVC8IMA/ReR5y2G9NH1K7VLTWVvD7/e71qS7/NQBDFaRQ9BxAPBg8DU8L5WlrD7cHqawcAD9DRxAG+SpDpwpIg9gyw/+osK0FsA/BXgJ0Jcs6EszYhPeNR21NbxV4/cQK3WIAoOh1mCIHg4OnIuS7XDenzjp98vTllUDYCUc1s9xVq/Fprs6o+AG0ADg9YVGANqMAu2nrSWrBfovBd5QwZsC+Vda7MW9sOmDfFgtfWog0KV3m3Mv0dS+CmsfUewL0YMA/AQ8RbaQvBuPRYrm8TsOoL+OA2jjxFsTvBsKt+kQyrkVCn3NgiyEyEJRWaRIL26JRZciD75cdrvDZc4+y/dA2rmfBXsfFewD4GAAB4Kv4QVDIQe1xupfM91BW44D6G/gANowb03gCqjcbLqDcm4FgIUA3lTBGwJ900653t7vxz2Xmn6qy+/3u1ajy67OFPZUC3sqrH0A+2CBHAygt8k2yrkXHjj+8rkbunZ/Auf0/pvpmM4qyNUb8Vj9dK8vuAeAa023UC5pLwWGABgiCgAKhwrWoWva6wsuUei7gLxvAR+p4GNV/RSCZY40VqXKHKst2bQ6Pnnyys7c0e12O1z9+vW027p1t5z2DoD+SGzsoGL3E1gDVXUQRAYB+mNsRH8g7QAEAuXXI4VrO9MBREVMk90d57vWpgeBZzqUmr4CGarAUKii45QDgdcX3AjIYkDfF5Gltm0vg8iHltgfqy2fW3Cu2ASsSDTVrtiam/r9/u3WpMp6q+XsZdnoDcGPYNmDLMUAFewClV2gOgiyYnfYlhNim5+G01ZTUe4zT0TbJN4YvaXCF/ypAsNNt1BO9QVwLIBjO2YNAsuRwjtLVrR7fYEPAHkPwPsislRtfKYWPoLgE0cKn8EpazY529cmJk1a15kbuseP79ZtI/ra7al+acvayVLsqGL3A6QfgB9BsBsUe66z8WMH4NTN6/Jl83soKkGKHc+Zd9vEmQ11H5lO2RoFOYAGgHgscp23JrgHFJWmW8g4B4AfC+THwOZlVNoxBoYCtgVYKRuAC15fEICsBtQGkAbwbafjlgHYHh2HZbmQBCxH6r/rszpOspeOD8/y3ztSsRB0M51AVMwStbUbK0ePPiudKvsn8MVhbVTCugF6IIADVRUiHR+oVC1AABtpuAB4fUEFsHlrBV0HSBJAEkDHhz1FTwgcX7luDwC919lwWRYA2F8+UK1fvlcAvzAuKk61uFqdiLaZK7Wmpt3Zcy/wy3ICygDZC8BeAKDa8b5BFP+dNcBWuNqdX32v8m1zhq7Afz9ndpxXsDaNFABYHQvYvpgz/BfHDPR1n6vDPnVmQ6Qgh89AAQ+gAWhyVV+fs9fngwQy1HQMFRLt9ZX/wv2R6OuUA2iibJsxZcqn5/nGne6A/Qy+eBNO9P0E//2zIt/8M8MhMgFIQ12mG4io8DU3N7eNGHHRGekyx1MK7G+6hwrGV96rcM5AGbVR1D4r3jDhLdMh26KgN9dPJMLt1kacBchC0y1EVDQ69egUEW2du2N1b1qwzgGwyXQLERUHS9XoPp1EVDymT5/4ucOSUwAsMd1CRCUtDcDT0jThGdMh26qgB9AA0NISXeNA+iwAy0y3EFFR2Kp9Romo82bG6uZZIsPQ8caKiGjbOOxPTScQUfGY3lD/gaT1V+DnAyIyRWVcPBaZbTojEwp+AA0AM2IT3lVxnAzgc9MtRFTwPjMdQFRKZjbWP6iqF5nuIKLC195u8zWciDKqZVr0DaieCmC96RYiKjk3xJvqJ5iOyJSiGEADQGtj7b9sS04HH58nom2gqlw9RZRjrU3ROwFcZ7qDiAqa9ilLcTEKEWVcvCn6PIBh6Dj8logoF6bFY5FrTUdkUtEMoAFgVkP9cwr7LABtpluIqDBZwj3liUyIxyJhiBbNN/xElHPvNTQ0cDhERFkRj0X+CkU1ADXdQkTFTu5bNrCvH0X286aoBtAA0Bqb8DiAcgAp0y1EVIj0FdMFRKUq3hgNAmgy3UFEhUgWmC4gouIWb4rMUMGlpjuIqHip6oPJ1X0888LhoptpFt0AGgDischsUfgA8CRsIuoUdcirphuISpju0/Ftf4vpECIqOC+ZDiCi4tfaGLkDistMdxBRMdJHu6TXnpdIhNtNl2RDUQ6gAaClKXKXgkNoIuqUT/bp3/ffpiOISlk4HLaXDew7UoH7TbcQUeFQ1ZdNNxBRaYg3RW4TxRWmO4iomOijK7vhrObm5qLdUrhoB9AA0BqLTOMQmog64aFwOMyfF0SGzQuHU6nVfcsBPGS6hYgKwvpUT8cTpiOIqHS0NEVu5UpoIsqQx5I9nGfPiUY3mQ7JpqIeQAMdQ2hRrQGH0ET0A1T1QdMNRNQhkQi3d7fazgXkPtMtRJTnFI8kams3ms4gotISb4rcBpWLTXcQUQFTPJ0sS51dCu9jin4ADQAtTdGpqrgAHEIT0Xdbn+rpfMx0BBF9qaGhIdnd2lgOQcJ0CxHlLxV5wHQDEZWmeFN97eYhtJpuIaKC86SjveyUxKRJ60yH5EJJDKABoLUpEoNoNYC06RYiykszSuFbR6JC09DQkFy2S18vFLNMtxBRXlqXsjZyux4iMibeVF8LwXhwCE1EW0wfdWwqO22oDVARAAAbH0lEQVTGjNvWmy7JlZIZQANAvDHabImcA6BoN/Umoq0jlj3JdAMRfbt54XAqueaj4QCmmW4horxzV6KhYbXpCCIqbfHGSL0AAfCpayL6IYpZydU7/LqUhs9AiQ2gAWBmY/2DsHEagLWmW4goTwjmtjRMWGg6g4i+WyKRSMdjkWqB/Nl0CxHlDbVsiZqOICICgJZYZCKgbnDBGxF9J5m8z6C+FYlEuN10Sa6V3AAaAOJTI/9Q2/oVgJWmW4jIPIX+yXQDEW0RbYnVXy6K35kOISLzVPWhmVPr3zbdQUT0hXgsep/CPh2CNaZbiCjvXBeP1Y8Jh8Ml+aRESQ6gAaB1at18y9bjBPjYdAsRGaS4t7Ux+oTpDCLaci1NkZtEcCH4mCtRKUtZDr3adAQR0f9qjU143GHjKAWWmm4horygKrgkHouETYeYVLIDaACYOTX6qsPpOEwFr5puISIj2i04rjQdQUSd19IYmaJqnQtgg+kWIjJAMZHbZxFRvprRFHldndbRAPiUBlFpS0G0qrUxcofpENNKegANANOn1C4VZ/I4AFwBSVRiVPXGmU21i013ENHWaW2qe0Bt60QAn5luIaKcWo6y5HWmI4iIvs+sKXXvJdP6SwDPm24hIgMEa1RxZrwx2mw6JR+U/AAaAOKTJ69Mru57sgAzTbcQUY4onk6t+fhG0xlEtG1ap9bNt9QxBIpFpluIKDdUZHR88mSe5UJEeS8xLfqZY1PZ8VCZY7qFiHLqXYeNo1qbIo+YDskXHEBvlkiE21tikREAuJqCqPitsl1WZSKRSJsOIaJtN7OpdrE6XEMEeNZ0CxFllygmtTbW32u6g4hoS82Ycdv6ZYP6/BqQiOkWIsoBxdPJtB4xoynyuumUfMIB9NdpPBYJK1AFYJPpGCLKipSIVM6aUvee6RAiypzWhtuXr+imx0Ol2XQLEWWLLGzv6bjUdAURUWfNC4dT8Vh9CKLDAWw03UNE2SGQ1rL0mpMS06LcIvB/cAD9LVpjkWlqW8cB+Mh0CxFllAIyuqWx/i+mQ3JH1XRBPrHF5u9HEZsTjW6KN9WPguIyAHzCgaiIKLDUdsqvE7W1HNwQUcGKN0Zb1LZOEOBj0y1ElFG2KK5oidV7m5ub20zH5CMOoL9D69S6+bZtHyaK50y3EFGGiF4Vj9U3mc7ILeEH9a9wiLXedANlX7wpchtETgewynQLEWXEciutJ/PppeIjypWgX6Pg+5QS0Dq1bn7atg8FDyckKhbrVK1zW5oit5oOyWccQH+PWVMnLHOl1wzl4YREBU8Venm8MXqL6RAD1poOyCd2Wvn7USLijfWPpmENAfCW6RYi2gaCNSJyWsu06BumUyjzbAvrTDfkFcEa0wmUG7OmTliW7OEYCqDFdAsRbZN3FXJUa1PdA6ZD8h0H0D+gubm5rSUWqYTKxQCSpnuIqNM2KbSiNRb9s+kQQ/jB7qssfrArJXfH6t5MlqUOB/Ru0y1EtFWW2bYObWmsf8F0CGWHgF8Mf43yfUopSdTWbozHIsMBXAAgZbqHiDpHVR+EK3loa6z+NdMthYAD6C0Ub6qvtQVDAf3QdAsRbSn51IJ1Smss2mq6xBQBPjHdkE/stPNT0w2UW4lJk9bFY9FydHy44xfJRIXjNTvt/MWspugC0yGUPWoL98H9ChX+fpSieCzSYME6SYGlpluIaIukIHpla1P0N/HJk1eajikUHEB3wqzGyLPOdnswVOaYbiGi76fQebadHjwzVjfPdItJCrxtuiGPrJ817Y4lpiPIjI4Pd3oCeMAwUd4TSGuyLHXUrGl3cOFHkRN1vGO6IZ9YonzfVqJmxurmpdLKWQNR/nvftuTozdt78oD7TuAAupOmT5/4ebyp/nQIxoErqYjyURrAdanVH584a+qEZaZjjOMHma96B3yTUNJmxqJPqeX6mYg8bLqFiL7VRgjGtcTqvYlJk7iFVAnYZ9de7wFoM92RLzTNhQOlLDEt+tlXZg3tpnuI6Bv+klTHIbMa6p8zHVKIOIDeOhpvjNRbsE4GwNV0RPljmYqeEI9FwolEIm06Jh/YNnho05feNB1A5rU23L68pbH+TH64I8ovArwpln1EvDFSb7qFciccDtsqHLpupo6y9n+ZjiDjNN4Yqbdt+yhAF5uOISIAHXu0X7fPwL5nJZpqV5iOKVQcQG+DmbG6eUl1HARBwnQLUakTkYeTaT24tTH6hOmWfJJe8/FrAFaZ7sgHqvqk6QbKGxpvjNSLyNEA/m06hqjEKYAp7T0ch7Y0TFhoOoZyz1Lw9RkABG/OmDKFZ1UQAGDW1AkvJq1Nh/EgZSLTdLHa1jHxWCQcDodt0zWFjAPobZRoql0Rb4wMg8owANx8nCj3Oh7Xbaw/MzEt+pnpmHyzeSX4U6Y78oE45XHTDZRfWhrrX+hqdx0MoMl0C1EpEuBjAGfEY5ELE7W1G033kBm2CBcPAACU71PoaxINDavjsWi5iPgBrDfdQ1RiVBSTHJu6HNw6tW6+6ZhiwAF0hsSb6hPQ9GCA3+AT5dA/05I+ePPjutzb97sI/m46wTz9MH5nZJHpCso/U6feujYei/hUcSoA7htPlDNyn225DozHIn81XUJmuTal5qHjDI+SJuAX5fTtWhrrG22n9VOA7+mJcuQjW/XMlqbIRTNm3MYvfzKEA+gMijdNfD+5+qPjRfE78DANomxqF8Xvkqs/Ovruxok8Pf0HOB2O/0Opf7BT4VZJ9L1amyKPJNN6MCD3mW4hKm6yWhQj47H6c1sbbl9uuobMmz594ucl/2W5YM320vao6QzKX7Om1L0Xj0VOAnQMgLWme4iKlkpz0mrbf1ZTlIeWZ5iYDihW5/nG7e+EHVNgiOkWoiLzCsQaFW+se8V0SCHx1gQfh+I40x3GiDWYf2ZoS3lrAhVQqQPQz3QLUZH5i0AvbIlFeYg3fY3XFxoB6F2mOwyaFo9FqkxHUGEoHz1uNytlNwI40XQLURH5xBLxz2ysf9B0SLHiCugsuTtW92ZLLHI0gAsArDPdQ1QENgK4Lrm67xEcJG4NnW66wBQFXuefGeqMeGO0JZnWAwTSarqFqEgsF5WKeCxyJofP9G2SZcn7UMJ73CrsmaYbqHBsXg19MoALIFhjuoeo0Alwj1qun3L4nF1cAZ0Dlb6xu6dhNYDfUBJtFQWegmX7WxsmvGW6pVCNHDmya7uz538A9DfdYsAF8VikwXQEFaaKmtAZqjoZwEDTLUQFSTEraWuQBwXTD/H6QvWABk13GPBaPBY5GDzPhLbCCH9o15RqIxQnm24hKkD/VsXY1qbII6ZDSgEH0Lkj3prA+VDrFkB3Mh1DVCBWiuqlLU3RaeCb8m3m8YWuFOhNpjtybMnKbrrXnGh0k+kQKlwVFYGe6CZ/VGAMAIfpHqLCoItVJcAPdbSlKnyBgQr5N4Ay0y05JfDEGyOzTGdQYfPWBMtVcZsAu5huISoAbSJyqyu5+qbm5mae35Yj/BCVQwtffv6VA484pAm2syeAQ8AtUIi+i0LlLhU5O94Uedp0TLE4aP+fvwaXjAbQzXRLzgiuuX9y9BnTGVTYFi58ftPCl5+bc+ChRz4I2AcBMsh0E1EeS0LltrL0mvNmTruTTy7RFlv48vNrDjzkiD0ADDbdkjOKRcnVH4154403uNCCtsnCl597fchhB01pV2cKwJEAnKabiPKS4B9pWGe1xuoTr7zySsp0TinhCmhDyqsDgy3BRECONN1ClGcW2IKxsxojz5oOKUYVvsA4hdSa7sgNXVyWWnsgv9WmTAqHw9Y7S1b4ANwEoK/pHqK8IpgLC2Pjd0YWmU6hwuQeOWZnl8v5NhQ9Tbfkgqp1dmtT3QOmO6i4DK8K7Wtbdj0gvzLdQpQvFFgqKuPjTfUJ0y2ligNog8LhsPX2h5/XiMgNAHY03UNk2HIAv99nYN9YOBy2TccUK7fb7XD16v8igINNt+TA6fFY5K+mI6g4efyX9BM7dT2gNeAqIyp1ikWWJZfy8B7KhIrq4OUquMV0Rw78bfNBckRZUVETPFtt3AHBbqZbiAxqh2JCV+0anjr11rWmY0oZB9B5wO3393Klu10F0RCArqZ7iHIsCdE7k7bz2kRT7QrTMaWgvCY4xFI8hWLeBkiQiDdGhpnOoOLnqRn/E9HU7VxlRCVqlQpuSK3qOyGRCLebjqHi4Pf7XevsLgsA+YnplixqgwM/49MClG3u8eO7la2zr1TVy1BK2/ARASpAImXp7+5uiP7bdAxxAJ1XNh+88QcAPhTzYIjoS3+BAxfzzXfueatDN0D0atMdWbJELdfg1obbl5sOodLh9QVPE+A2BfY33UKUA0lRNNoO17X8WUvZUFkd/Gla8ByA7Uy3ZIeOiceik01XUOkYMXr8LqlU+hoAVeCTW1T8noDq5fGm6POmQ+hLHEDnIW914OeA3A7B0aZbiLJBgacs6OUtseg/TbeUqs372M4FcILplgxLqSXHtTbU8/BKyrlwOGy98+HKcyF6C4DdTfcQZYFC8H+w8Ht+eUzZ5qkOXCAiU0x3ZJzi3nhT5LemM6g0lY8et5uVsq8CF71RcXoLKtdwn+f8xAF0HvP6gqcBuB7AoaZbiDJC8IYFuYp7ROaH8qqxAyzLeg7AQNMtGSMYF2+M1JvOoNLmdofLXL1WjATkBkB3Mt1DlCGPAbgyHou8ZDqESofHF2wW4HzTHRn0VlnKOrK5uW6V6RAqbZXVwZ+mLVwDhdt0C9G2UmCpANcvG9h36rxwOGW6h74dB9AFwFsTOBEqtwIYbLqFaGsI8KZCbk6uXtaSSCTSpnvoSxWjAgeoQ54C0Nd0y7ZSwa2tjZErTHcQfWHzGQ+XwtIgFD1N9xBtFcXTAoRbmiJ/N51Cpcfv97vWpbvNhuipplsyYJnttI6aNaXuPdMhRF/w1ASOtVT+pMAQ0y1EnSXAxzb0jh7WpokNDQ0bTPfQ9+MAunCItzr0W4heD2A/0zFEW+g/AG5Jrv6oiYPn/OWpGnekWPbfAGxvumXr6fR4LDoSgJouIfpf7urxfV2SHgdIENBepnuItoQCTwF2uDU24XHTLVTaKisv3d4ua/+7Co4w3bINVink2NZY/WumQ4i+TUVN6AyoXsVBNBWID6Dy52RPqylRW7vRdAxtGQ6gC4zb7XY4e/c/VxRXgiuiKX+9BdE/Jld9PIuD58JQURM6XFX/CqCf6ZbOUsHUj3bpewEft6J8N3LkuN7tTnscgBCA3qZ7iL6NQueJLdfHp0b+YbqF6AvuMWO6u5LOe6E42XRLZwnwcVr1tFlN0QWmW4h+iLc6dAxErwBwKjgvoryjiwHr5uTqPjMSiXC76RrqHP5AKWAef+hosfUKAGeYbiHa7CVAItxqozCd5xu3vwP2IwB2Nd2yxVRuiTfVX2k6g6gzKioCPe1uuACQkAC7mO4hAmArMNuC3soDgilfdeyv//l0QM4z3dIJ/7HU8auZTbWLTYcQdYbHF/qZQK8AMAyA03QPlTYFXrdUbmpfs+xuzhkKFwfQRaDcHzrCUvtKqPwaPMmWcs+G6IM25M+zGiPPmo6hbTPcP66/rXYLFMeZbvlegjUK1LQ2Ru4xnUK0tdzucJmr9+deKC4F5Ceme6gktQOYoZZ9W2vDhLdMxxD9kHA4bL2zZMU1AK4G4DDd831E5GHHptT506dP/Nx0C9HWqvSN3d1W61IVjALQzXQPlZwnVa3a1qa62eBWiwWPA+giMrx6/F5psS8SYBT3mKQcWA+gxbLljplT6982HUMZJd6awOVQuRH5+eFugaWOYVxNREVEvL7gqRCEoDgJfH9G2fcJgAbLsibPbKj7yHQMUWd5agLHikocwADTLd8iBeDGfQb2vT4cDtumY4gyoXL06J3SqbIxAGqQn3/vqHhsUNUWh2LizKnRV03HUObwA04Rco8Z093V7vQqEBDgp6Z7qNjoYghizk12jCs6ipu3OvBziEwCcKjpls02iOKP7Wv63s49v6hYeS8I7o2UVEPUD6CP6R4qOi8BaEj2cMzgoT1U6Dz+S/qJnbwZwCjkzVOgOt9WXMT9nqlYhcNh652lnx8PlRCA08GZEmXOfyDawDlD8eIPi+ImFVWBk9SBC6FyOgCX6SAqWDaAhyEyMd5YPxd8/KVkuN1uR1mv/qMVuBbAjoYyFIr7gPQl8aaJ7xtqIMqpiopAT+2GkRC5AIoDTPdQQdsAlXtsB6bMaqh/znQMUaaV+0NHWLZGARxuqkGAj1X0qnhj9C7wfTKVCO8Fwb01rRcIZCSAHUz3UEFSQOeKWBP23qXPX/nUSHHjALpEuEeO2dnpdFQKpBrAvqZ7qEAo3oPgLttpNc+aUvee6Rwyp7Ly0u3TXdt9qrgsh4em2QD+CiAcj0VeytE9ifKOp2rckXDYPlEMA9DddA8VjAWANiatTfFEQ8Nq0zFE2WbogPb3IajtLm2NDQ0NG3J4X6K8MXLkyK7tzl7DAL0QwC9M91BBeF+AmerAXfE7I4tMx1BucABdgry+4KEA/AC84AdZ+qY2CB4CtCHeGP07uIqDvuLUQKBL7404R9SqhOjJyMYe0Yr3AJlpwbqL+zwTfamq6vIemxybyqE6UoEjwfdx9E3LITrLTutds6ZOeNF0DJEJ5TXBIWLrSBH5LbKzlVFSROYqdGZ3abu3oaEhmYV7EBWkilGBA9SyPBD1AtjDdA/lEcEaKO61YE3fa2DvJ7naufTwg0sJc48Z092VdJwlsDyqejK4RUcpS0PwpNg6s4t2S0ydeuta00GU/4b7x/VPp9O/tkSOV+A4bP0WHSlAXwDwDwt4ZGYs+jT4xQfR9xrhD+2aUtsDlVHgk02lbhOAv0FlenJNn9ncI5+ow6mBQJe+bXKaKk4GMBTAflt/NflUoPNs1cdTNu5LTIt+lqFMoqLVsfBNRgh0mAI7m+4hI2wAjwMyw7HJde+MGbetNx1E5nAATQAA74UX9kGy7ExA3QBOAeA03URZZwMyH6IJS6x7ZjbUfWQ6iAqaePxj97XU2t9W2Veg+wDoB0F3KHqqwCmqGwBZB+gKFXlfVN4RTb/VRbd7jV96EG09b3Xg54B4IXoOIINM91BOtEPl7yqaSFlt93GLDaIfNtw/rr9t24NVsJ8o9hZgN4X0UNHuougBQRsU6wCsgeAjVbwNwSIrpa+3TIu+CX45TrRVhobDzl2WLj9JYXmgOBt8CrvY2VA8C8h9yXSyNdE86WPTQZQfOICmbxgxevwu6VT6NwqchY7VAlwZXTxsQOYL7P9zOJ2J6VNql5oOIiKijJFyf+jnlupvoTgXwO6mgyij2gE8BtEEnKnZ8cmTV5oOIiIi6gy/37/dOrvLKYCcAcjpgO5kuokyog3AY6qY7XS1PzhjypRPTQdR/uEAmr5XZeWl26fKNh0vlrihOBNAb9NN1GkbADwO4CHLsh7iSmciotIw3D/uENu2zwRwOoBDAViGk6jzlkMwR4G/pKTtUa50JiKiYhEOh623lq083GHrmdrxXuVg003UKSsFeNgWecDZ5nqE22vQD+EAmraY2x0uc/X+/BhR62SFngTgIPDPUL56W4C5NuSh1Oo+T3A/SCKi0uYeOWbnMofjNBXrdIieCEVP0030rRTAq1B5VB34S2rlsvmJRCJtOoqIiCjbykddPMjhTJ0OyBmqejyAbqab6GvSAF6Cyj8E+relg/o+MS8cTpmOosLB4SFtNfeowI4uyxoK0RPRsW/0roaTSph8CtEnoHgMmn403jTxfdNFRESUn9xut8PVq//BHYNoORHA0QC6mu4qVQJ8rIKnoHjM6XQ8zO2xiIio1A0Nh50Dlqw4aPN7laMB+SWgvUx3laD/AHgMKo+hrP0xbv9F24IDaMoY7wXBvWHrUQr5pSiOArCv6aYi9j6AZ6AyX2z78ZZp0TdMBxERUWHy+/3brU91ORoO6yhVHA3oEQC2N91VxP6twNOW6pMpy3767saJ75gOIiIiymd+v9+1NrXdYeJIHwOVYwD8EkAP011FJg3IG4A+A5XHk7Y9LzEt+pnpKCoeHEBT1lSOHr2TnS47ylY9CsChInIIH/ndKm2ALoDKfLXkWU2n58+aOmGZ6SgiIipOHafVrxwMtY9SlSMgehgge4LvG7fGegVeFsULauE5TdtP8zWciIho2/z3aa7NcwZVHQzgZ+ATXVtKoVgsIi+q4gV14AXnRtcC7uNM2cQPEpRLcl7NRXs74DgEHYchHQrFzwDsYLgrn6yE4BXYWADgFXHYrywd0O9N7q1EREQmjRw5rnfSYXe8dgsOBXCgAnsDcBpOyyerFFhoKRYC+hIc+kL7yk/e4B7ORERE2Tc0HHbusmz5/mo7BkP1EAgGQ3AwF8GhHdBFCnlTIAsUeKFLSl5obq5bZTqMSgsH0GSce1Rgxy4Ox09U7P2gOECB/QHsB2Cg6bYsWgbIW4C+I9C3bZW31GW9NWtK3Xumw4iIiLZEx+HEqw4A0j+BbR0Iy94Xir03r5Yu4hVI8ilU31EL70jH6/hr6VTZ67Om3fGh6TIiIiL6GhnhDw1Kp3VvG7qXWLIXFHtDsDcUewLoYjowgz4D8Kaqvm2J9XZa7beccL69ac2Sd/llOOUDDqApb40cObLrRmfv3Z2S2s2GY3dLsZsN3d1SDFLBLgB2RP6+YHwC4ANAPlTgAxF9T4APVPGBbNRFLS3RNaYDiYiIsiEcDlv/WbZyYDqte6tgTwF2VeggBXYVYCAgA5HfA+pVgHwI6PsA3ofoh6r4wBJrsSspi7hiiIiIqPCFw2HrnQ8/GwTL2hsqewDoD8iPAB0gwI4K9AewM4BuhlMBYIUCy0TlQ7X0IwuyxLbtZZZlLVXIkqQtHySaaleYjiT6PhxAU0FzV4/vW2andrad2NGyrV0U6AtBTyh6QrRPx/9FT0B6AdoVUAGkNwBAYUHwvyfptgP4ct8jRRqCNQpdK5ANEKxXW1dt/s+roLIclv5/e3evk0AYRGH4Pd8igSWyxIAx3pkthTdg4m3QcwtemAE2EXYN4A/fsdBoYmOlCWaecoopTjPTTKbmwEKdXItOXbKt5/P5y9+lEEIIIRyXq+ubcc6HSWFPnJgk+8IwNhohDzFDwQioeH8y1AUK+DyjHXzUvtsDO77m+SvQgvbgjdAG0Tiztlgn52WGlYu07ML9bpBWd7PZ7tcDCCGEEMJRmE5vT595uiTl84zOhHrGFdZAuGdUSS4NfUQlVBpvf2xsHjENqBVuLdaIJme3idRmcstJ8XDoaxG7SfgP3gAhLQBZfMJduQAAAABJRU5ErkJggg==;" vertex="1" parent="1">
          <mxGeometry x="-930" y="557" width="201.2" height="70" as="geometry" />
        </mxCell>
        <mxCell id="h7jb9lpsqs1myCnT-5GU-36" style="edgeStyle=orthogonalEdgeStyle;rounded=0;orthogonalLoop=1;jettySize=auto;html=1;entryX=0;entryY=0.5;entryDx=0;entryDy=0;entryPerimeter=0;fontSize=24;fontColor=#FFFFFF;strokeColor=#0066CC;strokeWidth=3;" edge="1" parent="1" source="h7jb9lpsqs1myCnT-5GU-18" target="h7jb9lpsqs1myCnT-5GU-29">
          <mxGeometry relative="1" as="geometry">
            <Array as="points">
              <mxPoint x="-30" y="388" />
              <mxPoint x="-30" y="886" />
              <mxPoint x="810" y="886" />
              <mxPoint x="810" y="807" />
            </Array>
          </mxGeometry>
        </mxCell>
        <mxCell id="h7jb9lpsqs1myCnT-5GU-18" value="STX ZA" style="sketch=0;points=[[0,0,0],[0.25,0,0],[0.5,0,0],[0.75,0,0],[1,0,0],[0,1,0],[0.25,1,0],[0.5,1,0],[0.75,1,0],[1,1,0],[0,0.25,0],[0,0.5,0],[0,0.75,0],[1,0.25,0],[1,0.5,0],[1,0.75,0]];outlineConnect=0;fontColor=#FFFFFF;gradientColor=#F78E04;gradientDirection=north;fillColor=#D05C17;strokeColor=#ffffff;dashed=0;verticalLabelPosition=bottom;verticalAlign=top;align=center;html=1;fontSize=19;fontStyle=0;aspect=fixed;shape=mxgraph.aws4.resourceIcon;resIcon=mxgraph.aws4.ec2;" vertex="1" parent="1">
          <mxGeometry x="-240" y="333" width="110.5" height="110.5" as="geometry" />
        </mxCell>
        <mxCell id="h7jb9lpsqs1myCnT-5GU-37" style="edgeStyle=orthogonalEdgeStyle;rounded=0;orthogonalLoop=1;jettySize=auto;html=1;fontSize=24;fontColor=#FFFFFF;strokeColor=#0066CC;strokeWidth=3;entryX=0;entryY=0.5;entryDx=0;entryDy=0;entryPerimeter=0;" edge="1" parent="1" source="h7jb9lpsqs1myCnT-5GU-19" target="h7jb9lpsqs1myCnT-5GU-29">
          <mxGeometry relative="1" as="geometry">
            <mxPoint x="-49.999999999999545" y="591.25" as="targetPoint" />
            <Array as="points">
              <mxPoint x="-30" y="591" />
              <mxPoint x="-30" y="886" />
              <mxPoint x="810" y="886" />
              <mxPoint x="810" y="807" />
            </Array>
          </mxGeometry>
        </mxCell>
        <mxCell id="h7jb9lpsqs1myCnT-5GU-19" value="STX ZA2" style="sketch=0;points=[[0,0,0],[0.25,0,0],[0.5,0,0],[0.75,0,0],[1,0,0],[0,1,0],[0.25,1,0],[0.5,1,0],[0.75,1,0],[1,1,0],[0,0.25,0],[0,0.5,0],[0,0.75,0],[1,0.25,0],[1,0.5,0],[1,0.75,0]];outlineConnect=0;fontColor=#FFFFFF;gradientColor=#F78E04;gradientDirection=north;fillColor=#D05C17;strokeColor=#ffffff;dashed=0;verticalLabelPosition=bottom;verticalAlign=top;align=center;html=1;fontSize=19;fontStyle=0;aspect=fixed;shape=mxgraph.aws4.resourceIcon;resIcon=mxgraph.aws4.ec2;" vertex="1" parent="1">
          <mxGeometry x="-240" y="536" width="110.5" height="110.5" as="geometry" />
        </mxCell>
        <mxCell id="h7jb9lpsqs1myCnT-5GU-35" style="edgeStyle=orthogonalEdgeStyle;rounded=0;orthogonalLoop=1;jettySize=auto;html=1;entryX=0;entryY=0.5;entryDx=0;entryDy=0;entryPerimeter=0;fontSize=24;fontColor=#FFFFFF;strokeColor=#0066CC;strokeWidth=3;" edge="1" parent="1" source="h7jb9lpsqs1myCnT-5GU-20" target="h7jb9lpsqs1myCnT-5GU-29">
          <mxGeometry relative="1" as="geometry">
            <Array as="points">
              <mxPoint x="-30" y="790" />
              <mxPoint x="-30" y="886" />
              <mxPoint x="810" y="886" />
              <mxPoint x="810" y="807" />
            </Array>
          </mxGeometry>
        </mxCell>
        <mxCell id="h7jb9lpsqs1myCnT-5GU-20" value="STX ZC" style="sketch=0;points=[[0,0,0],[0.25,0,0],[0.5,0,0],[0.75,0,0],[1,0,0],[0,1,0],[0.25,1,0],[0.5,1,0],[0.75,1,0],[1,1,0],[0,0.25,0],[0,0.5,0],[0,0.75,0],[1,0.25,0],[1,0.5,0],[1,0.75,0]];outlineConnect=0;fontColor=#FFFFFF;gradientColor=#F78E04;gradientDirection=north;fillColor=#D05C17;strokeColor=#ffffff;dashed=0;verticalLabelPosition=bottom;verticalAlign=top;align=center;html=1;fontSize=19;fontStyle=0;aspect=fixed;shape=mxgraph.aws4.resourceIcon;resIcon=mxgraph.aws4.ec2;" vertex="1" parent="1">
          <mxGeometry x="-239.5" y="735" width="110" height="110" as="geometry" />
        </mxCell>
        <mxCell id="h7jb9lpsqs1myCnT-5GU-24" value="&lt;font color=&quot;#ffffff&quot; style=&quot;font-size: 24px&quot;&gt;&amp;nbsp; &amp;nbsp; &amp;nbsp; &amp;nbsp;EC2&lt;/font&gt;" style="points=[[0,0],[0.25,0],[0.5,0],[0.75,0],[1,0],[1,0.25],[1,0.5],[1,0.75],[1,1],[0.75,1],[0.5,1],[0.25,1],[0,1],[0,0.75],[0,0.5],[0,0.25]];outlineConnect=0;gradientColor=none;html=1;whiteSpace=wrap;fontSize=12;fontStyle=0;container=1;pointerEvents=0;collapsible=0;recursiveResize=0;shape=mxgraph.aws4.group;grIcon=mxgraph.aws4.group_ec2_instance_contents;strokeColor=#D86613;fillColor=none;verticalAlign=top;align=left;spacingLeft=30;fontColor=#D86613;dashed=0;strokeWidth=3;" vertex="1" parent="1">
          <mxGeometry x="-290" y="275" width="840" height="631" as="geometry" />
        </mxCell>
        <mxCell id="h7jb9lpsqs1myCnT-5GU-28" value="" style="outlineConnect=0;dashed=0;verticalLabelPosition=bottom;verticalAlign=top;align=center;html=1;shape=mxgraph.aws3.rds;fillColor=#2E73B8;gradientColor=none;fontSize=24;fontColor=#FFFFFF;" vertex="1" parent="1">
          <mxGeometry x="800" y="199" width="110" height="113" as="geometry" />
        </mxCell>
        <mxCell id="h7jb9lpsqs1myCnT-5GU-29" value="STX DB" style="outlineConnect=0;dashed=0;verticalLabelPosition=bottom;verticalAlign=top;align=center;html=1;shape=mxgraph.aws3.rds_db_instance;fillColor=#2E73B8;gradientColor=none;fontSize=24;fontColor=#FFFFFF;" vertex="1" parent="1">
          <mxGeometry x="940" y="749" width="90" height="115" as="geometry" />
        </mxCell>
        <mxCell id="h7jb9lpsqs1myCnT-5GU-30" value="TRX DB" style="outlineConnect=0;dashed=0;verticalLabelPosition=bottom;verticalAlign=top;align=center;html=1;shape=mxgraph.aws3.rds_db_instance;fillColor=#2E73B8;gradientColor=none;fontSize=24;fontColor=#FFFFFF;" vertex="1" parent="1">
          <mxGeometry x="960" y="330.75" width="90" height="115" as="geometry" />
        </mxCell>
        <mxCell id="h7jb9lpsqs1myCnT-5GU-41" value="AMQ ZA" style="sketch=0;points=[[0,0,0],[0.25,0,0],[0.5,0,0],[0.75,0,0],[1,0,0],[0,1,0],[0.25,1,0],[0.5,1,0],[0.75,1,0],[1,1,0],[0,0.25,0],[0,0.5,0],[0,0.75,0],[1,0.25,0],[1,0.5,0],[1,0.75,0]];outlineConnect=0;fontColor=#FFFFFF;gradientColor=#F78E04;gradientDirection=north;fillColor=#D05C17;strokeColor=#ffffff;dashed=0;verticalLabelPosition=bottom;verticalAlign=top;align=center;html=1;fontSize=19;fontStyle=0;aspect=fixed;shape=mxgraph.aws4.resourceIcon;resIcon=mxgraph.aws4.ec2;" vertex="1" parent="1">
          <mxGeometry x="70" y="333" width="110.5" height="110.5" as="geometry" />
        </mxCell>
        <mxCell id="h7jb9lpsqs1myCnT-5GU-42" value="AMQ ZA2" style="sketch=0;points=[[0,0,0],[0.25,0,0],[0.5,0,0],[0.75,0,0],[1,0,0],[0,1,0],[0.25,1,0],[0.5,1,0],[0.75,1,0],[1,1,0],[0,0.25,0],[0,0.5,0],[0,0.75,0],[1,0.25,0],[1,0.5,0],[1,0.75,0]];outlineConnect=0;fontColor=#FFFFFF;gradientColor=#F78E04;gradientDirection=north;fillColor=#D05C17;strokeColor=#ffffff;dashed=0;verticalLabelPosition=bottom;verticalAlign=top;align=center;html=1;fontSize=19;fontStyle=0;aspect=fixed;shape=mxgraph.aws4.resourceIcon;resIcon=mxgraph.aws4.ec2;" vertex="1" parent="1">
          <mxGeometry x="70" y="536" width="110.5" height="110.5" as="geometry" />
        </mxCell>
        <mxCell id="h7jb9lpsqs1myCnT-5GU-43" value="AMQ ZC" style="sketch=0;points=[[0,0,0],[0.25,0,0],[0.5,0,0],[0.75,0,0],[1,0,0],[0,1,0],[0.25,1,0],[0.5,1,0],[0.75,1,0],[1,1,0],[0,0.25,0],[0,0.5,0],[0,0.75,0],[1,0.25,0],[1,0.5,0],[1,0.75,0]];outlineConnect=0;fontColor=#FFFFFF;gradientColor=#F78E04;gradientDirection=north;fillColor=#D05C17;strokeColor=#ffffff;dashed=0;verticalLabelPosition=bottom;verticalAlign=top;align=center;html=1;fontSize=19;fontStyle=0;aspect=fixed;shape=mxgraph.aws4.resourceIcon;resIcon=mxgraph.aws4.ec2;" vertex="1" parent="1">
          <mxGeometry x="70.5" y="735" width="110" height="110" as="geometry" />
        </mxCell>
        <mxCell id="h7jb9lpsqs1myCnT-5GU-49" value="AMQ ZA" style="sketch=0;points=[[0,0,0],[0.25,0,0],[0.5,0,0],[0.75,0,0],[1,0,0],[0,1,0],[0.25,1,0],[0.5,1,0],[0.75,1,0],[1,1,0],[0,0.25,0],[0,0.5,0],[0,0.75,0],[1,0.25,0],[1,0.5,0],[1,0.75,0]];outlineConnect=0;fontColor=#FFFFFF;gradientColor=#F78E04;gradientDirection=north;fillColor=#D05C17;strokeColor=#ffffff;dashed=0;verticalLabelPosition=bottom;verticalAlign=top;align=center;html=1;fontSize=19;fontStyle=0;aspect=fixed;shape=mxgraph.aws4.resourceIcon;resIcon=mxgraph.aws4.ec2;" vertex="1" parent="1">
          <mxGeometry x="70" y="333" width="110.5" height="110.5" as="geometry" />
        </mxCell>
        <mxCell id="h7jb9lpsqs1myCnT-5GU-50" value="AMQ ZA2" style="sketch=0;points=[[0,0,0],[0.25,0,0],[0.5,0,0],[0.75,0,0],[1,0,0],[0,1,0],[0.25,1,0],[0.5,1,0],[0.75,1,0],[1,1,0],[0,0.25,0],[0,0.5,0],[0,0.75,0],[1,0.25,0],[1,0.5,0],[1,0.75,0]];outlineConnect=0;fontColor=#FFFFFF;gradientColor=#F78E04;gradientDirection=north;fillColor=#D05C17;strokeColor=#ffffff;dashed=0;verticalLabelPosition=bottom;verticalAlign=top;align=center;html=1;fontSize=19;fontStyle=0;aspect=fixed;shape=mxgraph.aws4.resourceIcon;resIcon=mxgraph.aws4.ec2;" vertex="1" parent="1">
          <mxGeometry x="70" y="536" width="110.5" height="110.5" as="geometry" />
        </mxCell>
        <mxCell id="h7jb9lpsqs1myCnT-5GU-56" style="edgeStyle=orthogonalEdgeStyle;rounded=0;orthogonalLoop=1;jettySize=auto;html=1;entryX=1;entryY=0.5;entryDx=0;entryDy=0;entryPerimeter=0;fontSize=24;fontColor=#FFFFFF;strokeColor=#FFFFFF;strokeWidth=3;" edge="1" parent="1" source="h7jb9lpsqs1myCnT-5GU-51" target="h7jb9lpsqs1myCnT-5GU-43">
          <mxGeometry relative="1" as="geometry" />
        </mxCell>
        <mxCell id="h7jb9lpsqs1myCnT-5GU-59" style="edgeStyle=orthogonalEdgeStyle;rounded=0;orthogonalLoop=1;jettySize=auto;html=1;entryX=0;entryY=0.5;entryDx=0;entryDy=0;entryPerimeter=0;fontSize=24;fontColor=#0087DE;strokeColor=#0066CC;strokeWidth=3;" edge="1" parent="1" source="h7jb9lpsqs1myCnT-5GU-51" target="h7jb9lpsqs1myCnT-5GU-30">
          <mxGeometry relative="1" as="geometry">
            <Array as="points">
              <mxPoint x="610" y="790" />
              <mxPoint x="610" y="388" />
            </Array>
          </mxGeometry>
        </mxCell>
        <mxCell id="h7jb9lpsqs1myCnT-5GU-51" value="AAS ZC" style="sketch=0;points=[[0,0,0],[0.25,0,0],[0.5,0,0],[0.75,0,0],[1,0,0],[0,1,0],[0.25,1,0],[0.5,1,0],[0.75,1,0],[1,1,0],[0,0.25,0],[0,0.5,0],[0,0.75,0],[1,0.25,0],[1,0.5,0],[1,0.75,0]];outlineConnect=0;fontColor=#FFFFFF;gradientColor=#F78E04;gradientDirection=north;fillColor=#D05C17;strokeColor=#ffffff;dashed=0;verticalLabelPosition=bottom;verticalAlign=top;align=center;html=1;fontSize=19;fontStyle=0;aspect=fixed;shape=mxgraph.aws4.resourceIcon;resIcon=mxgraph.aws4.ec2;" vertex="1" parent="1">
          <mxGeometry x="380.5" y="735" width="110" height="110" as="geometry" />
        </mxCell>
        <mxCell id="h7jb9lpsqs1myCnT-5GU-54" style="edgeStyle=orthogonalEdgeStyle;rounded=0;orthogonalLoop=1;jettySize=auto;html=1;entryX=1;entryY=0.5;entryDx=0;entryDy=0;entryPerimeter=0;fontSize=24;fontColor=#FFFFFF;strokeColor=#FFFFFF;strokeWidth=3;" edge="1" parent="1" source="h7jb9lpsqs1myCnT-5GU-52" target="h7jb9lpsqs1myCnT-5GU-49">
          <mxGeometry relative="1" as="geometry" />
        </mxCell>
        <mxCell id="h7jb9lpsqs1myCnT-5GU-57" style="edgeStyle=orthogonalEdgeStyle;rounded=0;orthogonalLoop=1;jettySize=auto;html=1;entryX=0;entryY=0.5;entryDx=0;entryDy=0;entryPerimeter=0;fontSize=24;fontColor=#0087DE;strokeColor=#0066CC;strokeWidth=3;" edge="1" parent="1" source="h7jb9lpsqs1myCnT-5GU-52" target="h7jb9lpsqs1myCnT-5GU-30">
          <mxGeometry relative="1" as="geometry" />
        </mxCell>
        <mxCell id="h7jb9lpsqs1myCnT-5GU-52" value="AAS ZA" style="sketch=0;points=[[0,0,0],[0.25,0,0],[0.5,0,0],[0.75,0,0],[1,0,0],[0,1,0],[0.25,1,0],[0.5,1,0],[0.75,1,0],[1,1,0],[0,0.25,0],[0,0.5,0],[0,0.75,0],[1,0.25,0],[1,0.5,0],[1,0.75,0]];outlineConnect=0;fontColor=#FFFFFF;gradientColor=#F78E04;gradientDirection=north;fillColor=#D05C17;strokeColor=#ffffff;dashed=0;verticalLabelPosition=bottom;verticalAlign=top;align=center;html=1;fontSize=19;fontStyle=0;aspect=fixed;shape=mxgraph.aws4.resourceIcon;resIcon=mxgraph.aws4.ec2;" vertex="1" parent="1">
          <mxGeometry x="380" y="333" width="110.5" height="110.5" as="geometry" />
        </mxCell>
        <mxCell id="h7jb9lpsqs1myCnT-5GU-55" style="edgeStyle=orthogonalEdgeStyle;rounded=0;orthogonalLoop=1;jettySize=auto;html=1;entryX=1;entryY=0.5;entryDx=0;entryDy=0;entryPerimeter=0;fontSize=24;fontColor=#FFFFFF;strokeColor=#FFFFFF;strokeWidth=3;" edge="1" parent="1" source="h7jb9lpsqs1myCnT-5GU-53" target="h7jb9lpsqs1myCnT-5GU-50">
          <mxGeometry relative="1" as="geometry" />
        </mxCell>
        <mxCell id="h7jb9lpsqs1myCnT-5GU-58" style="edgeStyle=orthogonalEdgeStyle;rounded=0;orthogonalLoop=1;jettySize=auto;html=1;entryX=0;entryY=0.5;entryDx=0;entryDy=0;entryPerimeter=0;fontSize=24;fontColor=#0087DE;strokeColor=#0066CC;strokeWidth=3;" edge="1" parent="1" source="h7jb9lpsqs1myCnT-5GU-53" target="h7jb9lpsqs1myCnT-5GU-30">
          <mxGeometry relative="1" as="geometry">
            <Array as="points">
              <mxPoint x="610" y="591" />
              <mxPoint x="610" y="388" />
            </Array>
          </mxGeometry>
        </mxCell>
        <mxCell id="h7jb9lpsqs1myCnT-5GU-53" value="AAS ZA2" style="sketch=0;points=[[0,0,0],[0.25,0,0],[0.5,0,0],[0.75,0,0],[1,0,0],[0,1,0],[0.25,1,0],[0.5,1,0],[0.75,1,0],[1,1,0],[0,0.25,0],[0,0.5,0],[0,0.75,0],[1,0.25,0],[1,0.5,0],[1,0.75,0]];outlineConnect=0;fontColor=#FFFFFF;gradientColor=#F78E04;gradientDirection=north;fillColor=#D05C17;strokeColor=#ffffff;dashed=0;verticalLabelPosition=bottom;verticalAlign=top;align=center;html=1;fontSize=19;fontStyle=0;aspect=fixed;shape=mxgraph.aws4.resourceIcon;resIcon=mxgraph.aws4.ec2;" vertex="1" parent="1">
          <mxGeometry x="380" y="536" width="110.5" height="110.5" as="geometry" />
        </mxCell>
      </root>
    </mxGraphModel>
  </diagram>
</mxfile>
